<?xml version="1.0" standalone="no"?>
<!DOCTYPE svg PUBLIC "-//W3C//DTD SVG 1.1//EN" "http://www.w3.org/Graphics/SVG/1.1/DTD/svg11.dtd" >
<svg>
<metadata>
Created by FontForge 20120731 at Mon Apr 11 19:15:34 2016
 By ,,,
2008 Erik Spiekermann published by FSI FontShop International GmbH
</metadata>
<defs>
<font id="MetaPro-ThinIta" horiz-adv-x="476" >
  <font-face 
    font-family="MetaPro-ThinIta"
    font-weight="250"
    font-style="italic"
    font-stretch="normal"
    units-per-em="1000"
    panose-1="2 11 4 4 3 1 1 2 1 2"
    ascent="754"
    descent="-246"
    x-height="498"
    cap-height="686"
    bbox="-364 -276 1176 1022"
    underline-thickness="25"
    underline-position="-63"
    unicode-range="U+000D-FB06"
  />
<missing-glyph horiz-adv-x="500" 
d="M40 0v686h420v-686h-420zM61 21h378v644h-378v-644z" />
    <glyph glyph-name="f_b" unicode="fb" horiz-adv-x="760" 
d="M568 478q-89 0 -180 -152l-56 -265q48 -43 124 -43q72 0 125.5 55t77 126.5t23.5 141.5t-27 103.5t-87 33.5zM467 692l-52 -241q-1 -8 -18 -79q78 133 181 133q67 0 101.5 -43t34.5 -121q0 -82 -28 -159.5t-89 -133.5t-143 -56q-85 0 -156 55q17 70 18 76l117 554
q-61 22 -126 22q-33 0 -58 -24t-35 -70l-24 -107h127l-14 -23h-118l-99 -475q-18 -84 -34 -122t-48 -77l-25 15q32 40 45.5 74t29.5 110l100 475h-48l5 23h48l23 107q12 57 47.5 88t82.5 31q83 0 155 -32z" />
    <glyph glyph-name="f_f" unicode="ff" horiz-adv-x="475" 
d="M288 0l100 475h-203l-99 -475q-18 -84 -34 -122t-48 -77l-25 15q32 40 45.5 74t29.5 110l100 475h-48l5 23h48l23 108q26 118 129 118q45 0 76 -22l-12 -23q-30 21 -66 21t-61 -25t-35 -70l-23 -107h203l23 108q26 118 129 118q45 0 76 -22l-12 -23q-30 21 -66 21
t-61 -25t-35 -70l-23 -107h127l-14 -23h-118l-99 -475q-18 -84 -34 -122t-48 -77l-25 15q32 40 45.5 74t29.5 110z" />
    <glyph glyph-name="f_f_i" unicode="ffi" horiz-adv-x="675" 
d="M54 0l100 475h-48l5 23h48l23 108q26 118 129 118q45 0 76 -22l-12 -23q-30 21 -66 21t-61 -25t-35 -70l-23 -107h200l23 108q26 118 129 118q45 0 76 -22l-12 -23q-30 21 -66 21t-61 -25t-35 -70l-23 -107h231l-105 -498h-31l101 475h-201l-99 -475q-18 -84 -34 -122
t-48 -77l-25 15q32 40 45.5 74t29.5 110l100 475h-200l-99 -475q-18 -84 -34 -122t-48 -77l-25 15q32 40 45.5 74t29.5 110zM665 632q-11 0 -18.5 7.5t-7.5 18.5t7.5 19t18.5 8t19 -8t8 -19t-8 -18.5t-19 -7.5z" />
    <glyph glyph-name="f_f_j" unicode="ffj" horiz-adv-x="680" 
d="M295 0l100 475h-210l-99 -475q-18 -84 -34 -122t-48 -77l-25 15q32 40 45.5 74t29.5 110l100 475h-48l5 23h48l23 108q26 118 129 118q45 0 76 -22l-12 -23q-30 21 -66 21t-61 -25t-35 -70l-23 -107h210l23 108q26 118 129 118q45 0 76 -22l-12 -23q-30 21 -66 21
t-61 -25t-35 -70l-23 -107h229l-104 -486q-16 -77 -41 -117t-88 -66l-11 20q51 22 72.5 56t37.5 109l98 461h-198l-99 -475q-18 -84 -34 -122t-48 -77l-25 15q32 40 45.5 74t29.5 110zM672 632q-11 0 -18.5 7.5t-7.5 18.5t7.5 19t18.5 8t19 -8t8 -19t-8 -18.5t-19 -7.5z" />
    <glyph glyph-name="f_f_t" unicode="fft" horiz-adv-x="729" 
d="M286 0l100 475h-201l-99 -475q-18 -84 -34 -122t-48 -77l-25 15q32 40 45.5 74t29.5 110l100 475h-48l5 23h48l23 108q26 118 129 118q45 0 76 -22l-12 -23q-30 21 -66 21t-61 -25t-35 -70l-23 -107h201l23 108q26 118 129 118q45 0 76 -22l-12 -23q-30 21 -66 21
t-61 -25t-35 -70l-23 -107h207q16 79 37 130l32 7q-20 -46 -39 -137h121l-14 -23h-113l-71 -337q-10 -48 -10 -72q0 -28 11 -39.5t40 -11.5q31 0 60 13v-24q-31 -14 -66 -14q-75 0 -75 73q0 31 9 71l73 341h-207l-99 -475q-18 -84 -34 -122t-48 -77l-25 15q32 40 45.5 74
t29.5 110z" />
    <glyph glyph-name="f_h" unicode="fh" horiz-adv-x="749" 
d="M467 692l-52 -241q-9 -44 -19 -83q101 137 198 137q47 0 72 -25.5t25 -68.5q0 -17 -6 -43l-77 -368h-30l76 360q7 33 7 49q0 70 -76 70q-84 0 -197 -151l-69 -328h-29l143 677q-61 22 -126 22q-33 0 -58 -24t-35 -70l-24 -107h127l-14 -23h-118l-99 -475
q-18 -84 -34 -122t-48 -77l-25 15q32 40 45.5 74t29.5 110l100 475h-48l5 23h48l23 107q12 57 47.5 88t82.5 31q83 0 155 -32z" />
    <glyph glyph-name="f_i" unicode="fi" horiz-adv-x="445" 
d="M54 0l100 475h-48l5 23h48l23 108q26 118 129 118q45 0 76 -22l-12 -23q-30 21 -66 21t-61 -25t-35 -70l-23 -107h231l-105 -498h-31l101 475h-201l-99 -475q-18 -84 -34 -122t-48 -77l-25 15q32 40 45.5 74t29.5 110zM434 632q-11 0 -18.5 7.5t-7.5 18.5t7.5 19t18.5 8
t19 -8t8 -19t-8 -18.5t-19 -7.5z" />
    <glyph glyph-name="f_j" unicode="fj" horiz-adv-x="442" 
d="M189 -171l-11 20q51 22 72.5 56t37.5 109l97 461h-200l-99 -475q-18 -84 -34 -122t-48 -77l-25 15q32 40 45.5 74t29.5 110l100 475h-48l5 23h48l23 108q26 118 129 118q45 0 76 -22l-12 -23q-30 21 -66 21t-61 -25t-35 -70l-23 -107h231l-103 -486q-16 -77 -41 -117
t-88 -66zM436 632q-11 0 -18.5 7.5t-7.5 18.5t7.5 19t18.5 8t19 -8t8 -19t-8 -18.5t-19 -7.5z" />
    <glyph glyph-name="f_k" unicode="fk" horiz-adv-x="655" 
d="M467 692l-148 -692h-29l143 677q-61 22 -126 22q-33 0 -58 -24t-35 -70l-24 -107h127l-14 -23h-118l-99 -475q-18 -84 -34 -122t-48 -77l-25 15q32 40 45.5 74t29.5 110l100 475h-48l5 23h48l23 107q12 57 47.5 88t82.5 31q83 0 155 -32zM590 -8l-201 285l278 229l19 -17
l-261 -214l192 -273z" />
    <glyph glyph-name="f_t" unicode="ft" horiz-adv-x="486" 
d="M374 -10q-75 0 -75 73q0 31 9 71l73 341h-196l-99 -475q-18 -84 -34 -122t-48 -77l-25 15q32 40 45.5 74t29.5 110l100 475h-48l5 23h48l23 108q26 118 129 118q45 0 76 -22l-12 -23q-30 21 -66 21t-61 -25t-35 -70l-23 -107h196q16 79 37 130l32 7q-20 -46 -39 -137h121
l-14 -23h-113l-71 -337q-10 -48 -10 -72q0 -28 11 -39.5t40 -11.5q31 0 60 13v-24q-31 -14 -66 -14z" />
    <glyph glyph-name=".notdef" horiz-adv-x="500" 
d="M40 0v686h420v-686h-420zM61 21h378v644h-378v-644z" />
    <glyph glyph-name=".null" horiz-adv-x="0" 
 />
    <glyph glyph-name=".null" horiz-adv-x="0" 
 />
    <glyph glyph-name="nonmarkingreturn" horiz-adv-x="333" 
 />
    <glyph glyph-name="CR" unicode="&#xd;" horiz-adv-x="225" 
 />
    <glyph glyph-name="space" unicode=" " horiz-adv-x="225" 
 />
    <glyph glyph-name="exclam" unicode="!" horiz-adv-x="235" 
d="M83 150l108 536l37 5l-121 -541h-24zM71 -7q-11 0 -19 8t-8 19q0 12 8 20t19 8q12 0 20 -8t8 -20q0 -11 -8.5 -19t-19.5 -8z" />
    <glyph glyph-name="quotedbl" unicode="&#x22;" horiz-adv-x="333" 
d="M257 480l45 212h28l-45 -212h-28zM141 480l45 212h28l-45 -212h-28z" />
    <glyph glyph-name="numbersign" unicode="#" horiz-adv-x="546" 
d="M56 0l82 231h-98v26h107l67 195h-98v26h108l82 230h28l-82 -230h167l81 230h28l-82 -230h98v-26h-108l-67 -195h98v-26h-108l-81 -231h-28l82 231h-167l-81 -231h-28zM175 257h166l68 195h-167z" />
    <glyph glyph-name="dollar" unicode="$" horiz-adv-x="493" 
d="M491 621q-62 45 -139 48l-63 -300l23 -10q120 -52 120 -147q0 -94 -63.5 -152t-159.5 -67l-20 -93h-25l19 91h-8q-100 0 -176 54l16 25q65 -53 166 -53h8l71 331l-37 17q-107 49 -107 133q0 92 63 142.5t155 53.5l15 71h24l-15 -70q88 -3 150 -52zM282 338l-68 -319
q78 10 132 60.5t54 127.5q0 48 -30 79t-88 52zM148 504q0 -43 23.5 -68.5t76.5 -48.5l18 -8l62 289q-75 -4 -127.5 -47t-52.5 -117z" />
    <glyph glyph-name="percent" unicode="%" horiz-adv-x="756" 
d="M213 366q-53 0 -84 32t-31 86q0 82 51 143t132 61q55 0 85 -32.5t30 -86.5q0 -83 -51 -143t-132 -60zM218 389q66 0 108.5 53t42.5 127q0 43 -22 69.5t-71 26.5q-68 0 -110 -54t-42 -127q0 -43 23 -69t71 -26zM149 0l477 681h29l-477 -681h-29zM520 -7q-54 0 -84.5 31.5
t-30.5 85.5q0 82 51 143t132 61q55 0 85 -32.5t30 -86.5q0 -82 -51 -142t-132 -60zM526 15q65 0 107.5 53t42.5 127q0 96 -93 96q-68 0 -110 -54t-42 -127q0 -95 95 -95z" />
    <glyph glyph-name="ampersand" unicode="&#x26;" horiz-adv-x="623" 
d="M495 547q0 -40 -17.5 -73t-54 -59.5t-67 -42.5t-80.5 -38l169 -204q54 79 78 202h28q-28 -139 -86 -218l-3 -4l92 -110h-39l-73 86q-89 -99 -231 -99q-78 0 -122 36t-44 99q0 43 14.5 77.5t43 60t57 43t70.5 36.5q-67 82 -67 143q0 75 59.5 123t139.5 48q59 0 96 -28
t37 -78zM217 10q128 0 209 96l-181 215q-77 -35 -122.5 -80.5t-45.5 -116.5q0 -53 36.5 -83.5t103.5 -30.5zM196 484q0 -55 64 -132q44 19 65.5 29.5t53 30t46.5 36t26.5 41.5t11.5 54q0 42 -28.5 64.5t-77.5 22.5q-63 0 -112 -40.5t-49 -105.5z" />
    <glyph glyph-name="quotesingle" unicode="'" horiz-adv-x="216" 
d="M141 480l44 212h28l-44 -212h-28z" />
    <glyph glyph-name="parenleft" unicode="(" horiz-adv-x="302" 
d="M238 -138l-12 -18q-139 74 -139 276q0 95 19.5 192t58.5 188.5t106 164t153 105.5l7 -20q-81 -33 -144.5 -107.5t-99.5 -166.5t-54 -184.5t-18 -177.5q0 -183 123 -252z" />
    <glyph glyph-name="parenright" unicode=")" horiz-adv-x="302" 
d="M94 752l12 18q139 -74 139 -276q0 -95 -19.5 -192t-58.5 -188.5t-106 -164t-153 -105.5l-7 20q81 33 144.5 107.5t99.5 166.5t54 184.5t18 177.5q0 183 -123 252z" />
    <glyph glyph-name="asterisk" unicode="*" horiz-adv-x="458" 
d="M180 398l-20 15l91 128l-144 43l7 23l145 -43v148h25v-148l145 43l7 -23l-145 -43l93 -128l-21 -15l-91 129z" />
    <glyph glyph-name="plus" unicode="+" horiz-adv-x="493" 
d="M193 50l39 186h-185l6 28h185l40 185h28l-40 -185h186l-6 -28h-186l-39 -186h-28z" />
    <glyph glyph-name="comma" unicode="," horiz-adv-x="188" 
d="M0 -106l-12 18q57 37 58 82q-3 -1 -7 -1q-10 0 -17.5 8t-7.5 19q0 13 8.5 21.5t20.5 8.5q34 0 34 -45q0 -65 -77 -111z" />
    <glyph glyph-name="hyphen" unicode="-" horiz-adv-x="323" 
d="M70 262l6 29h191l-6 -29h-191z" />
    <glyph glyph-name="period" unicode="." horiz-adv-x="203" 
d="M63 -8q-11 0 -19.5 8.5t-8.5 20.5t8 20t20 8t20.5 -8t8.5 -20t-9 -20.5t-20 -8.5z" />
    <glyph glyph-name="slash" unicode="/" horiz-adv-x="366" 
d="M-40 -148l451 905h27l-451 -905h-27z" />
    <glyph glyph-name="zero" unicode="0" horiz-adv-x="550" 
d="M491 334q0 -59 -17.5 -118t-49.5 -110t-84.5 -82.5t-116.5 -31.5q-76 0 -118 46t-42 129q0 80 29 156t92 130.5t147 54.5q77 0 118.5 -45.5t41.5 -128.5zM230 18q71 0 125 48t80 120t26 152q0 145 -135 145q-106 0 -169 -97t-63 -223q0 -145 136 -145z" />
    <glyph glyph-name="one" unicode="1" horiz-adv-x="383" 
d="M61 0l5 25h100l94 440q-3 -2 -34.5 -19.5t-65.5 -36.5t-52 -27l-4 19l169 102h25l-102 -478h99l-5 -25h-229z" />
    <glyph glyph-name="two" unicode="2" horiz-adv-x="512" 
d="M23 0l5 25q213 143 276 197q113 95 113 171q0 44 -27.5 66t-76.5 22q-48 0 -90.5 -17.5t-98.5 -51.5l-11 20q114 76 212 76q52 0 89.5 -30t37.5 -79q0 -21 -5.5 -42t-19.5 -42t-27.5 -39t-39 -40.5t-45 -38.5t-55 -41.5t-58 -41t-65 -44.5t-66.5 -46q30 2 103 2h226
l-11 -26h-366z" />
    <glyph glyph-name="three" unicode="3" horiz-adv-x="485" 
d="M257 209q61 -8 95 -40t34 -82q0 -63 -34.5 -114t-89.5 -81.5t-116.5 -46.5t-120.5 -16q-34 0 -49 3l-3 22q15 -3 54 -3q125 0 226 68t101 167q0 56 -43 84.5t-119 28.5h-36l4 23h58q73 0 126.5 48.5t53.5 118.5q0 93 -109 93q-81 0 -181 -59l-10 18q97 66 200 66
q58 0 95 -30t37 -83q0 -71 -51 -122.5t-122 -62.5z" />
    <glyph glyph-name="four" unicode="4" horiz-adv-x="500" 
d="M268 -187l41 187h-317l5 24l342 486h34l-345 -485q7 0 29 0.5t35 0.5h222l26 116l38 160l26 8l-62 -284h82l-5 -26h-82l-37 -178z" />
    <glyph glyph-name="five" unicode="5" horiz-adv-x="461" 
d="M27 -174q-34 0 -60 7v23q21 -7 61 -7q114 0 205.5 75t91.5 183q0 56 -37 85.5t-106 29.5q-70 0 -127 -25l94 301h271l-10 -26h-240l-76 -242q44 16 102 16q74 0 118 -36t44 -99q0 -81 -48.5 -147.5t-124 -102t-158.5 -35.5z" />
    <glyph glyph-name="six" unicode="6" horiz-adv-x="543" 
d="M507 671q-140 -50 -249.5 -146.5t-148.5 -228.5q39 39 91.5 63t105.5 24q68 0 110 -41.5t42 -108.5q0 -103 -68.5 -173t-169.5 -70q-74 0 -118 50.5t-44 132.5q0 95 39 181.5t104 151t142 112t160 74.5zM297 359q-96 0 -195 -92q-11 -49 -11 -97q0 -72 35 -114t98 -42
q84 0 142.5 63.5t58.5 153.5q0 58 -34 93t-94 35z" />
    <glyph glyph-name="seven" unicode="7" horiz-adv-x="460" 
d="M5 -175q65 157 186 332t260 315h-356l12 26h377l-5 -30q-292 -301 -436 -634z" />
    <glyph glyph-name="eight" unicode="8" horiz-adv-x="538" 
d="M515 539q0 -38 -16 -69t-45.5 -54t-59.5 -38.5t-71 -31.5q67 -30 103 -65.5t36 -88.5q0 -91 -72.5 -146t-172.5 -55q-78 0 -125 36.5t-47 99.5q0 149 213 218q-54 25 -84.5 57t-30.5 80q0 74 61 124.5t159 50.5q68 0 110 -32.5t42 -85.5zM430 187q0 51 -35 83t-112 65
q-44 -15 -75.5 -31t-64 -40t-50 -58t-17.5 -77q0 -54 39.5 -84.5t108.5 -30.5q86 0 146 47t60 126zM173 486q0 -45 30 -73.5t94 -55.5q42 17 70 31t58 35.5t45.5 49t15.5 61.5q0 46 -34.5 73t-96.5 27q-79 0 -130.5 -42t-51.5 -106z" />
    <glyph glyph-name="nine" unicode="9" horiz-adv-x="527" 
d="M-25 -176q152 41 275.5 139t168.5 232q-83 -85 -194 -85q-67 0 -109.5 42t-42.5 109q0 104 68.5 175t172.5 71q74 0 116.5 -48.5t42.5 -132.5q0 -98 -43 -187.5t-114 -155t-156 -112t-174 -68.5zM234 134q104 0 193 89q14 51 14 103q0 75 -34.5 115.5t-98.5 40.5
q-87 0 -145 -64t-58 -156q0 -58 34.5 -93t94.5 -35z" />
    <glyph glyph-name="colon" unicode=":" horiz-adv-x="219" 
d="M70 -8q-11 0 -19.5 8.5t-8.5 20.5t8 20t20 8t20.5 -8t8.5 -20t-9 -20.5t-20 -8.5zM137 298q-11 0 -19.5 8.5t-8.5 20.5t8 20t20 8t20.5 -8t8.5 -20t-9 -20.5t-20 -8.5z" />
    <glyph glyph-name="semicolon" unicode=";" horiz-adv-x="225" 
d="M137 298q-11 0 -19.5 8.5t-8.5 20.5t8 20t20 8t20.5 -8t8.5 -20t-9 -20.5t-20 -8.5zM20 -106l-12 18q57 37 58 82q-3 -1 -7 -1q-10 0 -17.5 8t-7.5 19q0 13 8.5 21.5t20.5 8.5q34 0 34 -45q0 -65 -77 -111z" />
    <glyph glyph-name="less" unicode="&#x3c;" horiz-adv-x="274" 
d="M174 57l-139 231l235 230l23 -19l-221 -215l129 -212z" />
    <glyph glyph-name="equal" unicode="=" horiz-adv-x="527" 
d="M74 329l5 26h435l-5 -26h-435zM43 184l6 25h434l-6 -25h-434z" />
    <glyph glyph-name="greater" unicode="&#x3e;" horiz-adv-x="274" 
d="M128 518l140 -232l-235 -229l-23 18l222 217l-129 211z" />
    <glyph glyph-name="question" unicode="?" horiz-adv-x="400" 
d="M132 162q3 75 24.5 124t79.5 91q8 6 31 22t32 23t27 21.5t26 26t18 28t14 35t4 39.5q0 45 -28.5 70t-78.5 25q-62 0 -146 -47l-11 21q85 52 164 52q57 0 93.5 -32t36.5 -85q0 -25 -3.5 -45.5t-15 -39.5t-18.5 -30.5t-28 -29t-29 -23.5t-35.5 -25t-34.5 -24
q-49 -34 -70.5 -79.5t-24.5 -117.5h-27zM137 -8q-11 0 -19.5 8.5t-8.5 20.5t8 20t20 8t20.5 -8t8.5 -20t-9 -20.5t-20 -8.5z" />
    <glyph glyph-name="at" unicode="@" horiz-adv-x="818" 
d="M420 -145q-71 0 -133 20.5t-112.5 60.5t-80 108t-29.5 155q0 161 103 273.5t256 112.5q139 0 235 -86.5t96 -229.5q0 -124 -54.5 -190.5t-127.5 -66.5q-80 0 -80 80q0 14 3 32q-62 -104 -150 -104q-48 0 -77.5 34t-29.5 97q0 103 60 184.5t158 81.5q65 0 118 -36
q-3 -8 -18 -75l-36 -159q-7 -28 -7 -51q0 -62 60 -62q61 0 107 62t46 173q0 132 -87.5 213t-215.5 81q-141 0 -236 -107.5t-95 -256.5q0 -80 27 -142.5t73.5 -101t104 -58t122.5 -19.5q74 0 137 24q1 -4 3.5 -11.5l3.5 -10.5q-68 -25 -144 -25zM352 44q46 0 86 37t61 90
l44 198q-39 27 -88 27q-84 0 -135.5 -75t-51.5 -163q0 -114 84 -114z" />
    <glyph glyph-name="A" unicode="A" 
d="M403 0l-27 234h-276l-125 -234h-34l372 686h40l82 -686h-32zM277 563l-163 -303h259l-45 402q-33 -66 -51 -99z" />
    <glyph glyph-name="B" unicode="B" horiz-adv-x="533" 
d="M41 0l145 686h144q190 0 190 -133q0 -69 -46.5 -123t-133.5 -67q63 -7 103.5 -42.5t40.5 -95.5q0 -225 -294 -225h-149zM150 376h139q47 0 91 18t75.5 59t31.5 97q0 61 -39 85t-109 24h-129zM75 26h129q248 0 248 199q0 64 -50 94t-122 30h-135z" />
    <glyph glyph-name="C" unicode="C" horiz-adv-x="513" 
d="M271 -8q-199 0 -199 231q0 61 12.5 124.5t40 125.5t66.5 110.5t96.5 78.5t125.5 30q90 0 145 -51l-18 -20q-50 46 -131 46q-74 0 -134.5 -43t-96.5 -110t-55.5 -142.5t-19.5 -148.5q0 -205 178 -205q80 0 156 49l12 -21q-84 -54 -178 -54z" />
    <glyph glyph-name="D" unicode="D" horiz-adv-x="583" 
d="M41 0l145 686h107q59 0 102.5 -9.5t81.5 -33.5t58 -72t20 -119q0 -91 -21.5 -170t-65.5 -143.5t-119 -101.5t-173 -37h-135zM76 26h105q86 0 152.5 33.5t107 92.5t61 134t20.5 163q0 120 -57 165t-166 45h-88z" />
    <glyph glyph-name="E" unicode="E" horiz-adv-x="467" 
d="M41 0l145 686h338l-10 -27h-303l-61 -288h244l-6 -27h-244l-67 -317h321l-6 -27h-351z" />
    <glyph glyph-name="F" unicode="F" horiz-adv-x="408" 
d="M41 0l145 686h338l-11 -27h-302l-61 -288h248l-6 -27h-247l-73 -344h-31z" />
    <glyph glyph-name="G" unicode="G" horiz-adv-x="590" 
d="M283 -8q-112 0 -161.5 63.5t-49.5 166.5q0 59 13 122t41 125.5t67 112t97 80t125 30.5q94 0 157 -55l-17 -20q-58 49 -145 49q-75 0 -135.5 -43.5t-96.5 -112t-55 -144t-19 -147.5q0 -90 43.5 -145.5t143.5 -55.5q79 0 148 36l55 259h-176v26h211l-64 -302
q-85 -45 -182 -45z" />
    <glyph glyph-name="H" unicode="H" horiz-adv-x="581" 
d="M41 0l145 686h30l-65 -308h339l66 308h31l-145 -686h-31l74 352h-340l-74 -352h-30z" />
    <glyph glyph-name="I" unicode="I" horiz-adv-x="210" 
d="M41 0l145 686h30l-145 -686h-30z" />
    <glyph glyph-name="J" unicode="J" horiz-adv-x="233" 
d="M-62 -123l-12 21q77 28 110 71q16 21 27.5 57t29.5 120l115 540h31l-121 -571q-15 -70 -25.5 -102t-31.5 -58q-41 -51 -123 -78z" />
    <glyph glyph-name="K" unicode="K" horiz-adv-x="481" 
d="M413 7l-29 -13q-122 198 -224 368l368 332l22 -19l-354 -315zM41 0l145 686h31l-145 -686h-31z" />
    <glyph glyph-name="L" unicode="L" horiz-adv-x="413" 
d="M41 0l145 686h30l-140 -660h291l-10 -26h-316z" />
    <glyph glyph-name="M" unicode="M" horiz-adv-x="730" 
d="M21 0l205 686h44l47 -534q8 -86 8 -111q11 30 51 108l275 537h45l-83 -686h-30l68 562q11 81 13 95q-26 -54 -40 -81l-294 -576h-28l-50 557q-7 77 -7 100l-193 -657h-31z" />
    <glyph glyph-name="N" unicode="N" horiz-adv-x="593" 
d="M41 0l145 686h37l176 -540l35 -111q0 11 27 139l107 512h30l-145 -686h-34l-178 534q-23 69 -35 117l-135 -651h-30z" />
    <glyph glyph-name="O" unicode="O" horiz-adv-x="624" 
d="M266 15q77 0 137.5 47.5t94 120.5t50 147.5t16.5 141.5q0 196 -162 196q-62 0 -114 -32t-85 -82t-56 -112.5t-32.5 -120.5t-9.5 -110q0 -196 161 -196zM260 -8q-52 0 -90 18t-58.5 50.5t-29.5 71t-9 85.5q0 80 19 159.5t57 152.5t105.5 118.5t153.5 45.5q52 0 90 -18.5
t58.5 -51t30 -71t9.5 -85.5q0 -62 -11.5 -126t-37.5 -127t-63.5 -112t-95.5 -79.5t-128 -30.5z" />
    <glyph glyph-name="P" unicode="P" horiz-adv-x="502" 
d="M41 0l145 686h136q89 0 146.5 -36.5t57.5 -120.5q0 -121 -73.5 -179t-183.5 -58h-137l-61 -292h-30zM138 318h135q93 0 156.5 51t63.5 155q0 78 -47 106.5t-130 28.5h-106z" />
    <glyph glyph-name="Q" unicode="Q" horiz-adv-x="625" 
d="M261 -8q-52 0 -90 18t-58.5 50.5t-30 71t-9.5 85.5q0 80 19 159.5t57 152.5t105.5 118.5t153.5 45.5q52 0 90 -18.5t58.5 -51t30 -71t9.5 -85.5q0 -74 -16.5 -148.5t-49.5 -144t-91 -118t-132 -60.5q49 -10 111 -52q55 -39 106 -39q32 0 56 10l-11 -24q-21 -9 -55 -9
q-49 0 -124 50q-28 18 -41.5 26.5t-36 17.5t-51.5 16zM266 15q77 0 137.5 47.5t94 120.5t50 147.5t16.5 141.5q0 196 -162 196q-62 0 -114 -32t-85 -82t-56 -112.5t-32.5 -120.5t-9.5 -110q0 -196 161 -196z" />
    <glyph glyph-name="R" unicode="R" horiz-adv-x="491" 
d="M432 5l-29 -9q-76 200 -134 274q-25 32 -42.5 40t-56.5 8h-32q-44 -212 -67 -318h-30l145 686h122q38 0 70.5 -6.5t63 -22t48 -46t17.5 -72.5q0 -108 -67 -163.5t-189 -56.5q52 -18 123 -172q32 -68 58 -142zM473 533q0 126 -167 126h-95l-68 -319h79q114 0 166 33
q85 51 85 160z" />
    <glyph glyph-name="S" unicode="S" horiz-adv-x="514" 
d="M503 621q-64 48 -148 48q-79 0 -136.5 -43.5t-57.5 -121.5q0 -42 23 -68.5t76 -48.5l64 -28q120 -52 120 -147q0 -102 -75 -161.5t-182 -59.5q-100 0 -176 54l16 25q65 -53 166 -53q86 0 152 52t66 138q0 47 -27 76t-81 52l-61 27q-114 48 -114 136q0 96 68 146.5
t164 50.5q95 0 160 -52z" />
    <glyph glyph-name="T" unicode="T" horiz-adv-x="419" 
d="M158 0l140 659h-196l5 27h427l-8 -27h-198l-140 -659h-30z" />
    <glyph glyph-name="U" unicode="U" horiz-adv-x="579" 
d="M237 -8q-81 0 -121.5 38t-40.5 106q0 33 8 68l102 482h30l-100 -472q-9 -45 -9 -75q0 -59 31.5 -90t107.5 -31q102 0 153 56q40 45 58 129l103 483h30l-103 -486q-21 -100 -68 -147q-63 -61 -181 -61z" />
    <glyph glyph-name="V" unicode="V" horiz-adv-x="527" 
d="M195 0l-83 686h31l60 -508q10 -77 15 -144l355 652h33l-377 -686h-34z" />
    <glyph glyph-name="W" unicode="W" horiz-adv-x="733" 
d="M134 0l-22 686h31l15 -513q1 -33 1 -97v-47q3 9 63 144l229 513h35l7 -513q1 -70 1 -144q8 27 61 145l225 512h32l-303 -686h-41l-6 507q-1 45 -1 138q-1 -1 -10 -23.5t-23.5 -56.5t-25.5 -59l-228 -506h-40z" />
    <glyph glyph-name="X" unicode="X" horiz-adv-x="415" 
d="M505 686l-246 -317l147 -369h-36l-134 344l-263 -344h-38l286 372l-123 314h36l111 -288l222 288h38z" />
    <glyph glyph-name="Y" unicode="Y" horiz-adv-x="478" 
d="M173 0l57 272l-133 414h34l99 -318q1 -4 9 -30t11 -38q6 9 14.5 20.5t19.5 26.5t18 24l233 315h38l-311 -416l-57 -270h-32z" />
    <glyph glyph-name="Z" unicode="Z" horiz-adv-x="501" 
d="M5 0v24l451 570q15 19 55 66q-16 -1 -64 -1h-283l10 27h369v-27l-455 -575q-13 -16 -48 -58q15 1 62 1h296l-9 -27h-384z" />
    <glyph glyph-name="bracketleft" unicode="[" horiz-adv-x="234" 
d="M8 -156l189 888h122l-5 -24h-93l-179 -840h93l-5 -24h-122z" />
    <glyph glyph-name="backslash" unicode="\" horiz-adv-x="365" 
d="M260 -39l-137 769l27 7l138 -768z" />
    <glyph glyph-name="bracketright" unicode="]" horiz-adv-x="233" 
d="M248 732l-189 -888h-121l5 24h92q32 149 92 431t87 409h-93l5 24h122z" />
    <glyph glyph-name="asciicircum" unicode="^" horiz-adv-x="536" 
d="M71 325l275 383h25l112 -383h-27l-102 351l-252 -351h-31z" />
    <glyph glyph-name="underscore" unicode="_" horiz-adv-x="494" 
d="M-77 -100l6 25h499l-6 -25h-499z" />
    <glyph glyph-name="grave" unicode="`" horiz-adv-x="258" 
d="M294 570l-174 102l17 28l169 -109z" />
    <glyph glyph-name="a" unicode="a" 
d="M322 504q65 0 116 -36q-13 -52 -19 -80l-52 -249q-9 -42 -9 -66q0 -34 24 -62l-23 -18q-30 32 -30 81q0 19 4 39q-64 -120 -165 -120q-65 0 -95.5 42t-30.5 113q0 152 83.5 254t196.5 102zM343 167l61 289q-37 23 -86 23q-97 0 -171 -95.5t-74 -237.5q0 -128 102 -128
q96 0 168 149z" />
    <glyph glyph-name="b" unicode="b" horiz-adv-x="511" 
d="M67 123l99 467q13 64 13 98q0 12 -4 32l30 10q4 -22 4 -40q0 -34 -14 -103l-29 -136l-18 -79q78 133 181 133q67 0 101.5 -43t34.5 -121q0 -82 -28 -159.5t-89 -133.5t-143 -56q-85 0 -156 55zM319 478q-89 0 -180 -152l-56 -265q48 -43 124 -43q72 0 125.5 55t77 126.5
t23.5 141.5t-27 103.5t-87 33.5z" />
    <glyph glyph-name="c" unicode="c" horiz-adv-x="404" 
d="M199 -8q-73 0 -109.5 46t-36.5 118q0 135 74 242.5t179 107.5q62 0 107 -39l-14 -24q-41 37 -98 37q-88 0 -152.5 -100.5t-64.5 -223.5q0 -63 30.5 -101t90.5 -38q67 0 128 53l13 -21q-70 -57 -147 -57z" />
    <glyph glyph-name="d" unicode="d" horiz-adv-x="516" 
d="M372 119q-31 -59 -78.5 -92.5t-97.5 -33.5q-142 0 -142 167q0 140 77 242.5t186 102.5q72 0 127 -40l56 265l28 -5l-124 -586q-9 -42 -9 -66q0 -34 24 -62l-24 -18q-28 33 -28 80q0 25 5 46zM202 19q104 0 180 152l56 268q-49 41 -123 41q-94 0 -161.5 -95t-67.5 -224
q0 -142 116 -142z" />
    <glyph glyph-name="e" unicode="e" horiz-adv-x="450" 
d="M185 240q-45 0 -91 4q-7 -36 -7 -76q0 -67 32.5 -109t98.5 -42q75 0 140 54l14 -20q-68 -59 -160 -59q-75 0 -116 49t-41 130q0 78 26.5 152.5t84 128.5t133.5 54q52 0 87.5 -29t35.5 -79q0 -158 -237 -158zM293 481q-71 0 -122 -62t-72 -152q36 -3 87 -3q206 0 206 133
q0 40 -27.5 62t-71.5 22z" />
    <glyph glyph-name="f" unicode="f" horiz-adv-x="241" 
d="M54 0l100 475h-48l5 23h48l23 108q26 118 129 118q45 0 76 -22l-12 -23q-30 21 -66 21t-61 -25t-35 -70l-23 -107h127l-14 -23h-118l-99 -475q-18 -84 -34 -122t-48 -77l-25 15q32 40 45.5 74t29.5 110z" />
    <glyph glyph-name="g" unicode="g" horiz-adv-x="503" 
d="M321 504q75 0 147 -36q-7 -26 -19 -80l-83 -387q-23 -106 -74 -152.5t-149 -46.5q-72 0 -153 38l11 25q69 -37 145 -37q84 0 127.5 40t62.5 125l27 124q-31 -59 -77 -91.5t-98 -32.5q-75 0 -108.5 46.5t-33.5 120.5q0 142 79 243t196 101zM374 171l60 282q-59 26 -117 26
q-101 0 -170 -93.5t-69 -224.5q0 -143 116 -143q104 0 180 153z" />
    <glyph glyph-name="h" unicode="h" horiz-adv-x="500" 
d="M195 587l-29 -136q-9 -44 -19 -83q101 137 198 137q47 0 72 -25.5t25 -68.5q0 -17 -6 -43l-77 -368h-30l76 360q7 33 7 49q0 70 -76 70q-84 0 -197 -151l-69 -328h-29l125 590q13 64 13 98q0 12 -4 32l30 10q4 -22 4 -40q0 -34 -14 -103z" />
    <glyph glyph-name="i" unicode="i" horiz-adv-x="200" 
d="M41 0l105 500l32 5l-107 -505h-30zM190 632q-11 0 -18.5 7.5t-7.5 18.5t7.5 19t18.5 8t19 -8t8 -19t-8 -18.5t-19 -7.5z" />
    <glyph glyph-name="j" unicode="j" horiz-adv-x="198" 
d="M-55 -171l-11 20q51 22 72.5 56t37.5 109l103 485l32 6l-105 -493q-16 -77 -41 -117t-88 -66zM190 632q-11 0 -18.5 7.5t-7.5 18.5t7.5 19t18.5 8t19 -8t8 -19t-8 -18.5t-19 -7.5z" />
    <glyph glyph-name="k" unicode="k" horiz-adv-x="406" 
d="M341 -8l-201 285l278 229l19 -17l-261 -214l192 -273zM195 587l-125 -587h-29l125 590q13 64 13 98q0 12 -4 32l30 10q4 -22 4 -40q0 -34 -14 -103z" />
    <glyph glyph-name="l" unicode="l" horiz-adv-x="218" 
d="M195 587l-105 -492q-8 -36 -8 -52q0 -25 26 -25q10 0 22 4l2 -22q-18 -6 -35 -6q-45 0 -45 44q0 19 8 57l106 495q13 64 13 98q0 12 -4 32l30 10q4 -22 4 -40q0 -34 -14 -103z" />
    <glyph glyph-name="m" unicode="m" horiz-adv-x="749" 
d="M70 0h-30l80 379q13 61 13 79t-5 33l29 12q6 -18 6 -38q0 -21 -9 -65l-6 -30q91 135 187 135q43 0 65 -25.5t22 -67.5q0 -2 -5 -40q38 55 87 94t100 39q43 0 65 -25.5t22 -67.5q0 -16 -6 -45l-77 -367h-30l76 360q8 40 8 51q0 68 -66 68q-85 0 -189 -152l-68 -327h-30
l76 360q8 40 8 51q0 68 -66 68q-47 0 -97 -45.5t-91 -106.5z" />
    <glyph glyph-name="n" unicode="n" horiz-adv-x="500" 
d="M70 0h-30l80 379q13 61 13 79t-5 33l29 12q6 -18 6 -38q0 -21 -9 -65l-7 -31q99 136 198 136q47 0 72 -25.5t25 -68.5q0 -10 -6 -44l-77 -367h-30l76 360q7 33 7 49q0 70 -76 70q-86 0 -198 -152z" />
    <glyph glyph-name="o" unicode="o" horiz-adv-x="493" 
d="M202 16q55 0 99 31.5t69 80.5t38 103.5t13 106.5q0 143 -123 143q-54 0 -98 -30.5t-69.5 -79t-39 -103.5t-13.5 -109q0 -143 124 -143zM196 -9q-77 0 -113 49t-36 126q0 56 15.5 113.5t45 109.5t81 85t116.5 33q77 0 112.5 -49t35.5 -125q0 -46 -9.5 -92.5t-30 -91.5
t-50 -80t-73 -56.5t-94.5 -21.5z" />
    <glyph glyph-name="p" unicode="p" horiz-adv-x="510" 
d="M154 400l-5 -22q77 127 178 127q66 0 101.5 -43t35.5 -120q0 -82 -28 -160t-89.5 -134t-142.5 -56q-71 0 -127 43l-50 -232l-31 -6l124 582q13 61 13 79t-5 33l29 12q6 -18 6 -38q0 -21 -9 -65zM318 479q-89 0 -180 -149l-55 -268q47 -44 122 -44q55 0 100 32t71.5 81.5
t41 104t14.5 105.5q0 138 -114 138z" />
    <glyph glyph-name="q" unicode="q" horiz-adv-x="510" 
d="M328 504q77 0 147 -36q-6 -22 -19 -84l-124 -578l-31 -7l69 318q-31 -59 -77.5 -91.5t-96.5 -32.5q-142 0 -142 167q0 142 78.5 243t195.5 101zM381 171l60 282q-59 26 -116 26q-101 0 -170.5 -94t-69.5 -224q0 -143 116 -143q104 0 180 153z" />
    <glyph glyph-name="r" unicode="r" horiz-adv-x="314" 
d="M70 0h-30l80 379q13 61 13 79t-5 33l29 12q6 -18 6 -38q0 -21 -9 -65l-7 -34q83 141 175 141q17 0 31 -6l-13 -32q-12 6 -31 6q-26 0 -50 -13.5t-48 -42.5t-38 -48.5t-37 -56.5z" />
    <glyph glyph-name="s" unicode="s" horiz-adv-x="423" 
d="M148 -9q-86 0 -149 45l14 22q63 -43 142 -43q65 0 112 32t47 93q0 38 -17 58.5t-67 41.5l-55 23q-46 19 -69 44t-23 63q0 68 51 103t129 35q70 0 129 -39l-13 -22q-53 36 -119 36q-61 0 -103.5 -26t-42.5 -81q0 -32 16.5 -50t58.5 -36l56 -24q58 -24 80 -51.5t22 -68.5
q0 -74 -54.5 -114.5t-144.5 -40.5z" />
    <glyph glyph-name="t" unicode="t" horiz-adv-x="260" 
d="M148 -10q-75 0 -75 73q0 31 9 71l73 341h-65l5 23h65q16 79 37 130l32 7q-20 -46 -39 -137h121l-14 -23h-113l-71 -337q-10 -48 -10 -72q0 -28 11 -39.5t40 -11.5q31 0 60 13v-24q-31 -14 -66 -14z" />
    <glyph glyph-name="u" unicode="u" horiz-adv-x="511" 
d="M369 125q-96 -134 -196 -134t-100 91q0 22 6 47l77 367l31 6l-78 -366q-7 -33 -7 -52q0 -69 79 -69q88 0 198 158l67 323l32 5l-78 -362q-9 -41 -9 -63q0 -37 24 -65l-23 -18q-29 30 -29 82q0 23 6 50z" />
    <glyph glyph-name="v" unicode="v" horiz-adv-x="409" 
d="M139 -5l-69 501l30 6l53 -398q8 -53 9 -73h2q12 24 38 70l222 397h34l-287 -503h-32z" />
    <glyph glyph-name="w" unicode="w" horiz-adv-x="613" 
d="M101 -4l-33 501l29 6l24 -401q3 -57 3 -67h2l25 55l193 408h33l23 -412q3 -45 3 -53h1l25 56l195 409h32l-242 -502h-34l-24 413q-3 42 -3 50h-1l-21 -46l-198 -417h-32z" />
    <glyph glyph-name="x" unicode="x" horiz-adv-x="336" 
d="M387 498l-191 -225l128 -273h-34l-115 250l-214 -250h-37l238 276l-103 222h36l89 -200l167 200h36z" />
    <glyph glyph-name="y" unicode="y" horiz-adv-x="405" 
d="M1 -202l-7 23q47 13 79 49t83 131l-16 -2q0 32 -7 86l-56 411l30 9l47 -356q11 -83 11 -126h2q2 5 52 99l201 376h35l-280 -516q-46 -85 -83 -127.5t-91 -56.5z" />
    <glyph glyph-name="z" unicode="z" horiz-adv-x="385" 
d="M-30 0v24l390 450h-270v24h306v-26l-389 -448h283l-14 -24h-306z" />
    <glyph glyph-name="braceleft" unicode="{" horiz-adv-x="275" 
d="M133 -156q-32 0 -51.5 22t-19.5 62q0 16 5 41l39 185q5 25 5 41q0 39 -18.5 58.5t-46.5 21.5l6 27q33 2 66.5 34.5t44.5 84.5l40 186q13 60 43.5 92.5t73.5 32.5h40l-5 -24h-35q-68 0 -90 -105l-40 -186q-14 -64 -50 -95.5t-63 -32.5v-2q20 -1 41 -24.5t21 -66.5
q0 -19 -4 -38l-39 -184q-6 -27 -6 -48q0 -58 50 -58h36l-5 -24h-38z" />
    <glyph glyph-name="bar" unicode="|" horiz-adv-x="205" 
d="M-10 -208l207 964h28l-207 -964h-28z" />
    <glyph glyph-name="braceright" unicode="}" horiz-adv-x="275" 
d="M127 732h38q32 0 51.5 -22t19.5 -62q0 -16 -5 -41l-39 -185q-5 -25 -5 -41q0 -39 18.5 -58.5t46.5 -21.5l-6 -27q-33 -2 -66.5 -34.5t-44.5 -84.5l-40 -186q-13 -60 -43.5 -92.5t-73.5 -32.5h-40l5 24h35q68 0 90 105l40 186q14 64 50 95.5t63 32.5v2q-20 1 -41 24.5
t-21 66.5q0 19 4 38l39 184q6 27 6 48q0 58 -50 58h-36z" />
    <glyph glyph-name="asciitilde" unicode="~" horiz-adv-x="582" 
d="M80 255l-10 19q22 24 37.5 38.5t43 27.5t56.5 13q38 0 100 -34.5t99 -34.5q57 0 105 70l10 -21q-59 -75 -123 -75q-39 0 -102.5 35t-97.5 35q-57 0 -118 -73z" />
    <glyph glyph-name="uni00A0" unicode="&#xa0;" horiz-adv-x="225" 
 />
    <glyph glyph-name="exclamdown" unicode="&#xa1;" horiz-adv-x="226" 
d="M147 354l-108 -536l-37 -5l121 541h24zM159 511q11 0 19 -8t8 -19q0 -12 -8 -20t-19 -8q-12 0 -20 8t-8 20q0 11 8.5 19t19.5 8z" />
    <glyph glyph-name="cent" unicode="&#xa2;" horiz-adv-x="418" 
d="M316 586h23l-18 -81q60 -4 105 -43l-19 -19q-36 32 -92 37l-98 -464q68 3 125 54l12 -21q-61 -53 -142 -56l-16 -78h-23l16 78q-67 4 -102 49.5t-35 113.5q0 130 72 236t174 113zM82 155q0 -58 29.5 -96.5t82.5 -42.5l98 463q-84 -7 -147 -106t-63 -218z" />
    <glyph glyph-name="sterling" unicode="&#xa3;" horiz-adv-x="457" 
d="M1 0l5 29h108l65 301h-96l5 26h96l27 125q43 202 207 202q75 0 119 -48l-21 -21q-35 42 -103 42q-72 0 -112.5 -45.5t-58.5 -130.5l-26 -124h162l-5 -26h-162l-65 -301h247l-5 -29h-387z" />
    <glyph glyph-name="currency" unicode="&#xa4;" horiz-adv-x="419" 
d="M292 59l-37 78q-35 -19 -77 -19q-41 0 -68 21l-71 -79l-20 16l72 81q-23 31 -23 72q0 45 19 87t51 69l-37 80l24 13l36 -78q36 22 81 22q37 0 66 -21l71 79l21 -16l-72 -80q24 -29 24 -79q0 -43 -20 -85.5t-53 -67.5l37 -80zM185 141q61 0 101 50t40 121q0 40 -22.5 63.5
t-66.5 23.5q-62 0 -101.5 -48.5t-39.5 -115.5q0 -94 89 -94z" />
    <glyph glyph-name="yen" unicode="&#xa5;" horiz-adv-x="475" 
d="M482 325h-181l-41 -55l-11 -51h210l-5 -24h-210l-41 -195h-32l41 195h-200l5 24h200l11 53l-17 53h-172l5 24h159l-108 337h34l99 -318q1 -4 9 -30t11 -38q6 9 14.5 20.5t19.5 26.5t18 24l233 315h38l-252 -337h168z" />
    <glyph glyph-name="brokenbar" unicode="&#xa6;" horiz-adv-x="209" 
d="M112 335l89 421h28l-90 -421h-27zM-3 -208l88 418h27l-88 -418h-27z" />
    <glyph glyph-name="section" unicode="&#xa7;" horiz-adv-x="446" 
d="M409 294q0 -49 -37 -85.5t-108 -67.5q62 -46 62 -114q0 -75 -54 -116t-135 -41q-47 0 -88.5 21t-59.5 57l28 14q15 -30 48 -47t76 -17q63 0 108 32.5t45 93.5q0 64 -62 101l-75 44q-30 18 -42 26t-29.5 24t-24 33.5t-6.5 40.5q0 93 146 154q-64 42 -64 111q0 74 53 110
t130 36q45 0 84 -17.5t57 -52.5l-28 -14q-31 57 -117 57q-61 0 -104 -28t-43 -88q0 -59 63 -97l75 -44q53 -31 77.5 -57.5t24.5 -68.5zM286 398l-63 35q-70 -31 -102.5 -62t-32.5 -73q0 -34 18 -53.5t68 -49.5l69 -40q65 28 99 59.5t34 72.5q0 36 -23 61.5t-67 49.5z" />
    <glyph glyph-name="dieresis" unicode="&#xa8;" horiz-adv-x="290" 
d="M298 590q-10 0 -17 7t-7 17t7 17t17 7t17 -7t7 -17t-7 -17t-17 -7zM160 590q-10 0 -17 7t-7 17t7 17t17 7t17 -7t7 -17t-7 -17t-17 -7z" />
    <glyph glyph-name="copyright" unicode="&#xa9;" horiz-adv-x="846" 
d="M449 702q146 0 250 -103t104 -253t-104 -253t-250 -103q-147 0 -250.5 103t-103.5 253t103.5 253t250.5 103zM449 12q135 0 231 96.5t96 237.5q0 140 -96 237t-231 97q-136 0 -232 -97t-96 -237q0 -141 96 -237.5t232 -96.5zM561 164q-46 -34 -102 -34q-78 0 -124 65
q-41 57 -41 149q0 82 33 141q44 78 125 78q59 0 100 -32l-12 -16q-36 28 -88 28q-68 0 -102 -66q-30 -58 -30 -132q0 -84 30 -131q39 -65 111 -65q48 0 88 31z" />
    <glyph glyph-name="ordfeminine" unicode="&#xaa;" horiz-adv-x="396" 
d="M374 377l-18 -14q-28 25 -28 60q0 16 4 33q-55 -88 -126 -88q-53 0 -74.5 35.5t-21.5 87.5q0 118 66.5 194t150.5 76q58 0 92 -28q-10 -34 -13 -47l-50 -214q-6 -29 -6 -44q0 -30 24 -51zM66 250l5 22h287l-6 -22h-286zM212 388q63 0 123 99l56 240q-30 15 -66 15
q-72 0 -130 -70.5t-58 -180.5q0 -103 75 -103z" />
    <glyph glyph-name="guillemotleft" unicode="&#xab;" horiz-adv-x="420" 
d="M153 47l-90 193l174 193l21 -16l-164 -180l83 -177zM303 47l-90 193l175 193l21 -16l-165 -180l83 -177z" />
    <glyph glyph-name="logicalnot" unicode="&#xac;" horiz-adv-x="468" 
d="M354 77l39 184h-346l6 27h375l-45 -211h-29z" />
    <glyph glyph-name="uni00AD" unicode="&#xad;" horiz-adv-x="323" 
d="M70 262l6 29h191l-6 -29h-191z" />
    <glyph glyph-name="registered" unicode="&#xae;" horiz-adv-x="846" 
d="M448 -10q-146 0 -249.5 102.5t-103.5 252.5t103.5 253t249.5 103t250 -103t104 -253t-104 -252.5t-250 -102.5zM448 11q135 0 231.5 97t96.5 237q0 141 -96.5 237.5t-231.5 96.5q-136 0 -231.5 -96.5t-95.5 -237.5q0 -140 95.5 -237t231.5 -97zM348 137v422h61
q88 0 119 -28q40 -36 40 -88q0 -49 -31.5 -78t-84.5 -31q29 -13 50 -45q51 -78 86 -152h-29q-9 21 -32 62q-3 5 -13 23.5t-15 27t-15 24t-18 24t-18.5 18t-21.5 13.5t-23 4h-31v-196h-24zM372 351h59q53 0 83 23.5t30 68.5q0 50 -38 76l-9 6q-26 14 -78 14h-47v-188z" />
    <glyph glyph-name="macron" unicode="&#xaf;" horiz-adv-x="295" 
d="M116 607l5 22h260l-5 -22h-260z" />
    <glyph glyph-name="degree" unicode="&#xb0;" horiz-adv-x="355" 
d="M151 396q63 0 102 51t39 115q0 92 -87 92q-63 0 -102.5 -51t-39.5 -115q0 -42 22 -67t66 -25zM145 374q-52 0 -80.5 31.5t-28.5 81.5q0 76 49 133t125 57q52 0 80.5 -32t28.5 -82q0 -76 -49 -132.5t-125 -56.5z" />
    <glyph glyph-name="plusminus" unicode="&#xb1;" horiz-adv-x="460" 
d="M202 162l33 154h-171l6 27h170l32 151h28l-32 -151h170l-5 -27h-171l-33 -154h-27zM9 56l6 27h368l-6 -27h-368z" />
    <glyph glyph-name="twosuperior" unicode="&#xb2;" horiz-adv-x="296" 
d="M45 284l3 16q50 34 86.5 61.5t77 64.5t62 73t21.5 69q0 30 -18.5 46.5t-46.5 16.5q-47 0 -106 -40l-10 18q62 45 123 45q38 0 62.5 -22.5t24.5 -59.5q0 -36 -22 -74.5t-64 -76.5t-71 -60.5t-75 -54.5h181l-9 -22h-219z" />
    <glyph glyph-name="threesuperior" unicode="&#xb3;" horiz-adv-x="312" 
d="M248 478q31 -7 48.5 -25.5t17.5 -44.5q0 -68 -66.5 -108.5t-147.5 -40.5q-20 0 -37 3l-2 20q24 -2 38 -2q75 0 131 37t56 91q0 60 -97 60h-26l4 21h33q48 0 80.5 24t32.5 64q0 55 -68 55q-51 0 -102 -35l-11 16q60 42 121 42q41 0 64.5 -20.5t23.5 -54.5q0 -38 -27.5 -65
t-65.5 -37z" />
    <glyph glyph-name="acute" unicode="&#xb4;" horiz-adv-x="278" 
d="M319 672l-176 -102l-11 20l169 110z" />
    <glyph glyph-name="mu" unicode="&#xb5;" horiz-adv-x="492" 
d="M470 505l-84 -410q-7 -31 -7 -54q0 -25 26 -25q10 0 22 4l2 -22q-18 -6 -35 -6q-45 0 -45 44q0 36 12 76q-28 -53 -73.5 -86.5t-101.5 -33.5q-65 0 -102 52q-9 -41 -27 -123.5t-25 -117.5l-31 -6l149 703l29 5l-87 -422q32 -65 96 -65q63 0 119.5 57t66.5 101l67 324z
" />
    <glyph glyph-name="paragraph" unicode="&#xb6;" horiz-adv-x="438" 
d="M118 -90l103 484q-61 0 -98 34.5t-37 87.5q0 97 62 144.5t152 47.5h148l-170 -798h-28l164 772h-104l-164 -772h-28z" />
    <glyph glyph-name="periodcentered" unicode="&#xb7;" horiz-adv-x="260" 
d="M118 252q-11 0 -19.5 8.5t-8.5 19.5q0 12 8 20.5t19 8.5q12 0 20.5 -8.5t8.5 -20.5q0 -11 -8.5 -19.5t-19.5 -8.5z" />
    <glyph glyph-name="cedilla" unicode="&#xb8;" horiz-adv-x="224" 
d="M14 -197q-42 0 -70 24l13 18q25 -19 60 -19q31 0 54 17.5t23 47.5q0 38 -50 38q-14 0 -34 -3l41 78l22 -2l-29 -57q9 1 17 1q28 0 44.5 -16t16.5 -36q0 -41 -30 -66t-78 -25z" />
    <glyph glyph-name="onesuperior" unicode="&#xb9;" horiz-adv-x="282" 
d="M90 284l5 22h74l67 313q-51 -29 -109 -57l-4 17l125 73h21l-73 -346h71l-4 -22h-173z" />
    <glyph glyph-name="ordmasculine" unicode="&#xba;" horiz-adv-x="404" 
d="M227 358q-56 0 -86 35t-30 94q0 63 20 120.5t67 100t112 42.5q57 0 86.5 -34.5t29.5 -92.5q0 -62 -19.5 -120t-66.5 -101.5t-113 -43.5zM62 250l5 23h284l-4 -23h-285zM305 728q-42 0 -75 -23t-52 -59.5t-29 -78t-10 -83.5q0 -104 93 -104q56 0 95.5 41t55 94t15.5 110
q0 103 -93 103z" />
    <glyph glyph-name="guillemotright" unicode="&#xbb;" horiz-adv-x="420" 
d="M267 433l90 -193l-175 -193l-21 16l165 182l-82 176zM116 433l90 -193l-174 -193l-21 16l164 182l-81 176z" />
    <glyph glyph-name="onequarter" unicode="&#xbc;" horiz-adv-x="897" 
d="M59 245l4 23h77l73 343q-7 -5 -54.5 -30.5t-54.5 -28.5l-6 17l128 74h22l-80 -375h75l-4 -23h-180zM100 -154l721 917h28l-721 -917h-28zM756 -19l23 106h-199l4 20l208 288h29q-3 -4 -51 -72t-96.5 -135.5t-57.5 -78.5l4 1h164l37 159l25 6l-35 -165h57l-5 -23h-57
l-21 -99z" />
    <glyph glyph-name="onehalf" unicode="&#xbd;" horiz-adv-x="862" 
d="M59 245l4 23h77l73 343q-7 -5 -54.5 -30.5t-54.5 -28.5l-6 17l128 74h22l-80 -375h75l-4 -23h-180zM50 -154l721 917h28l-721 -917h-28zM562 0l4 19q43 27 104 76q30 24 50 42t49 49t44.5 63t15.5 63q0 30 -18.5 47.5t-48.5 17.5q-51 0 -118 -39l-10 15q73 47 138 47
q39 0 63 -22.5t24 -59.5q0 -102 -159 -226q-55 -43 -93 -69h191l-8 -23h-228z" />
    <glyph glyph-name="threequarters" unicode="&#xbe;" horiz-adv-x="945" 
d="M61 222q-10 0 -30 2l-1 22q16 -3 32 -3q76 0 133 31q76 43 76 110q0 34 -38 51q-22 11 -67 11h-30l5 22h33q45 0 71 13q55 28 55 81q0 27 -19.5 43.5t-54.5 16.5q-54 0 -110 -38l-11 16q63 45 129 45q44 0 69.5 -20.5t25.5 -55.5q0 -40 -27 -69.5t-69 -42.5
q66 -17 66 -74q0 -42 -30.5 -78.5t-76.5 -57.5q-56 -25 -131 -25zM118 -154l721 917h28l-721 -917h-28zM804 -19l23 106h-199l4 20l208 288h29q-3 -4 -51 -72t-96.5 -135.5t-57.5 -78.5l4 1h164l37 159l25 6l-35 -165h57l-5 -23h-57l-21 -99z" />
    <glyph glyph-name="questiondown" unicode="&#xbf;" horiz-adv-x="399" 
d="M245 340h27q-3 -75 -24.5 -124t-79.5 -91q-8 -6 -31 -22t-32 -23t-27 -21.5t-26 -26t-18 -28t-14 -35t-4 -39.5q0 -45 28.5 -70t78.5 -25q62 0 146 47l11 -21q-85 -52 -164 -52q-57 0 -93.5 32t-36.5 85q0 25 3.5 45.5t15 39.5t18.5 30.5t28 29t29 23.5t35.5 25t34.5 24
q49 34 70.5 79.5t24.5 117.5zM267 510q11 0 19.5 -8.5t8.5 -20.5t-8 -20t-20 -8t-20.5 8t-8.5 20t9 20.5t20 8.5z" />
    <glyph glyph-name="Agrave" unicode="&#xc0;" 
d="M403 0l-27 234h-276l-125 -234h-34l372 686h40l82 -686h-32zM277 563l-163 -303h259l-45 402q-33 -66 -51 -99zM383 730l-174 102l17 28l169 -109z" />
    <glyph glyph-name="Aacute" unicode="&#xc1;" 
d="M403 0l-27 234h-276l-125 -234h-34l372 686h40l82 -686h-32zM277 563l-163 -303h259l-45 402q-33 -66 -51 -99zM458 832l-176 -102l-11 20l169 110z" />
    <glyph glyph-name="Acircumflex" unicode="&#xc2;" 
d="M403 0l-27 234h-276l-125 -234h-34l372 686h40l82 -686h-32zM277 563l-163 -303h259l-45 402q-33 -66 -51 -99zM204 741l-11 20l162 105l128 -109l-15 -17l-116 89z" />
    <glyph glyph-name="Atilde" unicode="&#xc3;" 
d="M403 0l-27 234h-276l-125 -234h-34l372 686h40l82 -686h-32zM277 563l-163 -303h259l-45 402q-33 -66 -51 -99zM275 785q-37 0 -66 -29l-8 17q39 39 86 39q28 0 59.5 -18t55.5 -18q37 0 66 29l8 -17q-35 -39 -85 -39q-27 0 -58.5 18t-57.5 18z" />
    <glyph glyph-name="Adieresis" unicode="&#xc4;" 
d="M403 0l-27 234h-276l-125 -234h-34l372 686h40l82 -686h-32zM277 563l-163 -303h259l-45 402q-33 -66 -51 -99zM415 750q-10 0 -17 7t-7 17t7 17t17 7t17 -7t7 -17t-7 -17t-17 -7zM277 750q-10 0 -17 7t-7 17t7 17t17 7t17 -7t7 -17t-7 -17t-17 -7z" />
    <glyph glyph-name="Aring" unicode="&#xc5;" 
d="M403 0l-27 234h-276l-125 -234h-34l372 686h40l82 -686h-32zM277 563l-163 -303h259l-45 402q-33 -66 -51 -99zM348 730q-35 0 -57.5 24t-22.5 58q0 33 22 56.5t56 23.5q35 0 57.5 -23.5t22.5 -56.5q0 -34 -22.5 -58t-55.5 -24zM348 750q25 0 42 18t17 44q0 25 -17.5 43
t-43.5 18q-25 0 -41.5 -18t-16.5 -43q0 -26 17 -44t43 -18z" />
    <glyph glyph-name="AE" unicode="&#xc6;" horiz-adv-x="777" 
d="M351 0l49 234h-248l-185 -234h-37l547 686h358l-11 -27h-303l-61 -288h244l-6 -27h-243l-67 -317h319q-1 -13 -5 -27h-351zM173 260h233l84 399z" />
    <glyph glyph-name="Ccedilla" unicode="&#xc7;" horiz-adv-x="513" 
d="M271 -8q-18 0 -27 1l-24 -48q9 1 17 1q28 0 44.5 -16t16.5 -36q0 -41 -30 -66t-78 -25q-42 0 -70 24l13 18q25 -19 60 -19q31 0 54 17.5t23 47.5q0 38 -50 38q-14 0 -34 -3l37 70q-151 26 -151 227q0 61 12.5 124.5t40 125.5t66.5 110.5t96.5 78.5t125.5 30q90 0 145 -51
l-18 -20q-50 46 -131 46q-74 0 -134.5 -43t-96.5 -110t-55.5 -142.5t-19.5 -148.5q0 -205 178 -205q80 0 156 49l12 -21q-84 -54 -178 -54z" />
    <glyph glyph-name="Egrave" unicode="&#xc8;" horiz-adv-x="467" 
d="M41 0l145 686h338l-10 -27h-303l-61 -288h244l-6 -27h-244l-67 -317h321l-6 -27h-351zM419 730l-174 102l17 28l169 -109z" />
    <glyph glyph-name="Eacute" unicode="&#xc9;" horiz-adv-x="467" 
d="M41 0l145 686h338l-10 -27h-303l-61 -288h244l-6 -27h-244l-67 -317h321l-6 -27h-351zM464 832l-176 -102l-11 20l169 110z" />
    <glyph glyph-name="Ecircumflex" unicode="&#xca;" horiz-adv-x="467" 
d="M41 0l145 686h338l-10 -27h-303l-61 -288h244l-6 -27h-244l-67 -317h321l-6 -27h-351zM219 741l-11 20l162 105l128 -109l-15 -17l-116 89z" />
    <glyph glyph-name="Edieresis" unicode="&#xcb;" horiz-adv-x="467" 
d="M41 0l145 686h338l-10 -27h-303l-61 -288h244l-6 -27h-244l-67 -317h321l-6 -27h-351zM424 750q-10 0 -17 7t-7 17t7 17t17 7t17 -7t7 -17t-7 -17t-17 -7zM286 750q-10 0 -17 7t-7 17t7 17t17 7t17 -7t7 -17t-7 -17t-17 -7z" />
    <glyph glyph-name="Igrave" unicode="&#xcc;" horiz-adv-x="210" 
d="M41 0l145 686h30l-145 -686h-30zM241 730l-174 102l17 28l169 -109z" />
    <glyph glyph-name="Iacute" unicode="&#xcd;" horiz-adv-x="210" 
d="M41 0l145 686h30l-145 -686h-30zM345 832l-176 -102l-11 20l169 110z" />
    <glyph glyph-name="Icircumflex" unicode="&#xce;" horiz-adv-x="210" 
d="M41 0l145 686h30l-145 -686h-30zM72 741l-11 20l162 105l128 -109l-15 -17l-116 89z" />
    <glyph glyph-name="Idieresis" unicode="&#xcf;" horiz-adv-x="210" 
d="M41 0l145 686h30l-145 -686h-30zM276 750q-10 0 -17 7t-7 17t7 17t17 7t17 -7t7 -17t-7 -17t-17 -7zM138 750q-10 0 -17 7t-7 17t7 17t17 7t17 -7t7 -17t-7 -17t-17 -7z" />
    <glyph glyph-name="Eth" unicode="&#xd0;" horiz-adv-x="583" 
d="M55 338l4 23h58l69 325h107q59 0 102.5 -9.5t81.5 -33.5t58 -72t20 -119q0 -91 -21.5 -170t-65.5 -143.5t-119 -101.5t-173 -37h-135l71 338h-57zM76 26h105q86 0 152.5 33.5t107 92.5t61 134t20.5 163q0 120 -57 165t-166 45h-88l-64 -298h220l-14 -23h-211z" />
    <glyph glyph-name="Ntilde" unicode="&#xd1;" horiz-adv-x="593" 
d="M41 0l145 686h37l176 -540l35 -111q0 11 27 139l107 512h30l-145 -686h-34l-178 534q-23 69 -35 117l-135 -651h-30zM336 785q-37 0 -66 -29l-8 17q39 39 86 39q28 0 59.5 -18t55.5 -18q37 0 66 29l8 -17q-35 -39 -85 -39q-27 0 -58.5 18t-57.5 18z" />
    <glyph glyph-name="Ograve" unicode="&#xd2;" horiz-adv-x="624" 
d="M266 15q77 0 137.5 47.5t94 120.5t50 147.5t16.5 141.5q0 196 -162 196q-62 0 -114 -32t-85 -82t-56 -112.5t-32.5 -120.5t-9.5 -110q0 -196 161 -196zM260 -8q-52 0 -90 18t-58.5 50.5t-29.5 71t-9 85.5q0 80 19 159.5t57 152.5t105.5 118.5t153.5 45.5q52 0 90 -18.5
t58.5 -51t30 -71t9.5 -85.5q0 -62 -11.5 -126t-37.5 -127t-63.5 -112t-95.5 -79.5t-128 -30.5zM461 730l-174 102l17 28l169 -109z" />
    <glyph glyph-name="Oacute" unicode="&#xd3;" horiz-adv-x="624" 
d="M266 15q77 0 137.5 47.5t94 120.5t50 147.5t16.5 141.5q0 196 -162 196q-62 0 -114 -32t-85 -82t-56 -112.5t-32.5 -120.5t-9.5 -110q0 -196 161 -196zM260 -8q-52 0 -90 18t-58.5 50.5t-29.5 71t-9 85.5q0 80 19 159.5t57 152.5t105.5 118.5t153.5 45.5q52 0 90 -18.5
t58.5 -51t30 -71t9.5 -85.5q0 -62 -11.5 -126t-37.5 -127t-63.5 -112t-95.5 -79.5t-128 -30.5zM522 832l-176 -102l-11 20l169 110z" />
    <glyph glyph-name="Ocircumflex" unicode="&#xd4;" horiz-adv-x="624" 
d="M266 15q77 0 137.5 47.5t94 120.5t50 147.5t16.5 141.5q0 196 -162 196q-62 0 -114 -32t-85 -82t-56 -112.5t-32.5 -120.5t-9.5 -110q0 -196 161 -196zM260 -8q-52 0 -90 18t-58.5 50.5t-29.5 71t-9 85.5q0 80 19 159.5t57 152.5t105.5 118.5t153.5 45.5q52 0 90 -18.5
t58.5 -51t30 -71t9.5 -85.5q0 -62 -11.5 -126t-37.5 -127t-63.5 -112t-95.5 -79.5t-128 -30.5zM270 741l-11 20l162 105l128 -109l-15 -17l-116 89z" />
    <glyph glyph-name="Otilde" unicode="&#xd5;" horiz-adv-x="624" 
d="M266 15q77 0 137.5 47.5t94 120.5t50 147.5t16.5 141.5q0 196 -162 196q-62 0 -114 -32t-85 -82t-56 -112.5t-32.5 -120.5t-9.5 -110q0 -196 161 -196zM260 -8q-52 0 -90 18t-58.5 50.5t-29.5 71t-9 85.5q0 80 19 159.5t57 152.5t105.5 118.5t153.5 45.5q52 0 90 -18.5
t58.5 -51t30 -71t9.5 -85.5q0 -62 -11.5 -126t-37.5 -127t-63.5 -112t-95.5 -79.5t-128 -30.5zM350 785q-37 0 -66 -29l-8 17q39 39 86 39q28 0 59.5 -18t55.5 -18q37 0 66 29l8 -17q-35 -39 -85 -39q-27 0 -58.5 18t-57.5 18z" />
    <glyph glyph-name="Odieresis" unicode="&#xd6;" horiz-adv-x="624" 
d="M266 15q77 0 137.5 47.5t94 120.5t50 147.5t16.5 141.5q0 196 -162 196q-62 0 -114 -32t-85 -82t-56 -112.5t-32.5 -120.5t-9.5 -110q0 -196 161 -196zM260 -8q-52 0 -90 18t-58.5 50.5t-29.5 71t-9 85.5q0 80 19 159.5t57 152.5t105.5 118.5t153.5 45.5q52 0 90 -18.5
t58.5 -51t30 -71t9.5 -85.5q0 -62 -11.5 -126t-37.5 -127t-63.5 -112t-95.5 -79.5t-128 -30.5zM493 750q-10 0 -17 7t-7 17t7 17t17 7t17 -7t7 -17t-7 -17t-17 -7zM355 750q-10 0 -17 7t-7 17t7 17t17 7t17 -7t7 -17t-7 -17t-17 -7z" />
    <glyph glyph-name="multiply" unicode="&#xd7;" horiz-adv-x="462" 
d="M62 90l-16 20l167 139l-108 139l21 17l110 -138l168 139l16 -21l-168 -139l109 -139l-22 -17l-109 138z" />
    <glyph glyph-name="Oslash" unicode="&#xd8;" horiz-adv-x="624" 
d="M260 -8q-97 0 -144 62l-92 -114l-18 13l98 120q-31 54 -31 144q0 80 19 159.5t57 152.5t105.5 118.5t153.5 45.5q98 0 146 -66l100 123l19 -13l-106 -131q29 -54 29 -139q0 -62 -11.5 -126t-37.5 -127t-63.5 -112t-95.5 -79.5t-128 -30.5zM105 211q0 -70 19 -113l410 505
q-40 65 -132 65q-62 0 -114 -32t-85 -82t-56 -112.5t-32.5 -120.5t-9.5 -110zM266 15q77 0 137.5 47.5t94 120.5t50 147.5t16.5 141.5q0 65 -18 109l-411 -504q39 -62 131 -62z" />
    <glyph glyph-name="Ugrave" unicode="&#xd9;" horiz-adv-x="579" 
d="M237 -8q-81 0 -121.5 38t-40.5 106q0 33 8 68l102 482h30l-100 -472q-9 -45 -9 -75q0 -59 31.5 -90t107.5 -31q102 0 153 56q40 45 58 129l103 483h30l-103 -486q-21 -100 -68 -147q-63 -61 -181 -61zM447 730l-174 102l17 28l169 -109z" />
    <glyph glyph-name="Uacute" unicode="&#xda;" horiz-adv-x="579" 
d="M237 -8q-81 0 -121.5 38t-40.5 106q0 33 8 68l102 482h30l-100 -472q-9 -45 -9 -75q0 -59 31.5 -90t107.5 -31q102 0 153 56q40 45 58 129l103 483h30l-103 -486q-21 -100 -68 -147q-63 -61 -181 -61zM512 832l-176 -102l-11 20l169 110z" />
    <glyph glyph-name="Ucircumflex" unicode="&#xdb;" horiz-adv-x="579" 
d="M237 -8q-81 0 -121.5 38t-40.5 106q0 33 8 68l102 482h30l-100 -472q-9 -45 -9 -75q0 -59 31.5 -90t107.5 -31q102 0 153 56q40 45 58 129l103 483h30l-103 -486q-21 -100 -68 -147q-63 -61 -181 -61zM261 741l-11 20l162 105l128 -109l-15 -17l-116 89z" />
    <glyph glyph-name="Udieresis" unicode="&#xdc;" horiz-adv-x="579" 
d="M237 -8q-81 0 -121.5 38t-40.5 106q0 33 8 68l102 482h30l-100 -472q-9 -45 -9 -75q0 -59 31.5 -90t107.5 -31q102 0 153 56q40 45 58 129l103 483h30l-103 -486q-21 -100 -68 -147q-63 -61 -181 -61zM472 750q-10 0 -17 7t-7 17t7 17t17 7t17 -7t7 -17t-7 -17t-17 -7z
M334 750q-10 0 -17 7t-7 17t7 17t17 7t17 -7t7 -17t-7 -17t-17 -7z" />
    <glyph glyph-name="Yacute" unicode="&#xdd;" horiz-adv-x="478" 
d="M173 0l57 272l-133 414h34l99 -318q1 -4 9 -30t11 -38q6 9 14.5 20.5t19.5 26.5t18 24l233 315h38l-311 -416l-57 -270h-32zM439 832l-176 -102l-11 20l169 110z" />
    <glyph glyph-name="Thorn" unicode="&#xde;" horiz-adv-x="496" 
d="M41 0l145 686h29l-29 -137h107q89 0 146.5 -36.5t57.5 -120.5q0 -120 -74 -178.5t-183 -58.5h-137l-33 -155h-29zM287 522h-106l-73 -341h136q92 0 156 51t64 155q0 78 -47 106.5t-130 28.5z" />
    <glyph glyph-name="germandbls" unicode="&#xdf;" horiz-adv-x="524" 
d="M192 523l-110 -523q-18 -84 -34 -122t-47 -76l-25 14q32 41 45.5 74.5t29.5 109.5l100 474h-68l5 24h68l12 48q40 161 187 161q56 0 90 -30t34 -79q0 -45 -19 -77.5t-46.5 -49t-55 -28.5t-46.5 -24t-19 -27q0 -4 1.5 -8t6 -9t8.5 -8.5t13.5 -10t17 -11t22 -14t25.5 -16.5
q73 -48 73 -124q0 -91 -61 -145t-151 -54q-49 0 -87 17l11 22q30 -17 78 -17q75 0 127 48.5t52 123.5q0 42 -18 67t-65 56q-49 32 -65 46.5t-16 31.5q0 24 19 40t45.5 27.5t53.5 26t46 43.5t19 72q0 42 -26 65t-72 23q-124 0 -158 -161z" />
    <glyph glyph-name="agrave" unicode="&#xe0;" 
d="M322 504q65 0 116 -36q-13 -52 -19 -80l-52 -249q-9 -42 -9 -66q0 -34 24 -62l-23 -18q-30 32 -30 81q0 19 4 39q-64 -120 -165 -120q-65 0 -95.5 42t-30.5 113q0 152 83.5 254t196.5 102zM343 167l61 289q-37 23 -86 23q-97 0 -171 -95.5t-74 -237.5q0 -128 102 -128
q96 0 168 149zM400 570l-174 102l17 28l169 -109z" />
    <glyph glyph-name="aacute" unicode="&#xe1;" 
d="M322 504q65 0 116 -36q-13 -52 -19 -80l-52 -249q-9 -42 -9 -66q0 -34 24 -62l-23 -18q-30 32 -30 81q0 19 4 39q-64 -120 -165 -120q-65 0 -95.5 42t-30.5 113q0 152 83.5 254t196.5 102zM343 167l61 289q-37 23 -86 23q-97 0 -171 -95.5t-74 -237.5q0 -128 102 -128
q96 0 168 149zM459 672l-176 -102l-11 20l169 110z" />
    <glyph glyph-name="acircumflex" unicode="&#xe2;" 
d="M322 504q65 0 116 -36q-13 -52 -19 -80l-52 -249q-9 -42 -9 -66q0 -34 24 -62l-23 -18q-30 32 -30 81q0 19 4 39q-64 -120 -165 -120q-65 0 -95.5 42t-30.5 113q0 152 83.5 254t196.5 102zM343 167l61 289q-37 23 -86 23q-97 0 -171 -95.5t-74 -237.5q0 -128 102 -128
q96 0 168 149zM206 581l-11 20l162 105l128 -109l-15 -17l-116 89z" />
    <glyph glyph-name="atilde" unicode="&#xe3;" 
d="M322 504q65 0 116 -36q-13 -52 -19 -80l-52 -249q-9 -42 -9 -66q0 -34 24 -62l-23 -18q-30 32 -30 81q0 19 4 39q-64 -120 -165 -120q-65 0 -95.5 42t-30.5 113q0 152 83.5 254t196.5 102zM343 167l61 289q-37 23 -86 23q-97 0 -171 -95.5t-74 -237.5q0 -128 102 -128
q96 0 168 149zM277 625q-37 0 -66 -29l-8 17q39 39 86 39q28 0 59.5 -18t55.5 -18q37 0 66 29l8 -17q-35 -39 -85 -39q-27 0 -58.5 18t-57.5 18z" />
    <glyph glyph-name="adieresis" unicode="&#xe4;" 
d="M322 504q65 0 116 -36q-13 -52 -19 -80l-52 -249q-9 -42 -9 -66q0 -34 24 -62l-23 -18q-30 32 -30 81q0 19 4 39q-64 -120 -165 -120q-65 0 -95.5 42t-30.5 113q0 152 83.5 254t196.5 102zM343 167l61 289q-37 23 -86 23q-97 0 -171 -95.5t-74 -237.5q0 -128 102 -128
q96 0 168 149zM403 590q-10 0 -17 7t-7 17t7 17t17 7t17 -7t7 -17t-7 -17t-17 -7zM265 590q-10 0 -17 7t-7 17t7 17t17 7t17 -7t7 -17t-7 -17t-17 -7z" />
    <glyph glyph-name="aring" unicode="&#xe5;" 
d="M322 504q65 0 116 -36q-13 -52 -19 -80l-52 -249q-9 -42 -9 -66q0 -34 24 -62l-23 -18q-30 32 -30 81q0 19 4 39q-64 -120 -165 -120q-65 0 -95.5 42t-30.5 113q0 152 83.5 254t196.5 102zM343 167l61 289q-37 23 -86 23q-97 0 -171 -95.5t-74 -237.5q0 -128 102 -128
q96 0 168 149zM346 570q-35 0 -57.5 24t-22.5 58q0 33 22 56.5t56 23.5q35 0 57.5 -23.5t22.5 -56.5q0 -34 -22.5 -58t-55.5 -24zM346 590q25 0 42 18t17 44q0 25 -17.5 43t-43.5 18q-25 0 -41.5 -18t-16.5 -43q0 -26 17 -44t43 -18z" />
    <glyph glyph-name="ae" unicode="&#xe6;" horiz-adv-x="748" 
d="M320 506q47 0 72.5 -25.5t25.5 -73.5q0 -9 -2 -25q66 124 182 124q52 0 87 -29t35 -79q0 -158 -236 -158q-47 0 -91 4q-7 -36 -7 -76q0 -67 32 -108.5t99 -41.5q76 0 140 53l14 -20q-68 -59 -160 -59q-71 0 -107.5 45t-41.5 121q-47 -166 -187 -166q-70 0 -101.5 33
t-31.5 80q0 52 22.5 87.5t61 52.5t76.5 24t83 7q42 0 84 -5q26 111 26 135q0 75 -81 75q-87 0 -179 -62l-11 22q101 65 196 65zM180 14q76 0 119.5 61.5t64.5 172.5q-37 5 -77 5q-213 0 -213 -143q0 -40 26 -68t80 -28zM592 481q-71 0 -123 -62.5t-72 -150.5q50 -4 87 -4
q207 0 207 133q0 40 -27.5 62t-71.5 22z" />
    <glyph glyph-name="ccedilla" unicode="&#xe7;" horiz-adv-x="404" 
d="M139 -197q-42 0 -70 24l13 18q25 -19 60 -19q31 0 54 17.5t23 47.5q0 38 -50 38q-15 0 -34 -3l35 68q-59 9 -88 53t-29 109q0 135 74 242.5t179 107.5q62 0 107 -39l-14 -24q-41 37 -98 37q-88 0 -152.5 -100.5t-64.5 -223.5q0 -63 30.5 -101t90.5 -38q67 0 128 53
l13 -21q-70 -57 -147 -57h-6l-24 -47q9 1 17 1q28 0 44.5 -16t16.5 -36q0 -41 -30 -66t-78 -25z" />
    <glyph glyph-name="egrave" unicode="&#xe8;" horiz-adv-x="450" 
d="M185 240q-45 0 -91 4q-7 -36 -7 -76q0 -67 32.5 -109t98.5 -42q75 0 140 54l14 -20q-68 -59 -160 -59q-75 0 -116 49t-41 130q0 78 26.5 152.5t84 128.5t133.5 54q52 0 87.5 -29t35.5 -79q0 -158 -237 -158zM293 481q-71 0 -122 -62t-72 -152q36 -3 87 -3q206 0 206 133
q0 40 -27.5 62t-71.5 22zM375 570l-174 102l17 28l169 -109z" />
    <glyph glyph-name="eacute" unicode="&#xe9;" horiz-adv-x="450" 
d="M185 240q-45 0 -91 4q-7 -36 -7 -76q0 -67 32.5 -109t98.5 -42q75 0 140 54l14 -20q-68 -59 -160 -59q-75 0 -116 49t-41 130q0 78 26.5 152.5t84 128.5t133.5 54q52 0 87.5 -29t35.5 -79q0 -158 -237 -158zM293 481q-71 0 -122 -62t-72 -152q36 -3 87 -3q206 0 206 133
q0 40 -27.5 62t-71.5 22zM456 672l-176 -102l-11 20l169 110z" />
    <glyph glyph-name="ecircumflex" unicode="&#xea;" horiz-adv-x="450" 
d="M185 240q-45 0 -91 4q-7 -36 -7 -76q0 -67 32.5 -109t98.5 -42q75 0 140 54l14 -20q-68 -59 -160 -59q-75 0 -116 49t-41 130q0 78 26.5 152.5t84 128.5t133.5 54q52 0 87.5 -29t35.5 -79q0 -158 -237 -158zM293 481q-71 0 -122 -62t-72 -152q36 -3 87 -3q206 0 206 133
q0 40 -27.5 62t-71.5 22zM173 581l-11 20l162 105l128 -109l-15 -17l-116 89z" />
    <glyph glyph-name="edieresis" unicode="&#xeb;" horiz-adv-x="450" 
d="M185 240q-45 0 -91 4q-7 -36 -7 -76q0 -67 32.5 -109t98.5 -42q75 0 140 54l14 -20q-68 -59 -160 -59q-75 0 -116 49t-41 130q0 78 26.5 152.5t84 128.5t133.5 54q52 0 87.5 -29t35.5 -79q0 -158 -237 -158zM293 481q-71 0 -122 -62t-72 -152q36 -3 87 -3q206 0 206 133
q0 40 -27.5 62t-71.5 22zM388 590q-10 0 -17 7t-7 17t7 17t17 7t17 -7t7 -17t-7 -17t-17 -7zM250 590q-10 0 -17 7t-7 17t7 17t17 7t17 -7t7 -17t-7 -17t-17 -7z" />
    <glyph glyph-name="igrave" unicode="&#xec;" horiz-adv-x="200" 
d="M40 0l106 500l32 5l-107 -505h-31zM218 570l-174 102l17 28l169 -109z" />
    <glyph glyph-name="iacute" unicode="&#xed;" horiz-adv-x="200" 
d="M40 0l106 500l32 5l-107 -505h-31zM318 672l-176 -102l-11 20l169 110z" />
    <glyph glyph-name="icircumflex" unicode="&#xee;" horiz-adv-x="200" 
d="M40 0l106 500l32 5l-107 -505h-31zM36 581l-11 20l162 105l128 -109l-15 -17l-116 89z" />
    <glyph glyph-name="idieresis" unicode="&#xef;" horiz-adv-x="200" 
d="M40 0l106 500l32 5l-107 -505h-31zM241 590q-10 0 -17 7t-7 17t7 17t17 7t17 -7t7 -17t-7 -17t-17 -7zM103 590q-10 0 -17 7t-7 17t7 17t17 7t17 -7t7 -17t-7 -17t-17 -7z" />
    <glyph glyph-name="eth" unicode="&#xf0;" horiz-adv-x="485" 
d="M187 16q103 0 165.5 106.5t61.5 261.5q-51 76 -143 76q-84 0 -147.5 -86t-63.5 -199q0 -73 34 -116t93 -43zM428 678l-67 -56q86 -94 86 -246q0 -168 -75 -276.5t-191 -108.5q-70 0 -112 50.5t-42 133.5q0 120 72.5 214t174.5 94q44 0 80.5 -17.5t57.5 -46.5
q-12 112 -74 184l-78 -64l-16 15l76 63q-48 35 -119 57l19 20q68 -19 122 -58l68 57z" />
    <glyph glyph-name="ntilde" unicode="&#xf1;" horiz-adv-x="500" 
d="M70 0h-30l80 379q13 61 13 79t-5 33l29 12q6 -18 6 -38q0 -21 -9 -65l-7 -31q99 136 198 136q47 0 72 -25.5t25 -68.5q0 -10 -6 -44l-77 -367h-30l76 360q7 33 7 49q0 70 -76 70q-86 0 -198 -152zM251 625q-37 0 -66 -29l-8 17q39 39 86 39q28 0 59.5 -18t55.5 -18
q37 0 66 29l8 -17q-35 -39 -85 -39q-27 0 -58.5 18t-57.5 18z" />
    <glyph glyph-name="ograve" unicode="&#xf2;" horiz-adv-x="493" 
d="M202 16q55 0 99 31.5t69 80.5t38 103.5t13 106.5q0 143 -123 143q-54 0 -98 -30.5t-69.5 -79t-39 -103.5t-13.5 -109q0 -143 124 -143zM196 -9q-77 0 -113 49t-36 126q0 56 15.5 113.5t45 109.5t81 85t116.5 33q77 0 112.5 -49t35.5 -125q0 -46 -9.5 -92.5t-30 -91.5
t-50 -80t-73 -56.5t-94.5 -21.5zM380 570l-174 102l17 28l169 -109z" />
    <glyph glyph-name="oacute" unicode="&#xf3;" horiz-adv-x="493" 
d="M202 16q55 0 99 31.5t69 80.5t38 103.5t13 106.5q0 143 -123 143q-54 0 -98 -30.5t-69.5 -79t-39 -103.5t-13.5 -109q0 -143 124 -143zM196 -9q-77 0 -113 49t-36 126q0 56 15.5 113.5t45 109.5t81 85t116.5 33q77 0 112.5 -49t35.5 -125q0 -46 -9.5 -92.5t-30 -91.5
t-50 -80t-73 -56.5t-94.5 -21.5zM455 672l-176 -102l-11 20l169 110z" />
    <glyph glyph-name="ocircumflex" unicode="&#xf4;" horiz-adv-x="493" 
d="M202 16q55 0 99 31.5t69 80.5t38 103.5t13 106.5q0 143 -123 143q-54 0 -98 -30.5t-69.5 -79t-39 -103.5t-13.5 -109q0 -143 124 -143zM196 -9q-77 0 -113 49t-36 126q0 56 15.5 113.5t45 109.5t81 85t116.5 33q77 0 112.5 -49t35.5 -125q0 -46 -9.5 -92.5t-30 -91.5
t-50 -80t-73 -56.5t-94.5 -21.5zM183 581l-11 20l162 105l128 -109l-15 -17l-116 89z" />
    <glyph glyph-name="otilde" unicode="&#xf5;" horiz-adv-x="493" 
d="M202 16q55 0 99 31.5t69 80.5t38 103.5t13 106.5q0 143 -123 143q-54 0 -98 -30.5t-69.5 -79t-39 -103.5t-13.5 -109q0 -143 124 -143zM196 -9q-77 0 -113 49t-36 126q0 56 15.5 113.5t45 109.5t81 85t116.5 33q77 0 112.5 -49t35.5 -125q0 -46 -9.5 -92.5t-30 -91.5
t-50 -80t-73 -56.5t-94.5 -21.5zM268 625q-37 0 -66 -29l-8 17q39 39 86 39q28 0 59.5 -18t55.5 -18q37 0 66 29l8 -17q-35 -39 -85 -39q-27 0 -58.5 18t-57.5 18z" />
    <glyph glyph-name="odieresis" unicode="&#xf6;" horiz-adv-x="493" 
d="M202 16q55 0 99 31.5t69 80.5t38 103.5t13 106.5q0 143 -123 143q-54 0 -98 -30.5t-69.5 -79t-39 -103.5t-13.5 -109q0 -143 124 -143zM196 -9q-77 0 -113 49t-36 126q0 56 15.5 113.5t45 109.5t81 85t116.5 33q77 0 112.5 -49t35.5 -125q0 -46 -9.5 -92.5t-30 -91.5
t-50 -80t-73 -56.5t-94.5 -21.5zM395 590q-10 0 -17 7t-7 17t7 17t17 7t17 -7t7 -17t-7 -17t-17 -7zM257 590q-10 0 -17 7t-7 17t7 17t17 7t17 -7t7 -17t-7 -17t-17 -7z" />
    <glyph glyph-name="divide" unicode="&#xf7;" horiz-adv-x="514" 
d="M48 243l5 25h421l-5 -25h-421zM293 384q-12 0 -20.5 8t-8.5 20t8.5 20.5t20.5 8.5t20 -8.5t8 -20.5t-8.5 -20t-19.5 -8zM228 68q-12 0 -20.5 8t-8.5 20q0 13 8.5 21t20.5 8t20 -8t8 -20q0 -13 -8 -21t-20 -8z" />
    <glyph glyph-name="oslash" unicode="&#xf8;" horiz-adv-x="493" 
d="M196 -9q-69 0 -107 41l-62 -77l-17 14l65 81q-28 43 -28 116q0 56 15.5 113.5t45 109.5t81 85t116.5 33q67 0 107 -43l75 93l18 -14l-79 -98q27 -44 27 -112q0 -46 -9.5 -92.5t-30 -91.5t-50 -80t-73 -56.5t-94.5 -21.5zM78 159q0 -54 17 -85l298 367q-32 40 -95 40
q-54 0 -98 -30.5t-69.5 -79t-39 -103.5t-13.5 -109zM202 16q55 0 99 31.5t69 80.5t38 103.5t13 106.5q0 50 -15 83l-299 -367q31 -38 95 -38z" />
    <glyph glyph-name="ugrave" unicode="&#xf9;" horiz-adv-x="511" 
d="M369 125q-96 -134 -196 -134t-100 91q0 22 6 47l77 367l31 6l-78 -366q-7 -33 -7 -52q0 -69 79 -69q88 0 198 158l67 323l32 5l-78 -362q-9 -41 -9 -63q0 -37 24 -65l-23 -18q-29 30 -29 82q0 23 6 50zM402 570l-174 102l17 28l169 -109z" />
    <glyph glyph-name="uacute" unicode="&#xfa;" horiz-adv-x="511" 
d="M369 125q-96 -134 -196 -134t-100 91q0 22 6 47l77 367l31 6l-78 -366q-7 -33 -7 -52q0 -69 79 -69q88 0 198 158l67 323l32 5l-78 -362q-9 -41 -9 -63q0 -37 24 -65l-23 -18q-29 30 -29 82q0 23 6 50zM475 672l-176 -102l-11 20l169 110z" />
    <glyph glyph-name="ucircumflex" unicode="&#xfb;" horiz-adv-x="511" 
d="M369 125q-96 -134 -196 -134t-100 91q0 22 6 47l77 367l31 6l-78 -366q-7 -33 -7 -52q0 -69 79 -69q88 0 198 158l67 323l32 5l-78 -362q-9 -41 -9 -63q0 -37 24 -65l-23 -18q-29 30 -29 82q0 23 6 50zM199 581l-11 20l162 105l128 -109l-15 -17l-116 89z" />
    <glyph glyph-name="udieresis" unicode="&#xfc;" horiz-adv-x="511" 
d="M369 125q-96 -134 -196 -134t-100 91q0 22 6 47l77 367l31 6l-78 -366q-7 -33 -7 -52q0 -69 79 -69q88 0 198 158l67 323l32 5l-78 -362q-9 -41 -9 -63q0 -37 24 -65l-23 -18q-29 30 -29 82q0 23 6 50zM410 590q-10 0 -17 7t-7 17t7 17t17 7t17 -7t7 -17t-7 -17t-17 -7z
M272 590q-10 0 -17 7t-7 17t7 17t17 7t17 -7t7 -17t-7 -17t-17 -7z" />
    <glyph glyph-name="yacute" unicode="&#xfd;" horiz-adv-x="405" 
d="M1 -202l-7 23q47 13 79 49t83 131l-16 -2q0 32 -7 86l-56 411l30 9l47 -356q11 -83 11 -126h2q2 5 52 99l201 376h35l-280 -516q-46 -85 -83 -127.5t-91 -56.5zM387 672l-176 -102l-11 20l169 110z" />
    <glyph glyph-name="thorn" unicode="&#xfe;" horiz-adv-x="511" 
d="M-4 -202l170 792q13 58 13 98q0 12 -4 32l30 10q4 -22 4 -40q0 -34 -14 -103l-29 -136l-18 -79q78 133 181 133q67 0 101.5 -43t34.5 -121q0 -60 -17 -120.5t-48.5 -112t-82.5 -84t-112 -32.5q-79 0 -129 41l-49 -229zM319 478q-89 0 -180 -152l-57 -264q46 -44 125 -44
q54 0 99 33t71.5 83t41 104t14.5 103q0 70 -27 103.5t-87 33.5z" />
    <glyph glyph-name="ydieresis" unicode="&#xff;" horiz-adv-x="405" 
d="M1 -202l-7 23q47 13 79 49t83 131l-16 -2q0 32 -7 86l-56 411l30 9l47 -356q11 -83 11 -126h2q2 5 52 99l201 376h35l-280 -516q-46 -85 -83 -127.5t-91 -56.5zM351 590q-10 0 -17 7t-7 17t7 17t17 7t17 -7t7 -17t-7 -17t-17 -7zM213 590q-10 0 -17 7t-7 17t7 17t17 7
t17 -7t7 -17t-7 -17t-17 -7z" />
    <glyph glyph-name="Amacron" unicode="&#x100;" 
d="M403 0l-27 234h-276l-125 -234h-34l372 686h40l82 -686h-32zM277 563l-163 -303h259l-45 402q-33 -66 -51 -99zM213 754l5 22h260l-5 -22h-260z" />
    <glyph glyph-name="amacron" unicode="&#x101;" 
d="M322 504q65 0 116 -36q-13 -52 -19 -80l-52 -249q-9 -42 -9 -66q0 -34 24 -62l-23 -18q-30 32 -30 81q0 19 4 39q-64 -120 -165 -120q-65 0 -95.5 42t-30.5 113q0 152 83.5 254t196.5 102zM343 167l61 289q-37 23 -86 23q-97 0 -171 -95.5t-74 -237.5q0 -128 102 -128
q96 0 168 149zM211 607l5 22h260l-5 -22h-260z" />
    <glyph glyph-name="Abreve" unicode="&#x102;" 
d="M403 0l-27 234h-276l-125 -234h-34l372 686h40l82 -686h-32zM277 563l-163 -303h259l-45 402q-33 -66 -51 -99zM332 727q-74 0 -122 90l15 16q48 -73 114 -73q38 0 76.5 23t65.5 51l11 -18q-86 -89 -160 -89z" />
    <glyph glyph-name="abreve" unicode="&#x103;" 
d="M322 504q65 0 116 -36q-13 -52 -19 -80l-52 -249q-9 -42 -9 -66q0 -34 24 -62l-23 -18q-30 32 -30 81q0 19 4 39q-64 -120 -165 -120q-65 0 -95.5 42t-30.5 113q0 152 83.5 254t196.5 102zM343 167l61 289q-37 23 -86 23q-97 0 -171 -95.5t-74 -237.5q0 -128 102 -128
q96 0 168 149zM326 567q-74 0 -122 90l15 16q48 -73 114 -73q38 0 76.5 23t65.5 51l11 -18q-86 -89 -160 -89z" />
    <glyph glyph-name="Aogonek" unicode="&#x104;" 
d="M381 -197q-34 0 -52.5 17.5t-18.5 45.5q0 69 93 134l-27 234h-276l-125 -234h-34l372 686h40l82 -686q-27 -20 -43.5 -33.5t-36 -41t-19.5 -54.5q0 -45 51 -45q28 0 60 15l5 -19q-32 -19 -71 -19zM277 563l-163 -303h259l-45 402q-33 -66 -51 -99z" />
    <glyph glyph-name="aogonek" unicode="&#x105;" 
d="M312 -197q-34 0 -52.5 17.5t-18.5 45.5q0 76 106 142q-18 24 -18 66q0 19 4 39q-64 -120 -165 -120q-65 0 -95.5 42t-30.5 113q0 152 83.5 254t196.5 102q65 0 116 -36q-13 -52 -19 -80l-52 -249q-9 -42 -9 -66q0 -34 24 -62q-54 -37 -84.5 -69.5t-30.5 -70.5
q0 -45 51 -45q28 0 60 15l5 -19q-32 -19 -71 -19zM343 167l61 289q-37 23 -86 23q-97 0 -171 -95.5t-74 -237.5q0 -128 102 -128q96 0 168 149z" />
    <glyph glyph-name="Cacute" unicode="&#x106;" horiz-adv-x="513" 
d="M271 -8q-199 0 -199 231q0 61 12.5 124.5t40 125.5t66.5 110.5t96.5 78.5t125.5 30q90 0 145 -51l-18 -20q-50 46 -131 46q-74 0 -134.5 -43t-96.5 -110t-55.5 -142.5t-19.5 -148.5q0 -205 178 -205q80 0 156 49l12 -21q-84 -54 -178 -54zM527 832l-176 -102l-11 20
l169 110z" />
    <glyph glyph-name="cacute" unicode="&#x107;" horiz-adv-x="404" 
d="M199 -8q-73 0 -109.5 46t-36.5 118q0 135 74 242.5t179 107.5q62 0 107 -39l-14 -24q-41 37 -98 37q-88 0 -152.5 -100.5t-64.5 -223.5q0 -63 30.5 -101t90.5 -38q67 0 128 53l13 -21q-70 -57 -147 -57zM446 672l-176 -102l-11 20l169 110z" />
    <glyph glyph-name="Ccircumflex" unicode="&#x108;" horiz-adv-x="513" 
d="M271 -8q-199 0 -199 231q0 61 12.5 124.5t40 125.5t66.5 110.5t96.5 78.5t125.5 30q90 0 145 -51l-18 -20q-50 46 -131 46q-74 0 -134.5 -43t-96.5 -110t-55.5 -142.5t-19.5 -148.5q0 -205 178 -205q80 0 156 49l12 -21q-84 -54 -178 -54zM295 741l-11 20l162 105
l128 -109l-15 -17l-116 89z" />
    <glyph glyph-name="ccircumflex" unicode="&#x109;" horiz-adv-x="404" 
d="M199 -8q-73 0 -109.5 46t-36.5 118q0 135 74 242.5t179 107.5q62 0 107 -39l-14 -24q-41 37 -98 37q-88 0 -152.5 -100.5t-64.5 -223.5q0 -63 30.5 -101t90.5 -38q67 0 128 53l13 -21q-70 -57 -147 -57zM184 581l-11 20l162 105l128 -109l-15 -17l-116 89z" />
    <glyph glyph-name="Cdotaccent" unicode="&#x10a;" horiz-adv-x="513" 
d="M271 -8q-199 0 -199 231q0 61 12.5 124.5t40 125.5t66.5 110.5t96.5 78.5t125.5 30q90 0 145 -51l-18 -20q-50 46 -131 46q-74 0 -134.5 -43t-96.5 -110t-55.5 -142.5t-19.5 -148.5q0 -205 178 -205q80 0 156 49l12 -21q-84 -54 -178 -54zM432 748q-11 0 -18.5 7.5
t-7.5 18.5t7.5 19t18.5 8t19 -8t8 -19t-8 -18.5t-19 -7.5z" />
    <glyph glyph-name="cdotaccent" unicode="&#x10b;" horiz-adv-x="404" 
d="M199 -8q-73 0 -109.5 46t-36.5 118q0 135 74 242.5t179 107.5q62 0 107 -39l-14 -24q-41 37 -98 37q-88 0 -152.5 -100.5t-64.5 -223.5q0 -63 30.5 -101t90.5 -38q67 0 128 53l13 -21q-70 -57 -147 -57zM331 592q-11 0 -18.5 7.5t-7.5 18.5t7.5 19t18.5 8t19 -8t8 -19
t-8 -18.5t-19 -7.5z" />
    <glyph glyph-name="Ccaron" unicode="&#x10c;" horiz-adv-x="513" 
d="M271 -8q-199 0 -199 231q0 61 12.5 124.5t40 125.5t66.5 110.5t96.5 78.5t125.5 30q90 0 145 -51l-18 -20q-50 46 -131 46q-74 0 -134.5 -43t-96.5 -110t-55.5 -142.5t-19.5 -148.5q0 -205 178 -205q80 0 156 49l12 -21q-84 -54 -178 -54zM573 852l10 -20l-162 -105
l-127 108l14 19l117 -90z" />
    <glyph glyph-name="ccaron" unicode="&#x10d;" horiz-adv-x="404" 
d="M199 -8q-73 0 -109.5 46t-36.5 118q0 135 74 242.5t179 107.5q62 0 107 -39l-14 -24q-41 37 -98 37q-88 0 -152.5 -100.5t-64.5 -223.5q0 -63 30.5 -101t90.5 -38q67 0 128 53l13 -21q-70 -57 -147 -57zM458 692l10 -20l-162 -105l-127 108l14 19l117 -90z" />
    <glyph glyph-name="Dcaron" unicode="&#x10e;" horiz-adv-x="583" 
d="M41 0l145 686h107q59 0 102.5 -9.5t81.5 -33.5t58 -72t20 -119q0 -91 -21.5 -170t-65.5 -143.5t-119 -101.5t-173 -37h-135zM76 26h105q86 0 152.5 33.5t107 92.5t61 134t20.5 163q0 120 -57 165t-166 45h-88zM479 852l10 -20l-162 -105l-127 108l14 19l117 -90z" />
    <glyph glyph-name="dcaron" unicode="&#x10f;" horiz-adv-x="516" 
d="M372 119q-31 -59 -78.5 -92.5t-97.5 -33.5q-142 0 -142 167q0 140 77 242.5t186 102.5q72 0 127 -40l56 265l28 -5l-124 -586q-9 -42 -9 -66q0 -34 24 -62l-24 -18q-28 33 -28 80q0 25 5 46zM202 19q104 0 180 152l56 268q-49 41 -123 41q-94 0 -161.5 -95t-67.5 -224
q0 -142 116 -142zM551 574l-12 18q57 37 58 82h-3q-2 -1 -4 -1q-10 0 -17.5 8t-7.5 19q0 13 8.5 21.5t20.5 8.5q34 0 34 -45q0 -65 -77 -111z" />
    <glyph glyph-name="Dcroat" unicode="&#x110;" horiz-adv-x="584" 
d="M56 338l4 23h58l69 325h107q59 0 102.5 -9.5t81.5 -33.5t58 -72t20 -119q0 -91 -21.5 -170t-65.5 -143.5t-119 -101.5t-173 -37h-135l71 338h-57zM77 26h105q86 0 152.5 33.5t107 92.5t61 134t20.5 163q0 120 -57 165t-166 45h-88l-64 -298h220l-14 -23h-211z" />
    <glyph glyph-name="dcroat" unicode="&#x111;" horiz-adv-x="516" 
d="M320 578l5 22h147l28 130l28 -5l-27 -125h78l-5 -22h-77l-93 -439q-9 -42 -9 -66q0 -34 24 -62l-24 -18q-28 33 -28 80q0 25 5 46q-31 -59 -78.5 -92.5t-97.5 -33.5q-142 0 -142 167q0 140 77 242.5t186 102.5q72 0 127 -40l24 113h-148zM202 19q104 0 180 152l56 268
q-49 41 -123 41q-94 0 -161.5 -95t-67.5 -224q0 -142 116 -142z" />
    <glyph glyph-name="Emacron" unicode="&#x112;" horiz-adv-x="467" 
d="M41 0l145 686h338l-10 -27h-303l-61 -288h244l-6 -27h-244l-67 -317h321l-6 -27h-351zM219 754l5 22h260l-5 -22h-260z" />
    <glyph glyph-name="emacron" unicode="&#x113;" horiz-adv-x="450" 
d="M185 240q-45 0 -91 4q-7 -36 -7 -76q0 -67 32.5 -109t98.5 -42q75 0 140 54l14 -20q-68 -59 -160 -59q-75 0 -116 49t-41 130q0 78 26.5 152.5t84 128.5t133.5 54q52 0 87.5 -29t35.5 -79q0 -158 -237 -158zM293 481q-71 0 -122 -62t-72 -152q36 -3 87 -3q206 0 206 133
q0 40 -27.5 62t-71.5 22zM193 607l5 22h260l-5 -22h-260z" />
    <glyph glyph-name="Ebreve" unicode="&#x114;" horiz-adv-x="467" 
d="M41 0l145 686h338l-10 -27h-303l-61 -288h244l-6 -27h-244l-67 -317h321l-6 -27h-351zM342 727q-74 0 -122 90l15 16q48 -73 114 -73q38 0 76.5 23t65.5 51l11 -18q-86 -89 -160 -89z" />
    <glyph glyph-name="ebreve" unicode="&#x115;" horiz-adv-x="450" 
d="M185 240q-45 0 -91 4q-7 -36 -7 -76q0 -67 32.5 -109t98.5 -42q75 0 140 54l14 -20q-68 -59 -160 -59q-75 0 -116 49t-41 130q0 78 26.5 152.5t84 128.5t133.5 54q52 0 87.5 -29t35.5 -79q0 -158 -237 -158zM293 481q-71 0 -122 -62t-72 -152q36 -3 87 -3q206 0 206 133
q0 40 -27.5 62t-71.5 22zM308 567q-74 0 -122 90l15 16q48 -73 114 -73q38 0 76.5 23t65.5 51l11 -18q-86 -89 -160 -89z" />
    <glyph glyph-name="Edotaccent" unicode="&#x116;" horiz-adv-x="467" 
d="M41 0l145 686h338l-10 -27h-303l-61 -288h244l-6 -27h-244l-67 -317h321l-6 -27h-351zM355 748q-11 0 -18.5 7.5t-7.5 18.5t7.5 19t18.5 8t19 -8t8 -19t-8 -18.5t-19 -7.5z" />
    <glyph glyph-name="edotaccent" unicode="&#x117;" horiz-adv-x="450" 
d="M185 240q-45 0 -91 4q-7 -36 -7 -76q0 -67 32.5 -109t98.5 -42q75 0 140 54l14 -20q-68 -59 -160 -59q-75 0 -116 49t-41 130q0 78 26.5 152.5t84 128.5t133.5 54q52 0 87.5 -29t35.5 -79q0 -158 -237 -158zM293 481q-71 0 -122 -62t-72 -152q36 -3 87 -3q206 0 206 133
q0 40 -27.5 62t-71.5 22zM320 592q-11 0 -18.5 7.5t-7.5 18.5t7.5 19t18.5 8t19 -8t8 -19t-8 -18.5t-19 -7.5z" />
    <glyph glyph-name="Eogonek" unicode="&#x118;" horiz-adv-x="467" 
d="M41 0l145 686h338l-10 -27h-303l-61 -288h244l-6 -27h-244l-67 -317h321l-6 -27q-101 -67 -101 -129q0 -45 51 -45q28 0 60 15l5 -19q-32 -19 -71 -19q-34 0 -52.5 17.5t-18.5 45.5q0 69 93 134h-317z" />
    <glyph glyph-name="eogonek" unicode="&#x119;" horiz-adv-x="450" 
d="M185 240q-45 0 -91 4q-7 -36 -7 -76q0 -67 32.5 -109t98.5 -42q75 0 140 54l14 -20q-41 -35 -104 -55q-25 -8 -62.5 -47t-37.5 -78q0 -45 51 -45q28 0 60 15l5 -19q-32 -19 -71 -19q-34 0 -52.5 17.5t-18.5 45.5q0 67 82 126h-12q-75 0 -116 49t-41 130q0 78 26.5 152.5
t84 128.5t133.5 54q52 0 87.5 -29t35.5 -79q0 -158 -237 -158zM293 481q-71 0 -122 -62t-72 -152q36 -3 87 -3q206 0 206 133q0 40 -27.5 62t-71.5 22z" />
    <glyph glyph-name="Ecaron" unicode="&#x11a;" horiz-adv-x="467" 
d="M41 0l145 686h338l-10 -27h-303l-61 -288h244l-6 -27h-244l-67 -317h321l-6 -27h-351zM497 852l10 -20l-162 -105l-127 108l14 19l117 -90z" />
    <glyph glyph-name="ecaron" unicode="&#x11b;" horiz-adv-x="450" 
d="M185 240q-45 0 -91 4q-7 -36 -7 -76q0 -67 32.5 -109t98.5 -42q75 0 140 54l14 -20q-68 -59 -160 -59q-75 0 -116 49t-41 130q0 78 26.5 152.5t84 128.5t133.5 54q52 0 87.5 -29t35.5 -79q0 -158 -237 -158zM293 481q-71 0 -122 -62t-72 -152q36 -3 87 -3q206 0 206 133
q0 40 -27.5 62t-71.5 22zM456 692l10 -20l-162 -105l-127 108l14 19l117 -90z" />
    <glyph glyph-name="Gcircumflex" unicode="&#x11c;" horiz-adv-x="590" 
d="M283 -8q-112 0 -161.5 63.5t-49.5 166.5q0 59 13 122t41 125.5t67 112t97 80t125 30.5q94 0 157 -55l-17 -20q-58 49 -145 49q-75 0 -135.5 -43.5t-96.5 -112t-55 -144t-19 -147.5q0 -90 43.5 -145.5t143.5 -55.5q79 0 148 36l55 259h-176v26h211l-64 -302
q-85 -45 -182 -45zM305 741l-11 20l162 105l128 -109l-15 -17l-116 89z" />
    <glyph glyph-name="gcircumflex" unicode="&#x11d;" horiz-adv-x="503" 
d="M321 504q75 0 147 -36q-7 -26 -19 -80l-83 -387q-23 -106 -74 -152.5t-149 -46.5q-72 0 -153 38l11 25q69 -37 145 -37q84 0 127.5 40t62.5 125l27 124q-31 -59 -77 -91.5t-98 -32.5q-75 0 -108.5 46.5t-33.5 120.5q0 142 79 243t196 101zM374 171l60 282q-59 26 -117 26
q-101 0 -170 -93.5t-69 -224.5q0 -143 116 -143q104 0 180 153zM218 581l-11 20l162 105l128 -109l-15 -17l-116 89z" />
    <glyph glyph-name="Gbreve" unicode="&#x11e;" horiz-adv-x="590" 
d="M283 -8q-112 0 -161.5 63.5t-49.5 166.5q0 59 13 122t41 125.5t67 112t97 80t125 30.5q94 0 157 -55l-17 -20q-58 49 -145 49q-75 0 -135.5 -43.5t-96.5 -112t-55 -144t-19 -147.5q0 -90 43.5 -145.5t143.5 -55.5q79 0 148 36l55 259h-176v26h211l-64 -302
q-85 -45 -182 -45zM429 727q-74 0 -122 90l15 16q48 -73 114 -73q38 0 76.5 23t65.5 51l11 -18q-86 -89 -160 -89z" />
    <glyph glyph-name="gbreve" unicode="&#x11f;" horiz-adv-x="503" 
d="M321 504q75 0 147 -36q-7 -26 -19 -80l-83 -387q-23 -106 -74 -152.5t-149 -46.5q-72 0 -153 38l11 25q69 -37 145 -37q84 0 127.5 40t62.5 125l27 124q-31 -59 -77 -91.5t-98 -32.5q-75 0 -108.5 46.5t-33.5 120.5q0 142 79 243t196 101zM374 171l60 282q-59 26 -117 26
q-101 0 -170 -93.5t-69 -224.5q0 -143 116 -143q104 0 180 153zM343 567q-74 0 -122 90l15 16q48 -73 114 -73q38 0 76.5 23t65.5 51l11 -18q-86 -89 -160 -89z" />
    <glyph glyph-name="Gdotaccent" unicode="&#x120;" horiz-adv-x="590" 
d="M283 -8q-112 0 -161.5 63.5t-49.5 166.5q0 59 13 122t41 125.5t67 112t97 80t125 30.5q94 0 157 -55l-17 -20q-58 49 -145 49q-75 0 -135.5 -43.5t-96.5 -112t-55 -144t-19 -147.5q0 -90 43.5 -145.5t143.5 -55.5q79 0 148 36l55 259h-176v26h211l-64 -302
q-85 -45 -182 -45zM441 748q-11 0 -18.5 7.5t-7.5 18.5t7.5 19t18.5 8t19 -8t8 -19t-8 -18.5t-19 -7.5z" />
    <glyph glyph-name="gdotaccent" unicode="&#x121;" horiz-adv-x="503" 
d="M321 504q75 0 147 -36q-7 -26 -19 -80l-83 -387q-23 -106 -74 -152.5t-149 -46.5q-72 0 -153 38l11 25q69 -37 145 -37q84 0 127.5 40t62.5 125l27 124q-31 -59 -77 -91.5t-98 -32.5q-75 0 -108.5 46.5t-33.5 120.5q0 142 79 243t196 101zM374 171l60 282q-59 26 -117 26
q-101 0 -170 -93.5t-69 -224.5q0 -143 116 -143q104 0 180 153zM358 592q-11 0 -18.5 7.5t-7.5 18.5t7.5 19t18.5 8t19 -8t8 -19t-8 -18.5t-19 -7.5z" />
    <glyph glyph-name="Gcommaaccent" unicode="&#x122;" horiz-adv-x="590" 
d="M283 -8q-112 0 -161.5 63.5t-49.5 166.5q0 59 13 122t41 125.5t67 112t97 80t125 30.5q94 0 157 -55l-17 -20q-58 49 -145 49q-75 0 -135.5 -43.5t-96.5 -112t-55 -144t-19 -147.5q0 -90 43.5 -145.5t143.5 -55.5q79 0 148 36l55 259h-176v26h211l-64 -302
q-85 -45 -182 -45zM236 -177l-13 17q49 40 50 76q-4 -1 -7 -1q-10 0 -17.5 8t-7.5 19q0 13 8.5 21.5t20.5 8.5q34 0 34 -45q0 -59 -68 -104z" />
    <glyph glyph-name="gcommaaccent" unicode="&#x123;" horiz-adv-x="503" 
d="M321 504q75 0 147 -36q-7 -26 -19 -80l-83 -387q-23 -106 -74 -152.5t-149 -46.5q-72 0 -153 38l11 25q69 -37 145 -37q84 0 127.5 40t62.5 125l27 124q-31 -59 -77 -91.5t-98 -32.5q-75 0 -108.5 46.5t-33.5 120.5q0 142 79 243t196 101zM374 171l60 282q-59 26 -117 26
q-101 0 -170 -93.5t-69 -224.5q0 -143 116 -143q104 0 180 153zM408 788l12 -18q-57 -37 -58 -82h2q3 1 5 1q10 0 17.5 -8t7.5 -19q0 -13 -8.5 -21.5t-20.5 -8.5q-34 0 -34 45q0 65 77 111z" />
    <glyph glyph-name="Hcircumflex" unicode="&#x124;" horiz-adv-x="581" 
d="M41 0l145 686h30l-65 -308h339l66 308h31l-145 -686h-31l74 352h-340l-74 -352h-30zM270 741l-11 20l162 105l128 -109l-15 -17l-116 89z" />
    <glyph glyph-name="hcircumflex" unicode="&#x125;" horiz-adv-x="500" 
d="M195 587l-29 -136q-9 -44 -19 -83q101 137 198 137q47 0 72 -25.5t25 -68.5q0 -17 -6 -43l-77 -368h-30l76 360q7 33 7 49q0 70 -76 70q-84 0 -197 -151l-69 -328h-29l125 590q13 64 13 98q0 12 -4 32l30 10q4 -22 4 -40q0 -34 -14 -103zM80 730l-11 20l162 105l128 -109
l-15 -17l-116 89z" />
    <glyph glyph-name="Hbar" unicode="&#x126;" horiz-adv-x="581" 
d="M67 524l5 24h85l29 138h30l-29 -138h339l30 138h31l-29 -138h84l-5 -24h-84l-111 -524h-31l74 352h-340l-74 -352h-30l111 524h-85zM151 378h339l31 146h-339z" />
    <glyph glyph-name="hbar" unicode="&#x127;" horiz-adv-x="500" 
d="M91 576l5 22h71q12 57 12 90q0 12 -4 32l30 10q4 -22 4 -40q0 -36 -12 -92h169l-5 -22h-169l-26 -125q-9 -44 -19 -83q101 137 198 137q47 0 72 -25.5t25 -68.5q0 -17 -6 -43l-77 -368h-30l76 360q7 33 7 49q0 70 -76 70q-84 0 -197 -151l-69 -328h-29l122 576h-72z" />
    <glyph glyph-name="Itilde" unicode="&#x128;" horiz-adv-x="210" 
d="M41 0l145 686h30l-145 -686h-30zM154 785q-37 0 -66 -29l-8 17q39 39 86 39q28 0 59.5 -18t55.5 -18q37 0 66 29l8 -17q-35 -39 -85 -39q-27 0 -58.5 18t-57.5 18z" />
    <glyph glyph-name="itilde" unicode="&#x129;" horiz-adv-x="200" 
d="M40 0l106 500l32 5l-107 -505h-31zM121 625q-37 0 -66 -29l-8 17q39 39 86 39q28 0 59.5 -18t55.5 -18q37 0 66 29l8 -17q-35 -39 -85 -39q-27 0 -58.5 18t-57.5 18z" />
    <glyph glyph-name="Imacron" unicode="&#x12a;" horiz-adv-x="210" 
d="M41 0l145 686h30l-145 -686h-30zM84 754l5 22h260l-5 -22h-260z" />
    <glyph glyph-name="imacron" unicode="&#x12b;" horiz-adv-x="200" 
d="M40 0l106 500l32 5l-107 -505h-31zM60 607l5 22h260l-5 -22h-260z" />
    <glyph glyph-name="Ibreve" unicode="&#x12c;" horiz-adv-x="210" 
d="M41 0l145 686h30l-145 -686h-30zM208 727q-74 0 -122 90l15 16q48 -73 114 -73q38 0 76.5 23t65.5 51l11 -18q-86 -89 -160 -89z" />
    <glyph glyph-name="ibreve" unicode="&#x12d;" horiz-adv-x="200" 
d="M40 0l106 500l32 5l-107 -505h-31zM173 567q-74 0 -122 90l15 16q48 -73 114 -73q38 0 76.5 23t65.5 51l11 -18q-86 -89 -160 -89z" />
    <glyph glyph-name="Iogonek" unicode="&#x12e;" horiz-adv-x="210" 
d="M19 -197q-34 0 -52.5 17.5t-18.5 45.5q0 70 93 134l145 686h30l-145 -686q-97 -70 -97 -129q0 -45 51 -45q28 0 60 15l5 -19q-32 -19 -71 -19z" />
    <glyph glyph-name="iogonek" unicode="&#x12f;" horiz-adv-x="200" 
d="M19 -197q-34 0 -52.5 17.5t-18.5 45.5q0 71 93 134l105 500l32 5l-107 -505q-97 -72 -97 -129q0 -45 51 -45q28 0 60 15l5 -19q-32 -19 -71 -19zM190 632q-11 0 -18.5 7.5t-7.5 18.5t7.5 19t18.5 8t19 -8t8 -19t-8 -18.5t-19 -7.5z" />
    <glyph glyph-name="Idotaccent" unicode="&#x130;" horiz-adv-x="210" 
d="M41 0l145 686h30l-145 -686h-30zM218 748q-11 0 -18.5 7.5t-7.5 18.5t7.5 19t18.5 8t19 -8t8 -19t-8 -18.5t-19 -7.5z" />
    <glyph glyph-name="dotlessi" unicode="&#x131;" horiz-adv-x="200" 
d="M40 0l106 500l32 5l-107 -505h-31z" />
    <glyph glyph-name="IJ" unicode="&#x132;" horiz-adv-x="443" 
d="M41 0l145 686h30l-145 -686h-30zM148 -123l-12 21q77 28 110 71q16 21 27.5 57t29.5 120l115 540h31l-121 -571q-15 -70 -25.5 -102t-31.5 -58q-41 -51 -123 -78z" />
    <glyph glyph-name="ij" unicode="&#x133;" horiz-adv-x="398" 
d="M41 0l105 500l32 5l-107 -505h-30zM190 632q-11 0 -18.5 7.5t-7.5 18.5t7.5 19t18.5 8t19 -8t8 -19t-8 -18.5t-19 -7.5zM145 -171l-11 20q51 22 72.5 56t37.5 109l103 485l32 6l-105 -493q-16 -77 -41 -117t-88 -66zM390 632q-11 0 -18.5 7.5t-7.5 18.5t7.5 19t18.5 8
t19 -8t8 -19t-8 -18.5t-19 -7.5z" />
    <glyph glyph-name="Jcircumflex" unicode="&#x134;" horiz-adv-x="233" 
d="M-62 -123l-12 21q77 28 110 71q16 21 27.5 57t29.5 120l115 540h31l-121 -571q-15 -70 -25.5 -102t-31.5 -58q-41 -51 -123 -78zM96 741l-11 20l162 105l128 -109l-15 -17l-116 89z" />
    <glyph glyph-name="jcircumflex" unicode="&#x135;" horiz-adv-x="198" 
d="M-55 -171l-11 20q51 22 72.5 56t37.5 109l103 485l32 6l-105 -493q-16 -77 -41 -117t-88 -66zM38 581l-11 20l162 105l128 -109l-15 -17l-116 89z" />
    <glyph glyph-name="Kcommaaccent" unicode="&#x136;" horiz-adv-x="481" 
d="M413 7l-29 -13q-122 198 -224 368l368 332l22 -19l-354 -315zM41 0l145 686h31l-145 -686h-31zM191 -177l-13 17q49 40 50 76q-4 -1 -7 -1q-10 0 -17.5 8t-7.5 19q0 13 8.5 21.5t20.5 8.5q34 0 34 -45q0 -59 -68 -104z" />
    <glyph glyph-name="kcommaaccent" unicode="&#x137;" horiz-adv-x="406" 
d="M341 -8l-201 285l278 229l19 -17l-261 -214l192 -273zM195 587l-125 -587h-29l125 590q13 64 13 98q0 12 -4 32l30 10q4 -22 4 -40q0 -34 -14 -103zM164 -177l-13 17q49 40 50 76h-3q-2 -1 -4 -1q-10 0 -17.5 8t-7.5 19q0 13 8.5 21.5t20.5 8.5q34 0 34 -45
q0 -59 -68 -104z" />
    <glyph glyph-name="kgreenlandic" unicode="&#x138;" horiz-adv-x="406" 
d="M341 -8l-201 285l278 229l19 -17l-261 -214l192 -273zM149 371l-79 -371h-29l79 374q13 64 13 98q0 12 -4 32l30 10q4 -22 4 -40q0 -34 -14 -103z" />
    <glyph glyph-name="Lacute" unicode="&#x139;" horiz-adv-x="413" 
d="M41 0l145 686h30l-140 -660h291l-10 -26h-316zM368 832l-176 -102l-11 20l169 110z" />
    <glyph glyph-name="lacute" unicode="&#x13a;" horiz-adv-x="218" 
d="M195 587l-105 -492q-8 -36 -8 -52q0 -25 26 -25q10 0 22 4l2 -22q-18 -6 -35 -6q-45 0 -45 44q0 19 8 57l106 495q13 64 13 98q0 12 -4 32l30 10q4 -22 4 -40q0 -34 -14 -103zM355 849l-176 -102l-11 20l169 110z" />
    <glyph glyph-name="Lcommaaccent" unicode="&#x13b;" horiz-adv-x="413" 
d="M41 0l145 686h30l-140 -660h291l-10 -26h-316zM172 -177l-13 17q49 40 50 76q-4 -1 -7 -1q-10 0 -17.5 8t-7.5 19q0 13 8.5 21.5t20.5 8.5q34 0 34 -45q0 -59 -68 -104z" />
    <glyph glyph-name="lcommaaccent" unicode="&#x13c;" horiz-adv-x="218" 
d="M195 587l-105 -492q-8 -36 -8 -52q0 -25 26 -25q10 0 22 4l2 -22q-18 -6 -35 -6q-45 0 -45 44q0 19 8 57l106 495q13 64 13 98q0 12 -4 32l30 10q4 -22 4 -40q0 -34 -14 -103zM46 -177l-13 17q49 40 50 76h-3q-2 -1 -4 -1q-10 0 -17.5 8t-7.5 19q0 13 8.5 21.5t20.5 8.5
q34 0 34 -45q0 -59 -68 -104z" />
    <glyph glyph-name="Lcaron" unicode="&#x13d;" horiz-adv-x="413" 
d="M41 0l145 686h30l-140 -660h291l-10 -26h-316zM316 530l-12 18q57 37 58 82h-2q-3 -1 -5 -1q-10 0 -17.5 8t-7.5 19q0 13 8.5 21.5t20.5 8.5q34 0 34 -45q0 -65 -77 -111z" />
    <glyph glyph-name="lcaron" unicode="&#x13e;" horiz-adv-x="218" 
d="M195 587l-105 -492q-8 -36 -8 -52q0 -25 26 -25q10 0 22 4l2 -22q-18 -6 -35 -6q-45 0 -45 44q0 19 8 57l106 495q13 64 13 98q0 12 -4 32l30 10q4 -22 4 -40q0 -34 -14 -103zM250 574l-12 18q57 37 58 82h-2q-3 -1 -5 -1q-10 0 -17.5 8t-7.5 19q0 13 8.5 21.5t20.5 8.5
q34 0 34 -45q0 -65 -77 -111z" />
    <glyph glyph-name="Ldot" unicode="&#x13f;" horiz-adv-x="413" 
d="M41 0l145 686h30l-140 -660h291l-10 -26h-316zM331 324q-11 0 -18.5 7.5t-7.5 18.5t7.5 19t18.5 8t19 -8t8 -19t-8 -18.5t-19 -7.5z" />
    <glyph glyph-name="ldot" unicode="&#x140;" horiz-adv-x="241" 
d="M195 587l-105 -492q-8 -36 -8 -52q0 -25 26 -25q10 0 22 4l2 -22q-18 -6 -35 -6q-45 0 -45 44q0 19 8 57l106 495q13 64 13 98q0 12 -4 32l30 10q4 -22 4 -40q0 -34 -14 -103zM246 302q-11 0 -18.5 7.5t-7.5 18.5t7.5 19t18.5 8t19 -8t8 -19t-8 -18.5t-19 -7.5z" />
    <glyph glyph-name="Lslash" unicode="&#x141;" horiz-adv-x="417" 
d="M34 297l5 25l52 16l74 348h30l-72 -339l234 71l-5 -26l-235 -70l-62 -296h291l-10 -26h-316l66 312z" />
    <glyph glyph-name="lslash" unicode="&#x142;" horiz-adv-x="228" 
d="M180 587l-49 -229l105 36l-5 -26l-106 -37l-50 -236q-8 -36 -8 -52q0 -25 26 -25q10 0 22 4l2 -22q-18 -6 -35 -6q-45 0 -45 44q0 19 8 57l48 225l-51 -17l5 26l52 18l52 243q13 64 13 98q0 12 -4 32l30 10q4 -22 4 -40q0 -34 -14 -103z" />
    <glyph glyph-name="Nacute" unicode="&#x143;" horiz-adv-x="593" 
d="M41 0l145 686h37l176 -540l35 -111q0 11 27 139l107 512h30l-145 -686h-34l-178 534q-23 69 -35 117l-135 -651h-30zM506 832l-176 -102l-11 20l169 110z" />
    <glyph glyph-name="nacute" unicode="&#x144;" horiz-adv-x="500" 
d="M70 0h-30l80 379q13 61 13 79t-5 33l29 12q6 -18 6 -38q0 -21 -9 -65l-7 -31q99 136 198 136q47 0 72 -25.5t25 -68.5q0 -10 -6 -44l-77 -367h-30l76 360q7 33 7 49q0 70 -76 70q-86 0 -198 -152zM416 672l-176 -102l-11 20l169 110z" />
    <glyph glyph-name="Ncommaaccent" unicode="&#x145;" horiz-adv-x="593" 
d="M41 0l145 686h37l176 -540l35 -111q0 11 27 139l107 512h30l-145 -686h-34l-178 534q-23 69 -35 117l-135 -651h-30zM220 -177l-13 17q49 40 50 76q-4 -1 -7 -1q-10 0 -17.5 8t-7.5 19q0 13 8.5 21.5t20.5 8.5q34 0 34 -45q0 -59 -68 -104z" />
    <glyph glyph-name="ncommaaccent" unicode="&#x146;" horiz-adv-x="500" 
d="M70 0h-30l80 379q13 61 13 79t-5 33l29 12q6 -18 6 -38q0 -21 -9 -65l-7 -31q99 136 198 136q47 0 72 -25.5t25 -68.5q0 -10 -6 -44l-77 -367h-30l76 360q7 33 7 49q0 70 -76 70q-86 0 -198 -152zM172 -177l-13 17q49 40 50 76h-3q-2 -1 -4 -1q-10 0 -17.5 8t-7.5 19
q0 13 8.5 21.5t20.5 8.5q34 0 34 -45q0 -59 -68 -104z" />
    <glyph glyph-name="Ncaron" unicode="&#x147;" horiz-adv-x="593" 
d="M41 0l145 686h37l176 -540l35 -111q0 11 27 139l107 512h30l-145 -686h-34l-178 534q-23 69 -35 117l-135 -651h-30zM552 852l10 -20l-162 -105l-127 108l14 19l117 -90z" />
    <glyph glyph-name="ncaron" unicode="&#x148;" horiz-adv-x="500" 
d="M70 0h-30l80 379q13 61 13 79t-5 33l29 12q6 -18 6 -38q0 -21 -9 -65l-7 -31q99 136 198 136q47 0 72 -25.5t25 -68.5q0 -10 -6 -44l-77 -367h-30l76 360q7 33 7 49q0 70 -76 70q-86 0 -198 -152zM462 692l10 -20l-162 -105l-127 108l14 19l117 -90z" />
    <glyph glyph-name="napostrophe" unicode="&#x149;" horiz-adv-x="500" 
d="M70 0h-30l80 379q13 61 13 79t-5 33l29 12q6 -18 6 -38q0 -21 -9 -65l-7 -31q99 136 198 136q47 0 72 -25.5t25 -68.5q0 -10 -6 -44l-77 -367h-30l76 360q7 33 7 49q0 70 -76 70q-86 0 -198 -152zM56 503l-12 18q57 37 58 82l-2 -1h-5q-10 0 -17.5 8t-7.5 19
q0 13 8.5 21.5t20.5 8.5q34 0 34 -45q0 -66 -77 -111z" />
    <glyph glyph-name="Eng" unicode="&#x14a;" horiz-adv-x="593" 
d="M41 0l145 686h37l176 -540l35 -111q0 11 27 139l107 512h30l-149 -700q-17 -79 -41 -118t-87 -65l-11 20q51 22 72.5 56t37.5 109q1 5 -1 12l-178 534q-23 69 -35 117l-135 -651h-30z" />
    <glyph glyph-name="eng" unicode="&#x14b;" horiz-adv-x="500" 
d="M70 0h-30l80 379q13 61 13 79t-5 33l29 12q6 -18 6 -38q0 -21 -9 -65l-7 -31q99 136 198 136q47 0 72 -25.5t25 -68.5q0 -10 -6 -44l-80 -381q-16 -77 -41 -117t-88 -66l-11 20q51 22 72.5 56t37.5 109l79 372q7 33 7 49q0 70 -76 70q-86 0 -198 -152z" />
    <glyph glyph-name="Omacron" unicode="&#x14c;" horiz-adv-x="624" 
d="M266 15q77 0 137.5 47.5t94 120.5t50 147.5t16.5 141.5q0 196 -162 196q-62 0 -114 -32t-85 -82t-56 -112.5t-32.5 -120.5t-9.5 -110q0 -196 161 -196zM260 -8q-52 0 -90 18t-58.5 50.5t-29.5 71t-9 85.5q0 80 19 159.5t57 152.5t105.5 118.5t153.5 45.5q52 0 90 -18.5
t58.5 -51t30 -71t9.5 -85.5q0 -62 -11.5 -126t-37.5 -127t-63.5 -112t-95.5 -79.5t-128 -30.5zM272 754l5 22h260l-5 -22h-260z" />
    <glyph glyph-name="omacron" unicode="&#x14d;" horiz-adv-x="493" 
d="M202 16q55 0 99 31.5t69 80.5t38 103.5t13 106.5q0 143 -123 143q-54 0 -98 -30.5t-69.5 -79t-39 -103.5t-13.5 -109q0 -143 124 -143zM196 -9q-77 0 -113 49t-36 126q0 56 15.5 113.5t45 109.5t81 85t116.5 33q77 0 112.5 -49t35.5 -125q0 -46 -9.5 -92.5t-30 -91.5
t-50 -80t-73 -56.5t-94.5 -21.5zM197 607l5 22h260l-5 -22h-260z" />
    <glyph glyph-name="Obreve" unicode="&#x14e;" horiz-adv-x="624" 
d="M266 15q77 0 137.5 47.5t94 120.5t50 147.5t16.5 141.5q0 196 -162 196q-62 0 -114 -32t-85 -82t-56 -112.5t-32.5 -120.5t-9.5 -110q0 -196 161 -196zM260 -8q-52 0 -90 18t-58.5 50.5t-29.5 71t-9 85.5q0 80 19 159.5t57 152.5t105.5 118.5t153.5 45.5q52 0 90 -18.5
t58.5 -51t30 -71t9.5 -85.5q0 -62 -11.5 -126t-37.5 -127t-63.5 -112t-95.5 -79.5t-128 -30.5zM399 727q-74 0 -122 90l15 16q48 -73 114 -73q38 0 76.5 23t65.5 51l11 -18q-86 -89 -160 -89z" />
    <glyph glyph-name="obreve" unicode="&#x14f;" horiz-adv-x="493" 
d="M202 16q55 0 99 31.5t69 80.5t38 103.5t13 106.5q0 143 -123 143q-54 0 -98 -30.5t-69.5 -79t-39 -103.5t-13.5 -109q0 -143 124 -143zM196 -9q-77 0 -113 49t-36 126q0 56 15.5 113.5t45 109.5t81 85t116.5 33q77 0 112.5 -49t35.5 -125q0 -46 -9.5 -92.5t-30 -91.5
t-50 -80t-73 -56.5t-94.5 -21.5zM308 567q-74 0 -122 90l15 16q48 -73 114 -73q38 0 76.5 23t65.5 51l11 -18q-86 -89 -160 -89z" />
    <glyph glyph-name="Ohungarumlaut" unicode="&#x150;" horiz-adv-x="624" 
d="M266 15q77 0 137.5 47.5t94 120.5t50 147.5t16.5 141.5q0 196 -162 196q-62 0 -114 -32t-85 -82t-56 -112.5t-32.5 -120.5t-9.5 -110q0 -196 161 -196zM260 -8q-52 0 -90 18t-58.5 50.5t-29.5 71t-9 85.5q0 80 19 159.5t57 152.5t105.5 118.5t153.5 45.5q52 0 90 -18.5
t58.5 -51t30 -71t9.5 -85.5q0 -62 -11.5 -126t-37.5 -127t-63.5 -112t-95.5 -79.5t-128 -30.5zM456 732l-17 13l152 148l26 -19zM338 730l-18 11l136 153l29 -15z" />
    <glyph glyph-name="ohungarumlaut" unicode="&#x151;" horiz-adv-x="493" 
d="M202 16q55 0 99 31.5t69 80.5t38 103.5t13 106.5q0 143 -123 143q-54 0 -98 -30.5t-69.5 -79t-39 -103.5t-13.5 -109q0 -143 124 -143zM196 -9q-77 0 -113 49t-36 126q0 56 15.5 113.5t45 109.5t81 85t116.5 33q77 0 112.5 -49t35.5 -125q0 -46 -9.5 -92.5t-30 -91.5
t-50 -80t-73 -56.5t-94.5 -21.5zM366 572l-17 13l152 148l26 -19zM248 570l-18 11l136 153l29 -15z" />
    <glyph glyph-name="OE" unicode="&#x152;" horiz-adv-x="815" 
d="M439 686h433l-10 -26h-297l-62 -289h238l-5 -27h-238l-67 -317h314l-5 -27h-456q-105 0 -158 61t-53 159q0 198 103 332t263 134zM290 25q84 0 109 2l134 631q-32 2 -96 2q-144 0 -238 -123t-94 -322q0 -87 46.5 -138.5t138.5 -51.5z" />
    <glyph glyph-name="oe" unicode="&#x153;" horiz-adv-x="788" 
d="M192 -8q-76 0 -110.5 48t-34.5 125q0 56 15 113.5t44.5 109.5t80 85t114.5 33q132 0 138 -168q28 71 79 116.5t120 45.5q51 0 86.5 -29t35.5 -78q0 -159 -232 -159q-47 0 -91 4q-7 -36 -7 -76q0 -68 31.5 -109t97.5 -41q75 0 138 54l14 -20q-68 -59 -157 -59
q-72 0 -109 47t-39 123q-30 -74 -84.5 -119.5t-129.5 -45.5zM198 16q55 0 98.5 31.5t68.5 80.5t38 103t13 106q0 144 -121 144q-70 0 -122 -53t-74 -124t-22 -145q0 -143 121 -143zM631 476q-70 0 -120 -61.5t-70 -151.5q33 -4 88 -4q201 0 201 132q0 40 -27 62.5t-72 22.5z
" />
    <glyph glyph-name="Racute" unicode="&#x154;" horiz-adv-x="491" 
d="M432 5l-29 -9q-76 200 -134 274q-25 32 -42.5 40t-56.5 8h-32q-44 -212 -67 -318h-30l145 686h122q38 0 70.5 -6.5t63 -22t48 -46t17.5 -72.5q0 -108 -67 -163.5t-189 -56.5q52 -18 123 -172q32 -68 58 -142zM473 533q0 126 -167 126h-95l-68 -319h79q114 0 166 33
q85 51 85 160zM428 832l-176 -102l-11 20l169 110z" />
    <glyph glyph-name="racute" unicode="&#x155;" horiz-adv-x="314" 
d="M70 0h-30l80 379q13 61 13 79t-5 33l29 12q6 -18 6 -38q0 -21 -9 -65l-7 -34q83 141 175 141q17 0 31 -6l-13 -32q-12 6 -31 6q-26 0 -50 -13.5t-48 -42.5t-38 -48.5t-37 -56.5zM342 672l-176 -102l-11 20l169 110z" />
    <glyph glyph-name="Rcommaaccent" unicode="&#x156;" horiz-adv-x="491" 
d="M432 5l-29 -9q-76 200 -134 274q-25 32 -42.5 40t-56.5 8h-32q-44 -212 -67 -318h-30l145 686h122q38 0 70.5 -6.5t63 -22t48 -46t17.5 -72.5q0 -108 -67 -163.5t-189 -56.5q52 -18 123 -172q32 -68 58 -142zM473 533q0 126 -167 126h-95l-68 -319h79q114 0 166 33
q85 51 85 160zM195 -177l-13 17q49 40 50 76q-4 -1 -7 -1q-10 0 -17.5 8t-7.5 19q0 13 8.5 21.5t20.5 8.5q34 0 34 -45q0 -59 -68 -104z" />
    <glyph glyph-name="rcommaaccent" unicode="&#x157;" horiz-adv-x="314" 
d="M70 0h-30l80 379q13 61 13 79t-5 33l29 12q6 -18 6 -38q0 -21 -9 -65l-7 -34q83 141 175 141q17 0 31 -6l-13 -32q-12 6 -31 6q-26 0 -50 -13.5t-48 -42.5t-38 -48.5t-37 -56.5zM11 -177l-13 17q49 40 50 76h-2q-3 -1 -5 -1q-10 0 -17.5 8t-7.5 19q0 13 8.5 21.5
t20.5 8.5q34 0 34 -45q0 -59 -68 -104z" />
    <glyph glyph-name="Rcaron" unicode="&#x158;" horiz-adv-x="491" 
d="M432 5l-29 -9q-76 200 -134 274q-25 32 -42.5 40t-56.5 8h-32q-44 -212 -67 -318h-30l145 686h122q38 0 70.5 -6.5t63 -22t48 -46t17.5 -72.5q0 -108 -67 -163.5t-189 -56.5q52 -18 123 -172q32 -68 58 -142zM473 533q0 126 -167 126h-95l-68 -319h79q114 0 166 33
q85 51 85 160zM474 852l10 -20l-162 -105l-127 108l14 19l117 -90z" />
    <glyph glyph-name="rcaron" unicode="&#x159;" horiz-adv-x="314" 
d="M70 0h-30l80 379q13 61 13 79t-5 33l29 12q6 -18 6 -38q0 -21 -9 -65l-7 -34q83 141 175 141q17 0 31 -6l-13 -32q-12 6 -31 6q-26 0 -50 -13.5t-48 -42.5t-38 -48.5t-37 -56.5zM394 692l10 -20l-162 -105l-127 108l14 19l117 -90z" />
    <glyph glyph-name="Sacute" unicode="&#x15a;" horiz-adv-x="514" 
d="M503 621q-64 48 -148 48q-79 0 -136.5 -43.5t-57.5 -121.5q0 -42 23 -68.5t76 -48.5l64 -28q120 -52 120 -147q0 -102 -75 -161.5t-182 -59.5q-100 0 -176 54l16 25q65 -53 166 -53q86 0 152 52t66 138q0 47 -27 76t-81 52l-61 27q-114 48 -114 136q0 96 68 146.5
t164 50.5q95 0 160 -52zM474 832l-176 -102l-11 20l169 110z" />
    <glyph glyph-name="sacute" unicode="&#x15b;" horiz-adv-x="423" 
d="M148 -9q-86 0 -149 45l14 22q63 -43 142 -43q65 0 112 32t47 93q0 38 -17 58.5t-67 41.5l-55 23q-46 19 -69 44t-23 63q0 68 51 103t129 35q70 0 129 -39l-13 -22q-53 36 -119 36q-61 0 -103.5 -26t-42.5 -81q0 -32 16.5 -50t58.5 -36l56 -24q58 -24 80 -51.5t22 -68.5
q0 -74 -54.5 -114.5t-144.5 -40.5zM413 672l-176 -102l-11 20l169 110z" />
    <glyph glyph-name="Scircumflex" unicode="&#x15c;" horiz-adv-x="514" 
d="M503 621q-64 48 -148 48q-79 0 -136.5 -43.5t-57.5 -121.5q0 -42 23 -68.5t76 -48.5l64 -28q120 -52 120 -147q0 -102 -75 -161.5t-182 -59.5q-100 0 -176 54l16 25q65 -53 166 -53q86 0 152 52t66 138q0 47 -27 76t-81 52l-61 27q-114 48 -114 136q0 96 68 146.5
t164 50.5q95 0 160 -52zM222 741l-11 20l162 105l128 -109l-15 -17l-116 89z" />
    <glyph glyph-name="scircumflex" unicode="&#x15d;" horiz-adv-x="423" 
d="M148 -9q-86 0 -149 45l14 22q63 -43 142 -43q65 0 112 32t47 93q0 38 -17 58.5t-67 41.5l-55 23q-46 19 -69 44t-23 63q0 68 51 103t129 35q70 0 129 -39l-13 -22q-53 36 -119 36q-61 0 -103.5 -26t-42.5 -81q0 -32 16.5 -50t58.5 -36l56 -24q58 -24 80 -51.5t22 -68.5
q0 -74 -54.5 -114.5t-144.5 -40.5zM141 581l-11 20l162 105l128 -109l-15 -17l-116 89z" />
    <glyph glyph-name="Scedilla" unicode="&#x15e;" horiz-adv-x="514" 
d="M147 -197q-42 0 -70 24l13 18q25 -19 60 -19q31 0 54 17.5t23 47.5q0 38 -50 38q-15 0 -34 -3l34 65q-95 3 -166 54l16 25q65 -53 166 -53q86 0 152 52t66 138q0 47 -27 76t-81 52l-61 27q-114 48 -114 136q0 96 68 146.5t164 50.5q95 0 160 -52l-17 -22q-64 48 -148 48
q-79 0 -136.5 -43.5t-57.5 -121.5q0 -42 23 -68.5t76 -48.5l64 -28q120 -52 120 -147q0 -99 -70.5 -158t-173.5 -63l-23 -46q9 1 17 1q28 0 44.5 -16t16.5 -36q0 -41 -30 -66t-78 -25z" />
    <glyph glyph-name="scedilla" unicode="&#x15f;" horiz-adv-x="423" 
d="M108 -197q-42 0 -70 24l13 18q25 -19 60 -19q31 0 54 17.5t23 47.5q0 38 -50 38q-15 0 -34 -3l34 65q-81 3 -139 45l14 22q63 -43 142 -43q65 0 112 32t47 93q0 38 -17 58.5t-67 41.5l-55 23q-46 19 -69 44t-23 63q0 68 51 103t129 35q70 0 129 -39l-13 -22
q-53 36 -119 36q-61 0 -103.5 -26t-42.5 -81q0 -32 16.5 -50t58.5 -36l56 -24q58 -24 80 -51.5t22 -68.5q0 -71 -50.5 -111t-135.5 -43l-23 -47q9 1 17 1q28 0 44.5 -16t16.5 -36q0 -41 -30 -66t-78 -25z" />
    <glyph glyph-name="Scaron" unicode="&#x160;" horiz-adv-x="514" 
d="M503 621q-64 48 -148 48q-79 0 -136.5 -43.5t-57.5 -121.5q0 -42 23 -68.5t76 -48.5l64 -28q120 -52 120 -147q0 -102 -75 -161.5t-182 -59.5q-100 0 -176 54l16 25q65 -53 166 -53q86 0 152 52t66 138q0 47 -27 76t-81 52l-61 27q-114 48 -114 136q0 96 68 146.5
t164 50.5q95 0 160 -52zM490 852l10 -20l-162 -105l-127 108l14 19l117 -90z" />
    <glyph glyph-name="scaron" unicode="&#x161;" horiz-adv-x="423" 
d="M148 -9q-86 0 -149 45l14 22q63 -43 142 -43q65 0 112 32t47 93q0 38 -17 58.5t-67 41.5l-55 23q-46 19 -69 44t-23 63q0 68 51 103t129 35q70 0 129 -39l-13 -22q-53 36 -119 36q-61 0 -103.5 -26t-42.5 -81q0 -32 16.5 -50t58.5 -36l56 -24q58 -24 80 -51.5t22 -68.5
q0 -74 -54.5 -114.5t-144.5 -40.5zM405 692l10 -20l-162 -105l-127 108l14 19l117 -90z" />
    <glyph glyph-name="Tcommaaccent" unicode="&#x162;" horiz-adv-x="419" 
d="M158 0l140 659h-196l5 27h427l-8 -27h-198l-140 -659h-3l-28 -55q9 1 17 1q28 0 44.5 -16t16.5 -36q0 -41 -30 -66t-78 -25q-42 0 -70 24l13 18q25 -19 60 -19q31 0 54 17.5t23 47.5q0 38 -50 38q-15 0 -34 -3l39 74h-4z" />
    <glyph glyph-name="tcommaaccent" unicode="&#x163;" horiz-adv-x="260" 
d="M107 -197q-42 0 -70 24l13 18q25 -19 60 -19q31 0 54 17.5t23 47.5q0 38 -50 38q-15 0 -34 -3l34 65q-64 5 -64 72q0 31 9 71l73 341h-65l5 23h65q16 79 37 130l32 7q-20 -46 -39 -137h121l-14 -23h-113l-71 -337q-10 -48 -10 -72q0 -28 11 -39.5t40 -11.5q31 0 60 13
v-24q-28 -12 -54 -13l-23 -46q9 1 17 1q28 0 44.5 -16t16.5 -36q0 -41 -30 -66t-78 -25z" />
    <glyph glyph-name="Tcaron" unicode="&#x164;" horiz-adv-x="419" 
d="M158 0l140 659h-196l5 27h427l-8 -27h-198l-140 -659h-30zM479 852l10 -20l-162 -105l-127 108l14 19l117 -90z" />
    <glyph glyph-name="tcaron" unicode="&#x165;" horiz-adv-x="260" 
d="M148 -10q-75 0 -75 73q0 31 9 71l73 341h-65l5 23h65q16 79 37 130l32 7q-20 -46 -39 -137h121l-14 -23h-113l-71 -337q-10 -48 -10 -72q0 -28 11 -39.5t40 -11.5q31 0 60 13v-24q-31 -14 -66 -14zM278 539l-12 18q57 37 58 82l-2 -1h-5q-10 0 -17.5 8t-7.5 19
q0 13 8.5 21.5t20.5 8.5q34 0 34 -45q0 -66 -77 -111z" />
    <glyph glyph-name="Tbar" unicode="&#x166;" horiz-adv-x="419" 
d="M121 401l5 22h121l51 236h-196l5 27h427l-8 -27h-198l-50 -236h124l-5 -22h-124l-85 -401h-30l85 401h-122z" />
    <glyph glyph-name="tbar" unicode="&#x167;" horiz-adv-x="260" 
d="M148 -10q-75 0 -75 73q0 31 9 71l24 112h-64l5 23h64l44 206h-65l5 23h65q16 79 37 130l32 7q-20 -46 -39 -137h121l-14 -23h-113l-43 -206h122l-14 -23h-113l-23 -108q-10 -48 -10 -72q0 -28 11 -39.5t40 -11.5q31 0 60 13v-24q-31 -14 -66 -14z" />
    <glyph glyph-name="Utilde" unicode="&#x168;" horiz-adv-x="579" 
d="M237 -8q-81 0 -121.5 38t-40.5 106q0 33 8 68l102 482h30l-100 -472q-9 -45 -9 -75q0 -59 31.5 -90t107.5 -31q102 0 153 56q40 45 58 129l103 483h30l-103 -486q-21 -100 -68 -147q-63 -61 -181 -61zM333 785q-37 0 -66 -29l-8 17q39 39 86 39q28 0 59.5 -18t55.5 -18
q37 0 66 29l8 -17q-35 -39 -85 -39q-27 0 -58.5 18t-57.5 18z" />
    <glyph glyph-name="utilde" unicode="&#x169;" horiz-adv-x="511" 
d="M369 125q-96 -134 -196 -134t-100 91q0 22 6 47l77 367l31 6l-78 -366q-7 -33 -7 -52q0 -69 79 -69q88 0 198 158l67 323l32 5l-78 -362q-9 -41 -9 -63q0 -37 24 -65l-23 -18q-29 30 -29 82q0 23 6 50zM272 625q-37 0 -66 -29l-8 17q39 39 86 39q28 0 59.5 -18t55.5 -18
q37 0 66 29l8 -17q-35 -39 -85 -39q-27 0 -58.5 18t-57.5 18z" />
    <glyph glyph-name="Umacron" unicode="&#x16a;" horiz-adv-x="579" 
d="M237 -8q-81 0 -121.5 38t-40.5 106q0 33 8 68l102 482h30l-100 -472q-9 -45 -9 -75q0 -59 31.5 -90t107.5 -31q102 0 153 56q40 45 58 129l103 483h30l-103 -486q-21 -100 -68 -147q-63 -61 -181 -61zM263 754l5 22h260l-5 -22h-260z" />
    <glyph glyph-name="umacron" unicode="&#x16b;" horiz-adv-x="511" 
d="M369 125q-96 -134 -196 -134t-100 91q0 22 6 47l77 367l31 6l-78 -366q-7 -33 -7 -52q0 -69 79 -69q88 0 198 158l67 323l32 5l-78 -362q-9 -41 -9 -63q0 -37 24 -65l-23 -18q-29 30 -29 82q0 23 6 50zM213 607l5 22h260l-5 -22h-260z" />
    <glyph glyph-name="Ubreve" unicode="&#x16c;" horiz-adv-x="579" 
d="M237 -8q-81 0 -121.5 38t-40.5 106q0 33 8 68l102 482h30l-100 -472q-9 -45 -9 -75q0 -59 31.5 -90t107.5 -31q102 0 153 56q40 45 58 129l103 483h30l-103 -486q-21 -100 -68 -147q-63 -61 -181 -61zM388 727q-74 0 -122 90l15 16q48 -73 114 -73q38 0 76.5 23t65.5 51
l11 -18q-86 -89 -160 -89z" />
    <glyph glyph-name="ubreve" unicode="&#x16d;" horiz-adv-x="511" 
d="M369 125q-96 -134 -196 -134t-100 91q0 22 6 47l77 367l31 6l-78 -366q-7 -33 -7 -52q0 -69 79 -69q88 0 198 158l67 323l32 5l-78 -362q-9 -41 -9 -63q0 -37 24 -65l-23 -18q-29 30 -29 82q0 23 6 50zM328 570q-74 0 -122 90l15 16q48 -73 114 -73q38 0 76.5 23t65.5 51
l11 -18q-86 -89 -160 -89z" />
    <glyph glyph-name="Uring" unicode="&#x16e;" horiz-adv-x="579" 
d="M237 -8q-81 0 -121.5 38t-40.5 106q0 33 8 68l102 482h30l-100 -472q-9 -45 -9 -75q0 -59 31.5 -90t107.5 -31q102 0 153 56q40 45 58 129l103 483h30l-103 -486q-21 -100 -68 -147q-63 -61 -181 -61zM408 730q-35 0 -57.5 24t-22.5 58q0 33 22 56.5t56 23.5
q35 0 57.5 -23.5t22.5 -56.5q0 -34 -22.5 -58t-55.5 -24zM408 750q25 0 42 18t17 44q0 25 -17.5 43t-43.5 18q-25 0 -41.5 -18t-16.5 -43q0 -26 17 -44t43 -18z" />
    <glyph glyph-name="uring" unicode="&#x16f;" horiz-adv-x="511" 
d="M369 125q-96 -134 -196 -134t-100 91q0 22 6 47l77 367l31 6l-78 -366q-7 -33 -7 -52q0 -69 79 -69q88 0 198 158l67 323l32 5l-78 -362q-9 -41 -9 -63q0 -37 24 -65l-23 -18q-29 30 -29 82q0 23 6 50zM328 570q-35 0 -57.5 24t-22.5 58q0 33 22 56.5t56 23.5
q35 0 57.5 -23.5t22.5 -56.5q0 -34 -22.5 -58t-55.5 -24zM328 590q25 0 42 18t17 44q0 25 -17.5 43t-43.5 18q-25 0 -41.5 -18t-16.5 -43q0 -26 17 -44t43 -18z" />
    <glyph glyph-name="Uhungarumlaut" unicode="&#x170;" horiz-adv-x="579" 
d="M237 -8q-81 0 -121.5 38t-40.5 106q0 33 8 68l102 482h30l-100 -472q-9 -45 -9 -75q0 -59 31.5 -90t107.5 -31q102 0 153 56q40 45 58 129l103 483h30l-103 -486q-21 -100 -68 -147q-63 -61 -181 -61zM454 732l-17 13l152 148l26 -19zM336 730l-18 11l136 153l29 -15z
" />
    <glyph glyph-name="uhungarumlaut" unicode="&#x171;" horiz-adv-x="511" 
d="M369 125q-96 -134 -196 -134t-100 91q0 22 6 47l77 367l31 6l-78 -366q-7 -33 -7 -52q0 -69 79 -69q88 0 198 158l67 323l32 5l-78 -362q-9 -41 -9 -63q0 -37 24 -65l-23 -18q-29 30 -29 82q0 23 6 50zM387 572l-17 13l152 148l26 -19zM269 570l-18 11l136 153l29 -15z
" />
    <glyph glyph-name="Uogonek" unicode="&#x172;" horiz-adv-x="579" 
d="M194 -197q-34 0 -52.5 17.5t-18.5 45.5q0 68 90 132q-71 4 -107 41.5t-36 101.5q0 33 8 68l102 482h30l-100 -472q-9 -45 -9 -75q0 -59 31.5 -90t107.5 -31q102 0 153 56q40 45 58 129l103 483h30l-103 -486q-21 -100 -68 -147q-54 -52 -159 -62q-19 -1 -62 -40.5
t-43 -84.5t51 -45q28 0 60 15l5 -19q-32 -19 -71 -19z" />
    <glyph glyph-name="uogonek" unicode="&#x173;" horiz-adv-x="511" 
d="M345 -197q-34 0 -52.5 17.5t-18.5 45.5q0 72 106 143q-17 27 -17 66q0 23 6 50q-96 -134 -196 -134t-100 91q0 22 6 47l77 367l31 6l-78 -366q-7 -33 -7 -52q0 -69 79 -69q88 0 198 158l67 323l32 5l-78 -362q-9 -41 -9 -63q0 -37 24 -65q-27 -19 -40.5 -29.5t-34.5 -30
t-30.5 -39.5t-9.5 -41q0 -45 51 -45q28 0 60 15l5 -19q-32 -19 -71 -19z" />
    <glyph glyph-name="Wcircumflex" unicode="&#x174;" horiz-adv-x="733" 
d="M134 0l-22 686h31l15 -513q1 -33 1 -97v-47q3 9 63 144l229 513h35l7 -513q1 -70 1 -144q8 27 61 145l225 512h32l-303 -686h-41l-6 507q-1 45 -1 138q-1 -1 -10 -23.5t-23.5 -56.5t-25.5 -59l-228 -506h-40zM351 741l-11 20l162 105l128 -109l-15 -17l-116 89z" />
    <glyph glyph-name="wcircumflex" unicode="&#x175;" horiz-adv-x="613" 
d="M101 -4l-33 501l29 6l24 -401q3 -57 3 -67h2l25 55l193 408h33l23 -412q3 -45 3 -53h1l25 56l195 409h32l-242 -502h-34l-24 413q-3 42 -3 50h-1l-21 -46l-198 -417h-32zM249 581l-11 20l162 105l128 -109l-15 -17l-116 89z" />
    <glyph glyph-name="Ycircumflex" unicode="&#x176;" horiz-adv-x="478" 
d="M173 0l57 272l-133 414h34l99 -318q1 -4 9 -30t11 -38q6 9 14.5 20.5t19.5 26.5t18 24l233 315h38l-311 -416l-57 -270h-32zM205 741l-11 20l162 105l128 -109l-15 -17l-116 89z" />
    <glyph glyph-name="ycircumflex" unicode="&#x177;" horiz-adv-x="405" 
d="M1 -202l-7 23q47 13 79 49t83 131l-16 -2q0 32 -7 86l-56 411l30 9l47 -356q11 -83 11 -126h2q2 5 52 99l201 376h35l-280 -516q-46 -85 -83 -127.5t-91 -56.5zM143 581l-11 20l162 105l128 -109l-15 -17l-116 89z" />
    <glyph glyph-name="Ydieresis" unicode="&#x178;" horiz-adv-x="478" 
d="M173 0l57 272l-133 414h34l99 -318q1 -4 9 -30t11 -38q6 9 14.5 20.5t19.5 26.5t18 24l233 315h38l-311 -416l-57 -270h-32zM411 750q-10 0 -17 7t-7 17t7 17t17 7t17 -7t7 -17t-7 -17t-17 -7zM273 750q-10 0 -17 7t-7 17t7 17t17 7t17 -7t7 -17t-7 -17t-17 -7z" />
    <glyph glyph-name="Zacute" unicode="&#x179;" horiz-adv-x="501" 
d="M5 0v24l451 570q15 19 55 66q-16 -1 -64 -1h-283l10 27h369v-27l-455 -575q-13 -16 -48 -58q15 1 62 1h296l-9 -27h-384zM460 832l-176 -102l-11 20l169 110z" />
    <glyph glyph-name="zacute" unicode="&#x17a;" horiz-adv-x="385" 
d="M-30 0v24l390 450h-270v24h306v-26l-389 -448h283l-14 -24h-306zM378 672l-176 -102l-11 20l169 110z" />
    <glyph glyph-name="Zdotaccent" unicode="&#x17b;" horiz-adv-x="501" 
d="M5 0v24l451 570q15 19 55 66q-16 -1 -64 -1h-283l10 27h369v-27l-455 -575q-13 -16 -48 -58q15 1 62 1h296l-9 -27h-384zM358 748q-11 0 -18.5 7.5t-7.5 18.5t7.5 19t18.5 8t19 -8t8 -19t-8 -18.5t-19 -7.5z" />
    <glyph glyph-name="zdotaccent" unicode="&#x17c;" horiz-adv-x="385" 
d="M-30 0v24l390 450h-270v24h306v-26l-389 -448h283l-14 -24h-306zM272 592q-11 0 -18.5 7.5t-7.5 18.5t7.5 19t18.5 8t19 -8t8 -19t-8 -18.5t-19 -7.5z" />
    <glyph glyph-name="Zcaron" unicode="&#x17d;" horiz-adv-x="501" 
d="M5 0v24l451 570q15 19 55 66q-16 -1 -64 -1h-283l10 27h369v-27l-455 -575q-13 -16 -48 -58q15 1 62 1h296l-9 -27h-384zM502 852l10 -20l-162 -105l-127 108l14 19l117 -90z" />
    <glyph glyph-name="zcaron" unicode="&#x17e;" horiz-adv-x="385" 
d="M-30 0v24l390 450h-270v24h306v-26l-389 -448h283l-14 -24h-306zM405 692l10 -20l-162 -105l-127 108l14 19l117 -90z" />
    <glyph glyph-name="longs" unicode="&#x17f;" horiz-adv-x="241" 
d="M54 0l100 475h-48l5 23h48l23 108q26 118 129 118q45 0 76 -22l-12 -23q-30 21 -66 21t-61 -25t-35 -70l-127 -605q-18 -84 -34 -122t-48 -77l-25 15q32 40 45.5 74t29.5 110z" />
    <glyph glyph-name="uni018F" unicode="&#x18f;" horiz-adv-x="631" 
d="M567 455q0 103 -45.5 157.5t-151.5 54.5q-104 0 -191 -61l-14 21q99 66 219 66q108 0 161.5 -63t53.5 -173q0 -80 -23.5 -161.5t-66 -149.5t-110.5 -111t-148 -43q-79 0 -130 43.5t-51 116.5q0 51 19 90.5t49.5 63.5t73.5 39t86.5 20.5t93.5 5.5q58 0 166 -6q9 43 9 90z
M392 344q-291 0 -291 -191q0 -63 43.5 -99t113.5 -36q108 0 185 87.5t110 232.5q-84 6 -161 6z" />
    <glyph glyph-name="florin" unicode="&#x192;" horiz-adv-x="207" 
d="M-38 -165l-11 22q55 32 76 70.5t38 120.5l78 386h-48l3 23h50l22 107q15 72 50.5 110t100.5 38q39 0 63 -16l-13 -21q-25 14 -52 14q-93 0 -119 -126l-22 -106h121l-14 -23h-112l-77 -379q-21 -102 -46.5 -143t-87.5 -77z" />
    <glyph glyph-name="uni01B5" unicode="&#x1b5;" horiz-adv-x="501" 
d="M136 351l5 22h140l175 221q15 19 55 66q-16 -1 -64 -1h-283l10 27h369v-27l-227 -286h125l-5 -22h-137l-211 -267q-13 -16 -48 -58q15 1 62 1h296l-9 -27h-384v24l258 327h-127z" />
    <glyph glyph-name="uni01B6" unicode="&#x1b6;" horiz-adv-x="385" 
d="M60 238l5 22h109l186 214h-270v24h306v-26l-184 -212h113l-5 -22h-127l-186 -214h283l-14 -24h-306v24l185 214h-95z" />
    <glyph glyph-name="uni01C4" unicode="&#x1c4;" horiz-adv-x="1084" 
d="M41 0l145 686h107q59 0 102.5 -9.5t81.5 -33.5t58 -72t20 -119q0 -91 -21.5 -170t-65.5 -143.5t-119 -101.5t-173 -37h-135zM76 26h105q86 0 152.5 33.5t107 92.5t61 134t20.5 163q0 120 -57 165t-166 45h-88zM588 0v24l451 570q15 19 55 66q-16 -1 -64 -1h-283l10 27
h369v-27l-455 -575q-13 -16 -48 -58q15 1 62 1h296l-9 -27h-384zM1085 852l10 -20l-162 -105l-127 108l14 19l117 -90z" />
    <glyph glyph-name="uni01C5" unicode="&#x1c5;" horiz-adv-x="968" 
d="M41 0l145 686h107q59 0 102.5 -9.5t81.5 -33.5t58 -72t20 -119q0 -91 -21.5 -170t-65.5 -143.5t-119 -101.5t-173 -37h-135zM76 26h105q86 0 152.5 33.5t107 92.5t61 134t20.5 163q0 120 -57 165t-166 45h-88zM553 0v24l390 450h-270v24h306v-26l-389 -448h283l-14 -24
h-306zM988 692l10 -20l-162 -105l-127 108l14 19l117 -90z" />
    <glyph glyph-name="uni01C6" unicode="&#x1c6;" horiz-adv-x="901" 
d="M372 119q-31 -59 -78.5 -92.5t-97.5 -33.5q-142 0 -142 167q0 140 77 242.5t186 102.5q72 0 127 -40l56 265l28 -5l-124 -586q-9 -42 -9 -66q0 -34 24 -62l-24 -18q-28 33 -28 80q0 25 5 46zM202 19q104 0 180 152l56 268q-49 41 -123 41q-94 0 -161.5 -95t-67.5 -224
q0 -142 116 -142zM486 0v24l390 450h-270v24h306v-26l-389 -448h283l-14 -24h-306zM921 692l10 -20l-162 -105l-127 108l14 19l117 -90z" />
    <glyph glyph-name="uni01C7" unicode="&#x1c7;" horiz-adv-x="646" 
d="M41 0l145 686h30l-140 -660h291l-10 -26h-316zM351 -123l-12 21q77 28 110 71q16 21 27.5 57t29.5 120l115 540h31l-121 -571q-15 -70 -25.5 -102t-31.5 -58q-41 -51 -123 -78z" />
    <glyph glyph-name="uni01C8" unicode="&#x1c8;" horiz-adv-x="611" 
d="M41 0l145 686h30l-140 -660h291l-10 -26h-316zM358 -171l-11 20q51 22 72.5 56t37.5 109l103 485l32 6l-105 -493q-16 -77 -41 -117t-88 -66zM603 632q-11 0 -18.5 7.5t-7.5 18.5t7.5 19t18.5 8t19 -8t8 -19t-8 -18.5t-19 -7.5z" />
    <glyph glyph-name="uni01C9" unicode="&#x1c9;" horiz-adv-x="416" 
d="M195 587l-105 -492q-8 -36 -8 -52q0 -25 26 -25q10 0 22 4l2 -22q-18 -6 -35 -6q-45 0 -45 44q0 19 8 57l106 495q13 64 13 98q0 12 -4 32l30 10q4 -22 4 -40q0 -34 -14 -103zM163 -171l-11 20q51 22 72.5 56t37.5 109l103 485l32 6l-105 -493q-16 -77 -41 -117t-88 -66z
M408 632q-11 0 -18.5 7.5t-7.5 18.5t7.5 19t18.5 8t19 -8t8 -19t-8 -18.5t-19 -7.5z" />
    <glyph glyph-name="uni01CA" unicode="&#x1ca;" horiz-adv-x="826" 
d="M41 0l145 686h37l176 -540l35 -111q0 11 27 139l107 512h30l-145 -686h-34l-178 534q-23 69 -35 117l-135 -651h-30zM531 -123l-12 21q77 28 110 71q16 21 27.5 57t29.5 120l115 540h31l-121 -571q-15 -70 -25.5 -102t-31.5 -58q-41 -51 -123 -78z" />
    <glyph glyph-name="uni01CB" unicode="&#x1cb;" horiz-adv-x="791" 
d="M41 0l145 686h37l176 -540l35 -111q0 11 27 139l107 512h30l-145 -686h-34l-178 534q-23 69 -35 117l-135 -651h-30zM538 -171l-11 20q51 22 72.5 56t37.5 109l103 485l32 6l-105 -493q-16 -77 -41 -117t-88 -66zM783 632q-11 0 -18.5 7.5t-7.5 18.5t7.5 19t18.5 8t19 -8
t8 -19t-8 -18.5t-19 -7.5z" />
    <glyph glyph-name="uni01CC" unicode="&#x1cc;" horiz-adv-x="698" 
d="M70 0h-30l80 379q13 61 13 79t-5 33l29 12q6 -18 6 -38q0 -21 -9 -65l-7 -31q99 136 198 136q47 0 72 -25.5t25 -68.5q0 -10 -6 -44l-77 -367h-30l76 360q7 33 7 49q0 70 -76 70q-86 0 -198 -152zM445 -171l-11 20q51 22 72.5 56t37.5 109l103 485l32 6l-105 -493
q-16 -77 -41 -117t-88 -66zM690 632q-11 0 -18.5 7.5t-7.5 18.5t7.5 19t18.5 8t19 -8t8 -19t-8 -18.5t-19 -7.5z" />
    <glyph glyph-name="uni01F1" unicode="&#x1f1;" horiz-adv-x="1084" 
d="M41 0l145 686h107q59 0 102.5 -9.5t81.5 -33.5t58 -72t20 -119q0 -91 -21.5 -170t-65.5 -143.5t-119 -101.5t-173 -37h-135zM76 26h105q86 0 152.5 33.5t107 92.5t61 134t20.5 163q0 120 -57 165t-166 45h-88zM588 0v24l451 570q15 19 55 66q-16 -1 -64 -1h-283l10 27
h369v-27l-455 -575q-13 -16 -48 -58q15 1 62 1h296l-9 -27h-384z" />
    <glyph glyph-name="uni01F2" unicode="&#x1f2;" horiz-adv-x="968" 
d="M41 0l145 686h107q59 0 102.5 -9.5t81.5 -33.5t58 -72t20 -119q0 -91 -21.5 -170t-65.5 -143.5t-119 -101.5t-173 -37h-135zM76 26h105q86 0 152.5 33.5t107 92.5t61 134t20.5 163q0 120 -57 165t-166 45h-88zM553 0v24l390 450h-270v24h306v-26l-389 -448h283l-14 -24
h-306z" />
    <glyph glyph-name="uni01F3" unicode="&#x1f3;" horiz-adv-x="901" 
d="M372 119q-31 -59 -78.5 -92.5t-97.5 -33.5q-142 0 -142 167q0 140 77 242.5t186 102.5q72 0 127 -40l56 265l28 -5l-124 -586q-9 -42 -9 -66q0 -34 24 -62l-24 -18q-28 33 -28 80q0 25 5 46zM202 19q104 0 180 152l56 268q-49 41 -123 41q-94 0 -161.5 -95t-67.5 -224
q0 -142 116 -142zM486 0v24l390 450h-270v24h306v-26l-389 -448h283l-14 -24h-306z" />
    <glyph glyph-name="Aringacute" unicode="&#x1fa;" 
d="M403 0l-27 234h-276l-125 -234h-34l372 686h40l82 -686h-32zM277 563l-163 -303h259l-45 402q-33 -66 -51 -99zM348 730q-35 0 -57.5 24t-22.5 58q0 33 22 56.5t56 23.5q35 0 57.5 -23.5t22.5 -56.5q0 -34 -22.5 -58t-55.5 -24zM348 750q25 0 42 18t17 44q0 25 -17.5 43
t-43.5 18q-25 0 -41.5 -18t-16.5 -43q0 -26 17 -44t43 -18zM458 994l-176 -102l-11 20l169 110z" />
    <glyph glyph-name="aringacute" unicode="&#x1fb;" 
d="M322 504q65 0 116 -36q-13 -52 -19 -80l-52 -249q-9 -42 -9 -66q0 -34 24 -62l-23 -18q-30 32 -30 81q0 19 4 39q-64 -120 -165 -120q-65 0 -95.5 42t-30.5 113q0 152 83.5 254t196.5 102zM343 167l61 289q-37 23 -86 23q-97 0 -171 -95.5t-74 -237.5q0 -128 102 -128
q96 0 168 149zM346 570q-35 0 -57.5 24t-22.5 58q0 33 22 56.5t56 23.5q35 0 57.5 -23.5t22.5 -56.5q0 -34 -22.5 -58t-55.5 -24zM346 590q25 0 42 18t17 44q0 25 -17.5 43t-43.5 18q-25 0 -41.5 -18t-16.5 -43q0 -26 17 -44t43 -18zM460 834l-176 -102l-11 20l169 110z" />
    <glyph glyph-name="AEacute" unicode="&#x1fc;" horiz-adv-x="777" 
d="M351 0l49 234h-248l-185 -234h-37l547 686h358l-11 -27h-303l-61 -288h244l-6 -27h-243l-67 -317h319q-1 -13 -5 -27h-351zM173 260h233l84 399zM695 832l-176 -102l-11 20l169 110z" />
    <glyph glyph-name="aeacute" unicode="&#x1fd;" horiz-adv-x="748" 
d="M320 506q47 0 72.5 -25.5t25.5 -73.5q0 -9 -2 -25q66 124 182 124q52 0 87 -29t35 -79q0 -158 -236 -158q-47 0 -91 4q-7 -36 -7 -76q0 -67 32 -108.5t99 -41.5q76 0 140 53l14 -20q-68 -59 -160 -59q-71 0 -107.5 45t-41.5 121q-47 -166 -187 -166q-70 0 -101.5 33
t-31.5 80q0 52 22.5 87.5t61 52.5t76.5 24t83 7q42 0 84 -5q26 111 26 135q0 75 -81 75q-87 0 -179 -62l-11 22q101 65 196 65zM180 14q76 0 119.5 61.5t64.5 172.5q-37 5 -77 5q-213 0 -213 -143q0 -40 26 -68t80 -28zM592 481q-71 0 -123 -62.5t-72 -150.5q50 -4 87 -4
q207 0 207 133q0 40 -27.5 62t-71.5 22zM556 672l-176 -102l-11 20l169 110z" />
    <glyph glyph-name="Oslashacute" unicode="&#x1fe;" horiz-adv-x="624" 
d="M260 -8q-97 0 -144 62l-92 -114l-18 13l98 120q-31 54 -31 144q0 80 19 159.5t57 152.5t105.5 118.5t153.5 45.5q98 0 146 -66l100 123l19 -13l-106 -131q29 -54 29 -139q0 -62 -11.5 -126t-37.5 -127t-63.5 -112t-95.5 -79.5t-128 -30.5zM105 211q0 -70 19 -113l410 505
q-40 65 -132 65q-62 0 -114 -32t-85 -82t-56 -112.5t-32.5 -120.5t-9.5 -110zM266 15q77 0 137.5 47.5t94 120.5t50 147.5t16.5 141.5q0 65 -18 109l-411 -504q39 -62 131 -62zM529 832l-176 -102l-11 20l169 110z" />
    <glyph glyph-name="oslashacute" unicode="&#x1ff;" horiz-adv-x="493" 
d="M196 -9q-69 0 -107 41l-62 -77l-17 14l65 81q-28 43 -28 116q0 56 15.5 113.5t45 109.5t81 85t116.5 33q67 0 107 -43l75 93l18 -14l-79 -98q27 -44 27 -112q0 -46 -9.5 -92.5t-30 -91.5t-50 -80t-73 -56.5t-94.5 -21.5zM78 159q0 -54 17 -85l298 367q-32 40 -95 40
q-54 0 -98 -30.5t-69.5 -79t-39 -103.5t-13.5 -109zM202 16q55 0 99 31.5t69 80.5t38 103.5t13 106.5q0 50 -15 83l-299 -367q31 -38 95 -38zM480 672l-176 -102l-11 20l169 110z" />
    <glyph glyph-name="Scommaaccent" unicode="&#x218;" horiz-adv-x="514" 
d="M503 621q-64 48 -148 48q-79 0 -136.5 -43.5t-57.5 -121.5q0 -42 23 -68.5t76 -48.5l64 -28q120 -52 120 -147q0 -102 -75 -161.5t-182 -59.5q-100 0 -176 54l16 25q65 -53 166 -53q86 0 152 52t66 138q0 47 -27 76t-81 52l-61 27q-114 48 -114 136q0 96 68 146.5
t164 50.5q95 0 160 -52zM155 -177l-13 17q49 40 50 76q-4 -1 -7 -1q-10 0 -17.5 8t-7.5 19q0 13 8.5 21.5t20.5 8.5q34 0 34 -45q0 -59 -68 -104z" />
    <glyph glyph-name="scommaaccent" unicode="&#x219;" horiz-adv-x="423" 
d="M148 -9q-86 0 -149 45l14 22q63 -43 142 -43q65 0 112 32t47 93q0 38 -17 58.5t-67 41.5l-55 23q-46 19 -69 44t-23 63q0 68 51 103t129 35q70 0 129 -39l-13 -22q-53 36 -119 36q-61 0 -103.5 -26t-42.5 -81q0 -32 16.5 -50t58.5 -36l56 -24q58 -24 80 -51.5t22 -68.5
q0 -74 -54.5 -114.5t-144.5 -40.5zM121 -177l-13 17q49 40 50 76h-2q-3 -1 -5 -1q-10 0 -17.5 8t-7.5 19q0 13 8.5 21.5t20.5 8.5q34 0 34 -45q0 -59 -68 -104z" />
    <glyph glyph-name="uni021A" unicode="&#x21a;" horiz-adv-x="419" 
d="M158 0l140 659h-196l5 27h427l-8 -27h-198l-140 -659h-30zM131 -177l-13 17q49 40 50 76q-4 -1 -7 -1q-10 0 -17.5 8t-7.5 19q0 13 8.5 21.5t20.5 8.5q34 0 34 -45q0 -59 -68 -104z" />
    <glyph glyph-name="uni021B" unicode="&#x21b;" horiz-adv-x="260" 
d="M148 -10q-75 0 -75 73q0 31 9 71l73 341h-65l5 23h65q16 79 37 130l32 7q-20 -46 -39 -137h121l-14 -23h-113l-71 -337q-10 -48 -10 -72q0 -28 11 -39.5t40 -11.5q31 0 60 13v-24q-31 -14 -66 -14zM93 -177l-13 17q49 40 50 76h-2q-3 -1 -5 -1q-10 0 -17.5 8t-7.5 19
q0 13 8.5 21.5t20.5 8.5q34 0 34 -45q0 -59 -68 -104z" />
    <glyph glyph-name="uni0237" unicode="&#x237;" horiz-adv-x="198" 
d="M-55 -171l-11 20q51 22 72.5 56t37.5 109l103 485l32 6l-105 -493q-16 -77 -41 -117t-88 -66z" />
    <glyph glyph-name="uni0259" unicode="&#x259;" horiz-adv-x="450" 
d="M265 258q45 0 91 -4q7 36 7 76q0 67 -32.5 109t-98.5 42q-75 0 -140 -54l-14 20q68 59 160 59q75 0 116 -49t41 -130q0 -78 -26.5 -152.5t-84 -128.5t-133.5 -54q-52 0 -87.5 29t-35.5 79q0 158 237 158zM157 17q71 0 122 62t72 152q-36 3 -87 3q-206 0 -206 -133
q0 -40 27.5 -62t71.5 -22z" />
    <glyph glyph-name="uni02BB" unicode="&#x2bb;" horiz-adv-x="162" 
d="M191 696l13 -17q-49 -40 -50 -76l2 1h5q10 0 17.5 -8t7.5 -19q0 -13 -8.5 -21.5t-20.5 -8.5q-34 0 -34 45q0 59 68 104z" />
    <glyph glyph-name="afii57929" unicode="&#x2bc;" horiz-adv-x="162" 
d="M136 547l-13 17q49 40 50 76h-3q-2 -1 -4 -1q-10 0 -17.5 8t-7.5 19q0 13 8.5 21.5t20.5 8.5q34 0 34 -45q0 -59 -68 -104z" />
    <glyph glyph-name="circumflex" unicode="&#x2c6;" horiz-adv-x="330" 
d="M110 581l-11 20l162 105l128 -109l-15 -17l-116 89z" />
    <glyph glyph-name="caron" unicode="&#x2c7;" horiz-adv-x="331" 
d="M398 692l10 -20l-162 -105l-127 108l14 19l117 -90z" />
    <glyph glyph-name="breve" unicode="&#x2d8;" horiz-adv-x="323" 
d="M239 578q-74 0 -122 90l15 16q48 -73 114 -73q38 0 76.5 23t65.5 51l11 -18q-86 -89 -160 -89z" />
    <glyph glyph-name="dotaccent" unicode="&#x2d9;" horiz-adv-x="99" 
d="M138 592q-11 0 -18.5 7.5t-7.5 18.5t7.5 19t18.5 8t19 -8t8 -19t-8 -18.5t-19 -7.5z" />
    <glyph glyph-name="ring" unicode="&#x2da;" horiz-adv-x="204" 
d="M193 570q-35 0 -57.5 24t-22.5 58q0 33 22 56.5t56 23.5q35 0 57.5 -23.5t22.5 -56.5q0 -34 -22.5 -58t-55.5 -24zM193 590q25 0 42 18t17 44q0 25 -17.5 43t-43.5 18q-25 0 -41.5 -18t-16.5 -43q0 -26 17 -44t43 -18z" />
    <glyph glyph-name="ogonek" unicode="&#x2db;" horiz-adv-x="216" 
d="M26 -197q-34 0 -52.5 17.5t-18.5 45.5q0 72 106 143l17 -12q-97 -65 -97 -126q0 -45 51 -45q28 0 60 15l5 -19q-32 -19 -71 -19z" />
    <glyph glyph-name="tilde" unicode="&#x2dc;" horiz-adv-x="330" 
d="M198 625q-37 0 -66 -29l-8 17q39 39 86 39q28 0 59.5 -18t55.5 -18q37 0 66 29l8 -17q-35 -39 -85 -39q-27 0 -58.5 18t-57.5 18z" />
    <glyph glyph-name="hungarumlaut" unicode="&#x2dd;" horiz-adv-x="306" 
d="M221 558l-17 13l152 148l26 -19zM103 556l-18 11l136 153l29 -15z" />
    <glyph glyph-name="gravecomb" unicode="&#x300;" horiz-adv-x="1" 
d="M-112 570l-174 102l17 28l169 -109z" />
    <glyph glyph-name="acutecomb" unicode="&#x301;" horiz-adv-x="1" 
d="M-37 672l-176 -102l-11 20l169 110z" />
    <glyph glyph-name="uni0302" unicode="&#x302;" horiz-adv-x="1" 
d="M-309 581l-11 20l162 105l128 -109l-15 -17l-116 89z" />
    <glyph glyph-name="tildecomb" unicode="&#x303;" horiz-adv-x="1" 
d="M-224 625q-37 0 -66 -29l-8 17q39 39 86 39q28 0 59.5 -18t55.5 -18q37 0 66 29l8 -17q-35 -39 -85 -39q-27 0 -58.5 18t-57.5 18z" />
    <glyph glyph-name="uni0304" unicode="&#x304;" horiz-adv-x="1" 
d="M-178 607l5 22h260l-5 -22h-260z" />
    <glyph glyph-name="uni0306" unicode="&#x306;" horiz-adv-x="1" 
d="M-83 567q-74 0 -122 90l15 16q48 -73 114 -73q38 0 76.5 23t65.5 51l11 -18q-86 -89 -160 -89z" />
    <glyph glyph-name="uni0307" unicode="&#x307;" horiz-adv-x="1" 
d="M-9 592q-11 0 -18.5 7.5t-7.5 18.5t7.5 19t18.5 8t19 -8t8 -19t-8 -18.5t-19 -7.5z" />
    <glyph glyph-name="uni0308" unicode="&#x308;" horiz-adv-x="1" 
d="M9 590q-10 0 -17 7t-7 17t7 17t17 7t17 -7t7 -17t-7 -17t-17 -7zM-129 590q-10 0 -17 7t-7 17t7 17t17 7t17 -7t7 -17t-7 -17t-17 -7z" />
    <glyph glyph-name="uni030A" unicode="&#x30a;" horiz-adv-x="1" 
d="M-10 570q-35 0 -57.5 24t-22.5 58q0 33 22 56.5t56 23.5q35 0 57.5 -23.5t22.5 -56.5q0 -34 -22.5 -58t-55.5 -24zM-10 590q25 0 42 18t17 44q0 25 -17.5 43t-43.5 18q-25 0 -41.5 -18t-16.5 -43q0 -26 17 -44t43 -18z" />
    <glyph glyph-name="uni030B" unicode="&#x30b;" horiz-adv-x="1" 
d="M-84 572l-17 13l152 148l26 -19zM-202 570l-18 11l136 153l29 -15z" />
    <glyph glyph-name="uni030C" unicode="&#x30c;" horiz-adv-x="1" 
d="M1 692l10 -20l-162 -105l-127 108l14 19l117 -90z" />
    <glyph glyph-name="uni0312" unicode="&#x312;" horiz-adv-x="1" 
d="M-122 788l12 -18q-57 -37 -58 -82h2q3 1 5 1q10 0 17.5 -8t7.5 -19q0 -13 -8.5 -21.5t-20.5 -8.5q-34 0 -34 45q0 65 77 111z" />
    <glyph glyph-name="uni0313" unicode="&#x313;" horiz-adv-x="1" 
d="M-187 530l-12 18q57 37 58 82h-3q-2 -1 -4 -1q-10 0 -17.5 8t-7.5 19q0 13 8.5 21.5t20.5 8.5q34 0 34 -45q0 -65 -77 -111z" />
    <glyph glyph-name="uni0326" unicode="&#x326;" horiz-adv-x="1" 
d="M-170 -177l-13 17q49 40 50 76h-3q-2 -1 -4 -1q-10 0 -17.5 8t-7.5 19q0 13 8.5 21.5t20.5 8.5q34 0 34 -45q0 -59 -68 -104z" />
    <glyph glyph-name="uni0327" unicode="&#x327;" horiz-adv-x="1" 
d="M-209 -197q-42 0 -70 24l13 18q25 -19 60 -19q31 0 54 17.5t23 47.5q0 38 -50 38q-15 0 -34 -3l41 78l22 -2l-29 -57q9 1 17 1q28 0 44.5 -16t16.5 -36q0 -41 -30 -66t-78 -25z" />
    <glyph glyph-name="uni0328" unicode="&#x328;" horiz-adv-x="1" 
d="M-189 -197q-34 0 -52.5 17.5t-18.5 45.5q0 72 106 143l17 -12q-97 -65 -97 -126q0 -45 51 -45q28 0 60 15l5 -19q-32 -19 -71 -19z" />
    <glyph glyph-name="uni037E" unicode="&#x37e;" horiz-adv-x="225" 
d="M137 298q-11 0 -19.5 8.5t-8.5 20.5t8 20t20 8t20.5 -8t8.5 -20t-9 -20.5t-20 -8.5zM20 -106l-12 18q57 37 58 82q-3 -1 -7 -1q-10 0 -17.5 8t-7.5 19q0 13 8.5 21.5t20.5 8.5q34 0 34 -45q0 -65 -77 -111z" />
    <glyph glyph-name="tonos" unicode="&#x384;" 
d="M324 559h-28l66 153h29z" />
    <glyph glyph-name="dieresistonos" unicode="&#x385;" horiz-adv-x="290" 
d="M298 590q-10 0 -17 7t-7 17t7 17t17 7t17 -7t7 -17t-7 -17t-17 -7zM160 590q-10 0 -17 7t-7 17t7 17t17 7t17 -7t7 -17t-7 -17t-17 -7zM300 726l-83 -157l-19 9l71 159z" />
    <glyph glyph-name="Alphatonos" unicode="&#x386;" 
d="M172 686l-83 -157l-19 9l71 159zM403 0l-27 234h-276l-125 -234h-34l372 686h40l82 -686h-32zM277 563l-163 -303h259l-45 402q-33 -66 -51 -99z" />
    <glyph glyph-name="anoteleia" unicode="&#x387;" horiz-adv-x="163" 
d="M81 298q-11 0 -19.5 8.5t-8.5 20.5t8 20t20 8t20.5 -8t8.5 -20t-9 -20.5t-20 -8.5z" />
    <glyph glyph-name="Epsilontonos" unicode="&#x388;" horiz-adv-x="467" 
d="M84 686l-83 -157l-19 9l71 159zM41 0l145 686h338l-10 -27h-303l-61 -288h244l-6 -27h-244l-67 -317h321l-6 -27h-351z" />
    <glyph glyph-name="Etatonos" unicode="&#x389;" horiz-adv-x="581" 
d="M84 686l-83 -157l-19 9l71 159zM41 0l145 686h30l-65 -308h339l66 308h31l-145 -686h-31l74 352h-340l-74 -352h-30z" />
    <glyph glyph-name="Iotatonos" unicode="&#x38a;" horiz-adv-x="210" 
d="M83 686l-83 -157l-19 9l71 159zM41 0l145 686h30l-145 -686h-30z" />
    <glyph glyph-name="Omicrontonos" unicode="&#x38c;" horiz-adv-x="624" 
d="M84 686l-83 -157l-19 9l71 159zM266 15q77 0 137.5 47.5t94 120.5t50 147.5t16.5 141.5q0 196 -162 196q-62 0 -114 -32t-85 -82t-56 -112.5t-32.5 -120.5t-9.5 -110q0 -196 161 -196zM260 -8q-52 0 -90 18t-58.5 50.5t-29.5 71t-9 85.5q0 80 19 159.5t57 152.5
t105.5 118.5t153.5 45.5q52 0 90 -18.5t58.5 -51t30 -71t9.5 -85.5q0 -62 -11.5 -126t-37.5 -127t-63.5 -112t-95.5 -79.5t-128 -30.5z" />
    <glyph glyph-name="Upsilontonos" unicode="&#x38e;" horiz-adv-x="478" 
d="M14 686l-83 -157l-19 9l71 159zM173 0l57 272l-133 414h34l99 -318q1 -4 9 -30t11 -38q6 9 14.5 20.5t19.5 26.5t18 24l233 315h38l-311 -416l-57 -270h-32z" />
    <glyph glyph-name="Omegatonos" unicode="&#x38f;" horiz-adv-x="553" 
d="M64 686l-83 -157l-19 9l71 159zM269 0l2 27q70 20 120.5 71t76 117.5t36.5 128.5t11 122q0 201 -157 201q-48 0 -89.5 -19.5t-71.5 -53t-52 -72t-38 -83.5q-38 -108 -38 -220q0 -159 102 -194l-2 -25h-163l-1 27h110q-78 47 -78 192q0 131 51 257q38 95 106 155.5
t171 60.5q92 0 137 -63.5t45 -162.5q0 -57 -10 -116.5t-32 -124t-65.5 -118t-102.5 -80.5h105l-10 -27h-163z" />
    <glyph glyph-name="iotadieresistonos" unicode="&#x390;" horiz-adv-x="209" 
d="M54 93l86 407l32 5l-88 -412q-8 -36 -8 -52q0 -25 26 -25q10 0 22 4l2 -22q-18 -6 -35 -6q-45 0 -45 44q0 19 8 57zM262 590q-10 0 -17 7t-7 17t7 17t17 7t17 -7t7 -17t-7 -17t-17 -7zM124 590q-10 0 -17 7t-7 17t7 17t17 7t17 -7t7 -17t-7 -17t-17 -7zM264 726l-83 -157
l-19 9l71 159z" />
    <glyph glyph-name="Alpha" unicode="&#x391;" 
d="M403 0l-27 234h-276l-125 -234h-34l372 686h40l82 -686h-32zM277 563l-163 -303h259l-45 402q-33 -66 -51 -99z" />
    <glyph glyph-name="Beta" unicode="&#x392;" horiz-adv-x="533" 
d="M41 0l145 686h144q190 0 190 -133q0 -69 -46.5 -123t-133.5 -67q63 -7 103.5 -42.5t40.5 -95.5q0 -225 -294 -225h-149zM150 376h139q47 0 91 18t75.5 59t31.5 97q0 61 -39 85t-109 24h-129zM75 26h129q248 0 248 199q0 64 -50 94t-122 30h-135z" />
    <glyph glyph-name="Gamma" unicode="&#x393;" horiz-adv-x="362" 
d="M41 0l146 686h290l-8 -27h-258l-140 -659h-30z" />
    <glyph glyph-name="uni0394" unicode="&#x394;" 
d="M-59 0l372 686h40l82 -686h-494zM328 662l-339 -636h411z" />
    <glyph glyph-name="Epsilon" unicode="&#x395;" horiz-adv-x="467" 
d="M41 0l145 686h338l-10 -27h-303l-61 -288h244l-6 -27h-244l-67 -317h321l-6 -27h-351z" />
    <glyph glyph-name="Zeta" unicode="&#x396;" horiz-adv-x="501" 
d="M5 0v24l451 570q15 19 55 66q-16 -1 -64 -1h-283l10 27h369v-27l-455 -575q-13 -16 -48 -58q15 1 62 1h296l-9 -27h-384z" />
    <glyph glyph-name="Eta" unicode="&#x397;" horiz-adv-x="581" 
d="M41 0l145 686h30l-65 -308h339l66 308h31l-145 -686h-31l74 352h-340l-74 -352h-30z" />
    <glyph glyph-name="Theta" unicode="&#x398;" horiz-adv-x="624" 
d="M182 352l6 26h319l-5 -26h-320zM266 15q77 0 137.5 47.5t94 120.5t50 147.5t16.5 141.5q0 196 -162 196q-62 0 -114 -32t-85 -82t-56 -112.5t-32.5 -120.5t-9.5 -110q0 -196 161 -196zM260 -8q-52 0 -90 18t-58.5 50.5t-29.5 71t-9 85.5q0 80 19 159.5t57 152.5
t105.5 118.5t153.5 45.5q52 0 90 -18.5t58.5 -51t30 -71t9.5 -85.5q0 -62 -11.5 -126t-37.5 -127t-63.5 -112t-95.5 -79.5t-128 -30.5z" />
    <glyph glyph-name="Iota" unicode="&#x399;" horiz-adv-x="210" 
d="M41 0l145 686h30l-145 -686h-30z" />
    <glyph glyph-name="Kappa" unicode="&#x39a;" horiz-adv-x="481" 
d="M413 7l-29 -13q-122 198 -224 368l368 332l22 -19l-354 -315zM41 0l145 686h31l-145 -686h-31z" />
    <glyph glyph-name="Lambda" unicode="&#x39b;" 
d="M403 0l-73 662l-355 -662h-34l372 686h40l82 -686h-32z" />
    <glyph glyph-name="Mu" unicode="&#x39c;" horiz-adv-x="730" 
d="M21 0l205 686h44l47 -534q8 -86 8 -111q11 30 51 108l275 537h45l-83 -686h-30l68 562q11 81 13 95q-26 -54 -40 -81l-294 -576h-28l-50 557q-7 77 -7 100l-193 -657h-31z" />
    <glyph glyph-name="Nu" unicode="&#x39d;" horiz-adv-x="593" 
d="M41 0l145 686h37l176 -540l35 -111q0 11 27 139l107 512h30l-145 -686h-34l-178 534q-23 69 -35 117l-135 -651h-30z" />
    <glyph glyph-name="Xi" unicode="&#x39e;" horiz-adv-x="501" 
d="M129 352l6 26h299l-7 -26h-298zM5 0l8 27h385l-9 -27h-384zM537 659h-373l10 27h369z" />
    <glyph glyph-name="Omicron" unicode="&#x39f;" horiz-adv-x="624" 
d="M266 15q77 0 137.5 47.5t94 120.5t50 147.5t16.5 141.5q0 196 -162 196q-62 0 -114 -32t-85 -82t-56 -112.5t-32.5 -120.5t-9.5 -110q0 -196 161 -196zM260 -8q-52 0 -90 18t-58.5 50.5t-29.5 71t-9 85.5q0 80 19 159.5t57 152.5t105.5 118.5t153.5 45.5q52 0 90 -18.5
t58.5 -51t30 -71t9.5 -85.5q0 -62 -11.5 -126t-37.5 -127t-63.5 -112t-95.5 -79.5t-128 -30.5z" />
    <glyph glyph-name="Pi" unicode="&#x3a0;" horiz-adv-x="581" 
d="M411 0l139 659h-340l-139 -659h-30l145 686h401l-145 -686h-31z" />
    <glyph glyph-name="Rho" unicode="&#x3a1;" horiz-adv-x="502" 
d="M41 0l145 686h136q89 0 146.5 -36.5t57.5 -120.5q0 -121 -73.5 -179t-183.5 -58h-137l-61 -292h-30zM138 318h135q93 0 156.5 51t63.5 155q0 78 -47 106.5t-130 28.5h-106z" />
    <glyph glyph-name="Sigma" unicode="&#x3a3;" horiz-adv-x="501" 
d="M535 659h-339l163 -317l-312 -316q7 1 35 1h316l-9 -27h-384v23l319 323l-160 313v27h379z" />
    <glyph glyph-name="Tau" unicode="&#x3a4;" horiz-adv-x="419" 
d="M158 0l140 659h-196l5 27h427l-8 -27h-198l-140 -659h-30z" />
    <glyph glyph-name="Upsilon" unicode="&#x3a5;" horiz-adv-x="478" 
d="M173 0l57 272l-133 414h34l99 -318q1 -4 9 -30t11 -38q6 9 14.5 20.5t19.5 26.5t18 24l233 315h38l-311 -416l-57 -270h-32z" />
    <glyph glyph-name="Phi" unicode="&#x3a6;" horiz-adv-x="656" 
d="M429 638l-122 -577q76 4 133.5 37t90.5 85.5t49 113.5t16 130q0 195 -167 211zM302 38l-8 -38h-30l8 39q-98 14 -148.5 76t-50.5 164q0 107 37 193.5t114 139.5t181 52l11 57h30l-12 -58q102 -10 148 -73t46 -161q0 -57 -11 -111.5t-36.5 -106t-62.5 -89.5t-92.5 -61
t-123.5 -23zM277 63l122 576q-142 -3 -218 -108t-76 -252q0 -104 47.5 -155.5t124.5 -60.5z" />
    <glyph glyph-name="Chi" unicode="&#x3a7;" horiz-adv-x="415" 
d="M505 686l-246 -317l147 -369h-36l-134 344l-263 -344h-38l286 372l-123 314h36l111 -288l222 288h38z" />
    <glyph glyph-name="Psi" unicode="&#x3a8;" horiz-adv-x="552" 
d="M382 686l-91 -427q85 3 140 45.5t77 148.5l49 233h30l-51 -240q-42 -204 -250 -210l-50 -236h-30l50 236q-171 12 -171 152q0 32 7 63l49 235h30l-51 -242q-6 -26 -6 -54q0 -124 147 -131l91 427h30z" />
    <glyph glyph-name="uni03A9" unicode="&#x3a9;" horiz-adv-x="553" 
d="M269 0l2 27q70 20 120.5 71t76 117.5t36.5 128.5t11 122q0 201 -157 201q-48 0 -89.5 -19.5t-71.5 -53t-52 -72t-38 -83.5q-38 -108 -38 -220q0 -159 102 -194l-2 -25h-163l-1 27h110q-78 47 -78 192q0 131 51 257q38 95 106 155.5t171 60.5q92 0 137 -63.5t45 -162.5
q0 -57 -10 -116.5t-32 -124t-65.5 -118t-102.5 -80.5h105l-10 -27h-163z" />
    <glyph glyph-name="Iotadieresis" unicode="&#x3aa;" horiz-adv-x="210" 
d="M41 0l145 686h30l-145 -686h-30zM276 750q-10 0 -17 7t-7 17t7 17t17 7t17 -7t7 -17t-7 -17t-17 -7zM138 750q-10 0 -17 7t-7 17t7 17t17 7t17 -7t7 -17t-7 -17t-17 -7z" />
    <glyph glyph-name="Upsilondieresis" unicode="&#x3ab;" horiz-adv-x="478" 
d="M173 0l57 272l-133 414h34l99 -318q1 -4 9 -30t11 -38q6 9 14.5 20.5t19.5 26.5t18 24l233 315h38l-311 -416l-57 -270h-32zM411 750q-10 0 -17 7t-7 17t7 17t17 7t17 -7t7 -17t-7 -17t-17 -7zM273 750q-10 0 -17 7t-7 17t7 17t17 7t17 -7t7 -17t-7 -17t-17 -7z" />
    <glyph glyph-name="alphatonos" unicode="&#x3ac;" 
d="M334 113q-64 -121 -166 -121q-65 0 -95.5 42.5t-30.5 113.5q0 152 83.5 254.5t196.5 102.5q64 0 116 -37q-13 -52 -19 -80l-60 -296q-7 -31 -7 -51q0 -25 26 -25q10 0 22 4l2 -22q-18 -6 -35 -6q-45 0 -45 44q0 23 7 56zM344 167l60 289q-38 24 -86 24q-96 0 -170.5 -96
t-74.5 -238q0 -129 102 -129q96 0 169 150zM324 559h-28l66 153h29z" />
    <glyph glyph-name="epsilontonos" unicode="&#x3ad;" horiz-adv-x="398" 
d="M125 351q0 -36 26.5 -60t80.5 -24h63l-14 -23h-51q-81 0 -122.5 -37.5t-41.5 -94.5q0 -43 32.5 -68.5t87.5 -25.5q32 0 71.5 11.5t68.5 33.5l12 -22q-65 -49 -154 -49q-64 0 -107 31.5t-43 88.5q0 53 31.5 92.5t87.5 55.5q-60 26 -60 91q0 75 50.5 114.5t118.5 39.5
q89 0 133 -59l-18 -17q-42 50 -116 50q-55 0 -95.5 -33t-40.5 -95zM276 559h-28l66 153h29z" />
    <glyph glyph-name="etatonos" unicode="&#x3ae;" horiz-adv-x="492" 
d="M345 93l57 267q7 33 7 49q0 70 -76 70q-86 0 -198 -152l-68 -327h-30l80 379q13 61 13 79t-5 33l29 12q6 -18 6 -38q0 -21 -9 -65l-7 -31q99 136 198 136q47 0 72 -25.5t25 -68.5q0 -19 -6 -44l-58 -274q-8 -36 -8 -52q0 -25 26 -25q10 0 22 4l2 -22q-18 -6 -35 -6
q-45 0 -45 44q0 19 8 57zM325 559h-28l66 153h29z" />
    <glyph glyph-name="iotatonos" unicode="&#x3af;" horiz-adv-x="209" 
d="M54 93l86 407l32 5l-88 -412q-8 -36 -8 -52q0 -25 26 -25q10 0 22 4l2 -22q-18 -6 -35 -6q-45 0 -45 44q0 19 8 57zM176 559h-28l66 153h29z" />
    <glyph glyph-name="upsilondieresistonos" unicode="&#x3b0;" horiz-adv-x="452" 
d="M135 385l-41 -194q-10 -46 -10 -87q0 -86 91 -86q82 0 134 71q79 108 79 354q0 35 -4 55h29q3 -24 3 -53q0 -269 -91 -381q-30 -36 -65 -54t-91 -18q-53 0 -84.5 28t-31.5 83q0 38 9 78l45 212q10 46 10 70q0 15 -5 28l29 12q6 -16 6 -32q0 -31 -12 -86zM351 590
q-10 0 -17 7t-7 17t7 17t17 7t17 -7t7 -17t-7 -17t-17 -7zM213 590q-10 0 -17 7t-7 17t7 17t17 7t17 -7t7 -17t-7 -17t-17 -7zM353 726l-83 -157l-19 9l71 159z" />
    <glyph glyph-name="alpha" unicode="&#x3b1;" 
d="M334 113q-64 -121 -166 -121q-65 0 -95.5 42.5t-30.5 113.5q0 152 83.5 254.5t196.5 102.5q64 0 116 -37q-13 -52 -19 -80l-60 -296q-7 -31 -7 -51q0 -25 26 -25q10 0 22 4l2 -22q-18 -6 -35 -6q-45 0 -45 44q0 23 7 56zM344 167l60 289q-38 24 -86 24q-96 0 -170.5 -96
t-74.5 -238q0 -129 102 -129q96 0 169 150z" />
    <glyph glyph-name="beta" unicode="&#x3b2;" horiz-adv-x="496" 
d="M81 35l-50 -232l-31 -6l153 717q45 210 189 210q59 0 95 -34t36 -91q0 -82 -42 -131t-96 -71q52 -13 80.5 -53t28.5 -94q0 -62 -27.5 -120t-83.5 -98t-127 -40q-69 0 -125 43zM181 513l-94 -451q51 -44 121 -44q63 0 111 36.5t70.5 88.5t22.5 107q0 57 -31.5 92.5
t-98.5 35.5h-60l5 23h23q19 0 42 6t50 21t48.5 36.5t36 57t14.5 77.5q0 46 -26.5 72.5t-75.5 26.5q-65 0 -103 -53t-55 -132z" />
    <glyph glyph-name="gamma" unicode="&#x3b3;" horiz-adv-x="386" 
d="M99 -197l-30 -6q47 254 47 417q0 194 -61 280l28 10q30 -41 46 -118t16 -165q0 -84 -10 -181q79 97 140.5 218t86.5 240h33q-31 -130 -99.5 -261t-163.5 -235q-3 -16 -14.5 -89t-18.5 -110z" />
    <glyph glyph-name="delta" unicode="&#x3b4;" horiz-adv-x="492" 
d="M405 257q0 98 -109 193q-96 -32 -158.5 -111.5t-62.5 -176.5q0 -62 33.5 -103t100.5 -41q83 0 139.5 73t56.5 166zM314 473q37 -34 58 -57t43 -67.5t22 -91.5q0 -108 -67.5 -186.5t-162.5 -78.5q-80 0 -122 50t-42 120q0 106 68.5 186.5t167.5 116.5q-84 77 -84 136
q0 58 42.5 90.5t114.5 32.5q59 0 143 -35l-15 -23q-73 32 -131 32q-61 0 -91.5 -25.5t-30.5 -70.5q0 -29 19 -57t68 -72z" />
    <glyph glyph-name="epsilon" unicode="&#x3b5;" horiz-adv-x="398" 
d="M125 351q0 -36 26.5 -60t80.5 -24h63l-14 -23h-51q-81 0 -122.5 -37.5t-41.5 -94.5q0 -43 32.5 -68.5t87.5 -25.5q32 0 71.5 11.5t68.5 33.5l12 -22q-65 -49 -154 -49q-64 0 -107 31.5t-43 88.5q0 53 31.5 92.5t87.5 55.5q-60 26 -60 91q0 75 50.5 114.5t118.5 39.5
q89 0 133 -59l-18 -17q-42 50 -116 50q-55 0 -95.5 -33t-40.5 -95z" />
    <glyph glyph-name="zeta" unicode="&#x3b6;" horiz-adv-x="352" 
d="M204 715h245l-4 -24q-166 -119 -258 -231t-108 -234q-5 -35 -5 -58q0 -53 26.5 -73t110.5 -45q54 -16 54 -59q0 -68 -96 -129l-18 19q82 52 82 106q0 15 -9.5 24t-39.5 17q-78 21 -109.5 51t-31.5 96q0 22 5 55q21 123 107.5 233t250.5 228h-208z" />
    <glyph glyph-name="eta" unicode="&#x3b7;" horiz-adv-x="492" 
d="M345 93l57 267q7 33 7 49q0 70 -76 70q-86 0 -198 -152l-68 -327h-30l80 379q13 61 13 79t-5 33l29 12q6 -18 6 -38q0 -21 -9 -65l-7 -31q99 136 198 136q47 0 72 -25.5t25 -68.5q0 -19 -6 -44l-58 -274q-8 -36 -8 -52q0 -25 26 -25q10 0 22 4l2 -22q-18 -6 -35 -6
q-45 0 -45 44q0 19 8 57z" />
    <glyph glyph-name="theta" unicode="&#x3b8;" horiz-adv-x="455" 
d="M51 173q0 87 25 197q43 186 101 270t146 84q129 0 129 -178q0 -50 -29 -181q-41 -192 -99 -283t-151 -91q-58 0 -90 45t-32 137zM175 16q148 0 216 340h-285q-23 -95 -23 -190q0 -150 92 -150zM321 698q-42 0 -75 -21.5t-57.5 -66t-42.5 -99t-36 -132.5h285
q25 120 25 172q0 78 -23 112.5t-76 34.5z" />
    <glyph glyph-name="iota" unicode="&#x3b9;" horiz-adv-x="209" 
d="M54 93l86 407l32 5l-88 -412q-8 -36 -8 -52q0 -25 26 -25q10 0 22 4l2 -22q-18 -6 -35 -6q-45 0 -45 44q0 19 8 57z" />
    <glyph glyph-name="kappa" unicode="&#x3ba;" horiz-adv-x="390" 
d="M347 -8l-211 273l266 237l19 -17l-249 -222l202 -261zM142 359l-76 -359h-29l76 362q15 74 15 96t-5 32l29 12q7 -15 7 -40q0 -20 -17 -103z" />
    <glyph glyph-name="lambda" unicode="&#x3bb;" horiz-adv-x="439" 
d="M266 491l14 -7l-16 156q-6 58 -46 58q-23 0 -47 -18l-11 23q30 21 60 21q64 0 72 -78l58 -578q3 -30 8.5 -41t16.5 -11q13 0 32 7l1 -23q-18 -8 -35 -8q-24 0 -35.5 13.5t-15.5 52.5l-39 401h-2q-14 -36 -56 -113l-192 -354l-30 10l226 411q23 42 37 78z" />
    <glyph glyph-name="uni03BC" unicode="&#x3bc;" horiz-adv-x="492" 
d="M470 505l-84 -410q-7 -31 -7 -54q0 -25 26 -25q10 0 22 4l2 -22q-18 -6 -35 -6q-45 0 -45 44q0 36 12 76q-28 -53 -73.5 -86.5t-101.5 -33.5q-65 0 -102 52q-9 -41 -27 -123.5t-25 -117.5l-31 -6l149 703l29 5l-87 -422q32 -65 96 -65q63 0 119.5 57t66.5 101l67 324z
" />
    <glyph glyph-name="nu" unicode="&#x3bd;" horiz-adv-x="401" 
d="M140 -5h-22l-49 502l29 5l44 -466h2q80 97 146 220t92 242h28q-26 -126 -101.5 -262t-168.5 -241z" />
    <glyph glyph-name="xi" unicode="&#x3be;" horiz-adv-x="372" 
d="M436 691h-78q-87 0 -136 -52.5t-49 -120.5q0 -52 21.5 -74.5t66.5 -22.5h86l-7 -24h-76q-184 0 -184 -198q0 -69 30.5 -96.5t101.5 -46.5q39 -10 55.5 -24t16.5 -40q0 -68 -96 -130l-18 19q82 53 82 106q0 18 -10.5 25.5t-42.5 16.5q-26 8 -35 11t-30.5 11.5t-29.5 15
t-21.5 19.5t-19 28t-10 36.5t-4.5 48.5q0 83 40 141t109 74q-56 24 -56 104q0 54 30.5 102.5t91.5 70.5h-102l6 24h275z" />
    <glyph glyph-name="omicron" unicode="&#x3bf;" horiz-adv-x="493" 
d="M202 16q55 0 99 31.5t69 80.5t38 103.5t13 106.5q0 143 -123 143q-54 0 -98 -30.5t-69.5 -79t-39 -103.5t-13.5 -109q0 -143 124 -143zM196 -9q-77 0 -113 49t-36 126q0 56 15.5 113.5t45 109.5t81 85t116.5 33q77 0 112.5 -49t35.5 -125q0 -46 -9.5 -92.5t-30 -91.5
t-50 -80t-73 -56.5t-94.5 -21.5z" />
    <glyph glyph-name="pi" unicode="&#x3c0;" horiz-adv-x="489" 
d="M353 0h-28q25 232 79 475h-198q-37 -176 -119 -433q-8 -20 -19 -42h-33q19 28 29 59q75 236 113 416h-16q-63 0 -103 -21v25q34 19 108 19h374l-14 -23h-93q-63 -307 -80 -475z" />
    <glyph glyph-name="rho" unicode="&#x3c1;" horiz-adv-x="488" 
d="M31 -197l-31 -6l113 528q38 180 194 180q64 0 104.5 -41t40.5 -122q0 -87 -27.5 -165t-85.5 -131.5t-135 -53.5q-70 0 -123 43zM304 479q-53 0 -99 -35.5t-64 -119.5l-54 -262q49 -44 119 -44q67 0 117 49.5t73.5 121.5t23.5 151q0 71 -31.5 105t-84.5 34z" />
    <glyph glyph-name="sigma1" unicode="&#x3c2;" horiz-adv-x="391" 
d="M285 479q-58 0 -108.5 -49t-76.5 -114.5t-26 -124.5q0 -58 31 -85.5t106 -44.5q51 -12 68 -29t17 -43q0 -33 -28.5 -68.5t-67.5 -58.5l-18 19q36 20 59 50t23 58q0 29 -57 42q-85 19 -124.5 53.5t-39.5 111.5q0 63 29 133t87 123t127 53q66 0 112 -40l-14 -24
q-41 38 -99 38z" />
    <glyph glyph-name="sigma" unicode="&#x3c3;" horiz-adv-x="495" 
d="M506 475h-109q60 -53 60 -132q0 -57 -16 -116.5t-46.5 -113t-82.5 -87.5t-116 -34q-76 0 -112 47.5t-36 126.5q0 139 87 249q66 83 186 83h199zM368 475h-49q-102 0 -162 -78q-33 -40 -55 -103t-22 -128q0 -148 118 -148q67 0 120 49t80 122.5t27 153.5q0 82 -57 132z
" />
    <glyph glyph-name="tau" unicode="&#x3c4;" horiz-adv-x="349" 
d="M116 136l72 339h-50q-63 0 -103 -21v25q32 19 108 19h257l-14 -23h-169l-72 -335q-10 -48 -10 -72q0 -27 12 -39t41 -12q31 0 60 13v-24q-31 -14 -66 -14q-75 0 -75 73q0 31 9 71z" />
    <glyph glyph-name="upsilon" unicode="&#x3c5;" horiz-adv-x="452" 
d="M135 385l-41 -194q-10 -46 -10 -87q0 -86 91 -86q82 0 134 71q79 108 79 354q0 35 -4 55h29q3 -24 3 -53q0 -269 -91 -381q-30 -36 -65 -54t-91 -18q-53 0 -84.5 28t-31.5 83q0 38 9 78l45 212q10 46 10 70q0 15 -5 28l29 12q6 -16 6 -32q0 -31 -12 -86z" />
    <glyph glyph-name="phi" unicode="&#x3c6;" horiz-adv-x="564" 
d="M253 -5l-41 -192l-31 -6l42 198q-182 13 -182 165q0 96 47 193.5t125 154.5l14 -23q-67 -50 -111 -142t-44 -181q0 -132 157 -141l66 309q20 97 49.5 137t85.5 40q60 0 87.5 -50.5t27.5 -121.5q0 -131 -61 -227q-41 -63 -96.5 -88t-134.5 -25zM321 320l-62 -299
q148 4 205 112q49 94 49 200q0 23 -3 45t-11.5 47t-26.5 40.5t-44 15.5q-44 0 -66.5 -37.5t-40.5 -123.5z" />
    <glyph glyph-name="chi" unicode="&#x3c7;" horiz-adv-x="336" 
d="M387 498l-191 -225l128 -273h-34l-115 250l-214 -250h-37l238 276l-103 222h36l89 -200l167 200h36z" />
    <glyph glyph-name="psi" unicode="&#x3c8;" horiz-adv-x="554" 
d="M217 19l130 608h29l-129 -608q171 3 221 234q23 104 23 197q0 6 -0.5 13.5t-1.5 17t-1 15.5l26 8q4 -25 4 -56q0 -92 -23 -197q-30 -140 -94 -198.5t-159 -59.5l-41 -190l-31 -6l42 196q-159 6 -159 128q0 19 5 46l48 226q10 46 10 72q0 8 -5 26l29 12q6 -16 6 -33
q0 -28 -12 -85l-48 -224q-4 -16 -4 -39q0 -99 135 -103z" />
    <glyph glyph-name="omega" unicode="&#x3c9;" horiz-adv-x="564" 
d="M248 127l44 206h28l-37 -171q-10 -47 -10 -68q0 -39 14 -58t48 -19q47 0 82 42.5t52 105.5t24.5 117t7.5 96q0 57 -14 118l27 9q14 -56 14 -124q0 -35 -4.5 -79t-18 -100.5t-34 -101.5t-56.5 -76.5t-82 -31.5q-70 0 -83 68q-13 -31 -39 -49.5t-56 -18.5q-60 0 -84.5 39.5
t-24.5 95.5q0 186 123 378l27 -9q-54 -79 -88.5 -179t-34.5 -188q0 -112 82 -112q70 0 93 110z" />
    <glyph glyph-name="iotadieresis" unicode="&#x3ca;" horiz-adv-x="209" 
d="M54 93l86 407l32 5l-88 -412q-8 -36 -8 -52q0 -25 26 -25q10 0 22 4l2 -22q-18 -6 -35 -6q-45 0 -45 44q0 19 8 57zM244 590q-10 0 -17 7t-7 17t7 17t17 7t17 -7t7 -17t-7 -17t-17 -7zM106 590q-10 0 -17 7t-7 17t7 17t17 7t17 -7t7 -17t-7 -17t-17 -7z" />
    <glyph glyph-name="upsilondieresis" unicode="&#x3cb;" horiz-adv-x="452" 
d="M135 385l-41 -194q-10 -46 -10 -87q0 -86 91 -86q82 0 134 71q79 108 79 354q0 35 -4 55h29q3 -24 3 -53q0 -269 -91 -381q-30 -36 -65 -54t-91 -18q-53 0 -84.5 28t-31.5 83q0 38 9 78l45 212q10 46 10 70q0 15 -5 28l29 12q6 -16 6 -32q0 -31 -12 -86zM351 590
q-10 0 -17 7t-7 17t7 17t17 7t17 -7t7 -17t-7 -17t-17 -7zM213 590q-10 0 -17 7t-7 17t7 17t17 7t17 -7t7 -17t-7 -17t-17 -7z" />
    <glyph glyph-name="omicrontonos" unicode="&#x3cc;" horiz-adv-x="493" 
d="M202 16q55 0 99 31.5t69 80.5t38 103.5t13 106.5q0 143 -123 143q-54 0 -98 -30.5t-69.5 -79t-39 -103.5t-13.5 -109q0 -143 124 -143zM196 -9q-77 0 -113 49t-36 126q0 56 15.5 113.5t45 109.5t81 85t116.5 33q77 0 112.5 -49t35.5 -125q0 -46 -9.5 -92.5t-30 -91.5
t-50 -80t-73 -56.5t-94.5 -21.5zM322 559h-28l66 153h29z" />
    <glyph glyph-name="upsilontonos" unicode="&#x3cd;" horiz-adv-x="452" 
d="M135 385l-41 -194q-10 -46 -10 -87q0 -86 91 -86q82 0 134 71q79 108 79 354q0 35 -4 55h29q3 -24 3 -53q0 -269 -91 -381q-30 -36 -65 -54t-91 -18q-53 0 -84.5 28t-31.5 83q0 38 9 78l45 212q10 46 10 70q0 15 -5 28l29 12q6 -16 6 -32q0 -31 -12 -86zM281 559h-28
l66 153h29z" />
    <glyph glyph-name="omegatonos" unicode="&#x3ce;" horiz-adv-x="564" 
d="M248 127l44 206h28l-37 -171q-10 -47 -10 -68q0 -39 14 -58t48 -19q47 0 82 42.5t52 105.5t24.5 117t7.5 96q0 57 -14 118l27 9q14 -56 14 -124q0 -35 -4.5 -79t-18 -100.5t-34 -101.5t-56.5 -76.5t-82 -31.5q-70 0 -83 68q-13 -31 -39 -49.5t-56 -18.5q-60 0 -84.5 39.5
t-24.5 95.5q0 186 123 378l27 -9q-54 -79 -88.5 -179t-34.5 -188q0 -112 82 -112q70 0 93 110zM355 559h-28l66 153h29z" />
    <glyph glyph-name="uni03D0" unicode="&#x3d0;" horiz-adv-x="460" 
d="M47 356q85 360 279 360q50 0 80.5 -29t30.5 -78q0 -131 -150 -212q112 -15 112 -141q0 -63 -26.5 -122.5t-80.5 -101t-122 -41.5q-72 0 -110 45.5t-38 134.5q0 76 25 185zM78 352q-25 -114 -25 -192q0 -73 32.5 -108.5t88.5 -35.5q82 0 137.5 75t55.5 164q0 58 -29 88.5
t-96 32.5q-28 -11 -63 -21l1 27q97 19 161 80t64 143q0 85 -82 85q-51 0 -94 -33.5t-72.5 -89t-48 -108t-30.5 -107.5z" />
    <glyph glyph-name="theta1" unicode="&#x3d1;" horiz-adv-x="518" 
d="M69 196q9 40 9 65q0 12 -5 27l29 12q6 -21 6 -36q0 -7 -11 -73q-8 -50 -8 -80q0 -95 102 -95q75 0 121.5 81.5t82.5 232.5q-41 8 -74 16.5t-71.5 25.5t-64 38.5t-43 55.5t-17.5 75q0 81 48 132t124 51q154 0 154 -178q0 -60 -11 -121q-12 -63 -22.5 -110t-26 -100.5
t-34 -90.5t-43 -69t-56 -48t-69.5 -16q-65 0 -97 31.5t-32 87.5q0 46 9 86zM156 541q0 -45 17.5 -77.5t55.5 -54t73.5 -33.5t96.5 -26q24 118 24 192q0 77 -30 116.5t-101 39.5q-63 0 -99.5 -44t-36.5 -113z" />
    <glyph glyph-name="Upsilon1" unicode="&#x3d2;" horiz-adv-x="463" 
d="M245 321l-68 -321h-30l58 262q23 104 23 155q0 163 -143 256l14 25q153 -102 156 -267q77 167 266 266l12 -24q-114 -58 -189 -147.5t-99 -204.5z" />
    <glyph glyph-name="uni03D3" unicode="&#x3d3;" horiz-adv-x="463" 
d="M245 321l-68 -321h-30l58 262q23 104 23 155q0 163 -143 256l14 25q153 -102 156 -267q77 167 266 266l12 -24q-114 -58 -189 -147.5t-99 -204.5zM-95 576h-28l66 153h29z" />
    <glyph glyph-name="uni03D4" unicode="&#x3d4;" horiz-adv-x="463" 
d="M245 321l-68 -321h-30l58 262q23 104 23 155q0 163 -143 256l14 25q153 -102 156 -267q77 167 266 266l12 -24q-114 -58 -189 -147.5t-99 -204.5zM391 750q-10 0 -17 7t-7 17t7 17t17 7t17 -7t7 -17t-7 -17t-17 -7zM253 750q-10 0 -17 7t-7 17t7 17t17 7t17 -7t7 -17
t-7 -17t-17 -7z" />
    <glyph glyph-name="phi1" unicode="&#x3d5;" horiz-adv-x="569" 
d="M218 18l97 461q-112 0 -176 -89.5t-64 -222.5q0 -148 143 -149zM345 479l-97 -461q116 0 184 86t68 214q0 72 -38.5 116.5t-116.5 44.5zM377 627l-25 -122q84 0 132.5 -53t48.5 -132q0 -137 -79 -232.5t-211 -95.5l-41 -189l-31 -6l42 195q-83 0 -126.5 47.5t-43.5 125.5
q0 147 77.5 243.5t201.5 96.5l25 122h30z" />
    <glyph glyph-name="uni0400" unicode="&#x400;" horiz-adv-x="467" 
d="M41 0l145 686h338l-10 -27h-303l-61 -288h244l-6 -27h-244l-67 -317h321l-6 -27h-351zM419 730l-174 102l17 28l169 -109z" />
    <glyph glyph-name="afii10023" unicode="&#x401;" horiz-adv-x="467" 
d="M41 0l145 686h338l-10 -27h-303l-61 -288h244l-6 -27h-244l-67 -317h321l-6 -27h-351zM424 750q-10 0 -17 7t-7 17t7 17t17 7t17 -7t7 -17t-7 -17t-17 -7zM286 750q-10 0 -17 7t-7 17t7 17t17 7t17 -7t7 -17t-7 -17t-17 -7z" />
    <glyph glyph-name="afii10051" unicode="&#x402;" horiz-adv-x="603" 
d="M152 0l140 659h-185l5 27h423l-8 -27h-205l-59 -277q75 33 158 33q43 0 73 -12t44 -34t19.5 -44.5t5.5 -50.5q0 -60 -21 -123.5t-57 -102.5q-52 -57 -139 -57q-61 0 -105 28l14 25l13 -8q35 -19 85 -19q71 0 115 54q30 36 46.5 94.5t16.5 103.5q0 25 -3.5 42.5t-14.5 37
t-38 29.5t-68 10q-76 0 -150 -33l-75 -355h-30z" />
    <glyph glyph-name="afii10052" unicode="&#x403;" horiz-adv-x="362" 
d="M41 0l146 686h290l-8 -27h-258l-140 -659h-30zM428 832l-176 -102l-11 20l169 110z" />
    <glyph glyph-name="afii10053" unicode="&#x404;" horiz-adv-x="523" 
d="M276 -8q-199 0 -199 231q0 61 12.5 124.5t40 125.5t66.5 110.5t96.5 78.5t125.5 30q90 0 145 -51l-18 -20q-50 46 -131 46q-108 0 -182 -86t-106 -212h281l-6 -25h-280q-13 -61 -13 -121q0 -205 178 -205q80 0 156 49l12 -21q-84 -54 -178 -54z" />
    <glyph glyph-name="afii10054" unicode="&#x405;" horiz-adv-x="514" 
d="M503 621q-64 48 -148 48q-79 0 -136.5 -43.5t-57.5 -121.5q0 -42 23 -68.5t76 -48.5l64 -28q120 -52 120 -147q0 -102 -75 -161.5t-182 -59.5q-100 0 -176 54l16 25q65 -53 166 -53q86 0 152 52t66 138q0 47 -27 76t-81 52l-61 27q-114 48 -114 136q0 96 68 146.5
t164 50.5q95 0 160 -52z" />
    <glyph glyph-name="afii10055" unicode="&#x406;" horiz-adv-x="210" 
d="M41 0l145 686h30l-145 -686h-30z" />
    <glyph glyph-name="afii10056" unicode="&#x407;" horiz-adv-x="210" 
d="M41 0l145 686h30l-145 -686h-30zM276 750q-10 0 -17 7t-7 17t7 17t17 7t17 -7t7 -17t-7 -17t-17 -7zM138 750q-10 0 -17 7t-7 17t7 17t17 7t17 -7t7 -17t-7 -17t-17 -7z" />
    <glyph glyph-name="afii10057" unicode="&#x408;" horiz-adv-x="233" 
d="M-62 -123l-12 21q77 28 110 71q16 21 27.5 57t29.5 120l115 540h31l-121 -571q-15 -70 -25.5 -102t-31.5 -58q-41 -51 -123 -78z" />
    <glyph glyph-name="afii10058" unicode="&#x409;" horiz-adv-x="842" 
d="M544 0h-166l139 659h-239l-54 -204q-95 -368 -164 -429q-22 -20 -73 -29l-19 -3l-3 26l18 4q40 9 60 29q59 58 169 469l43 164h298l-62 -293h114q90 0 146.5 -36.5t56.5 -120.5q0 -82 -38.5 -137t-95.5 -77t-130 -22zM591 366h-106l-72 -339h135q45 0 84.5 11.5t72 35
t51.5 64t19 93.5q0 54 -26.5 85t-64 40.5t-93.5 9.5z" />
    <glyph glyph-name="afii10059" unicode="&#x40a;" horiz-adv-x="873" 
d="M41 0l145 686h30l-62 -293h338l62 293h30l-62 -293h114q90 0 146.5 -36.5t56.5 -120.5q0 -82 -38.5 -137t-95.5 -77t-130 -22h-166l77 367h-338l-77 -367h-30zM622 367h-106l-72 -340h135q45 0 84.5 11.5t72 35t51.5 64t19 93.5q0 78 -49 107t-135 29z" />
    <glyph glyph-name="afii10060" unicode="&#x40b;" horiz-adv-x="638" 
d="M151 0l140 659h-184l5 27h422l-8 -27h-205l-59 -279q76 33 158 33q65 0 108 -28.5t43 -89.5q0 -29 -8 -66l-49 -229h-30l48 227q7 32 7 59q0 100 -129 100q-76 0 -154 -33l-75 -353h-30z" />
    <glyph glyph-name="afii10061" unicode="&#x40c;" horiz-adv-x="541" 
d="M587 693l2 -24l-29 -5q-19 -3 -32 -9t-23.5 -20t-16.5 -26t-17 -38l-44 -99q-20 -45 -41 -72t-57 -35l-1 -2q46 -17 50 -103l7 -138q1 -29 2.5 -39.5t7 -25.5t17 -22t31.5 -11l22 -4l-12 -26l-28 4q-50 7 -63.5 33.5t-14.5 91.5l-2 111q-1 28 -2.5 43t-8.5 35.5t-24 30
t-44 9.5h-121l-74 -352h-30l145 686h30l-65 -308h123q52 0 77 26t47 82l42 103q20 49 44 72t73 29zM491 832l-176 -102l-11 20l169 110z" />
    <glyph glyph-name="uni040D" unicode="&#x40d;" horiz-adv-x="592" 
d="M41 0l145 686h28l-118 -557l-22 -88h3q6 9 32.5 43t28.5 37l421 565h39l-145 -686h-29l118 557q13 67 20 88h-3q-27 -39 -59 -80l-423 -565h-36zM460 730l-174 102l17 28l169 -109z" />
    <glyph glyph-name="afii10062" unicode="&#x40e;" horiz-adv-x="466" 
d="M155 686l94 -469l258 469h34l-281 -509q-4 -8 -15 -27.5t-15 -26t-12.5 -22t-13 -21.5t-12 -17t-12.5 -16.5t-12 -12t-14 -11.5q-29 -20 -91 -29l-15 -2l-2 26l19 3q54 11 74 26q29 21 76 106l25 47l-19 -4l-99 490h33zM451 848l19 -19q-62 -86 -156 -86t-121 87l27 18
q30 -71 98 -71q72 0 133 71z" />
    <glyph glyph-name="afii10145" unicode="&#x40f;" horiz-adv-x="575" 
d="M41 0l145 686h30l-140 -659h335l140 659h30l-145 -686h-182l-39 -182h-29l39 182h-184z" />
    <glyph glyph-name="afii10017" unicode="&#x410;" 
d="M403 0l-27 234h-276l-125 -234h-34l372 686h40l82 -686h-32zM277 563l-163 -303h259l-45 402q-33 -66 -51 -99z" />
    <glyph glyph-name="afii10018" unicode="&#x411;" horiz-adv-x="536" 
d="M207 0h-166l145 686h316l-8 -27h-284l-56 -266h114q90 0 146.5 -36.5t56.5 -120.5q0 -82 -38.5 -137t-95.5 -77t-130 -22zM254 366h-106l-72 -339h135q45 0 84.5 11.5t72 35t51.5 64t19 93.5q0 54 -26.5 85t-64 40.5t-93.5 9.5z" />
    <glyph glyph-name="afii10019" unicode="&#x412;" horiz-adv-x="533" 
d="M41 0l145 686h144q190 0 190 -133q0 -69 -46.5 -123t-133.5 -67q63 -7 103.5 -42.5t40.5 -95.5q0 -225 -294 -225h-149zM150 376h139q47 0 91 18t75.5 59t31.5 97q0 61 -39 85t-109 24h-129zM75 26h129q248 0 248 199q0 64 -50 94t-122 30h-135z" />
    <glyph glyph-name="afii10020" unicode="&#x413;" horiz-adv-x="362" 
d="M41 0l146 686h290l-8 -27h-258l-140 -659h-30z" />
    <glyph glyph-name="afii10021" unicode="&#x414;" horiz-adv-x="572" 
d="M3 0l-38 -182h-30l44 209h37q54 92 92 175q76 167 131 380l27 104h305l-139 -659h48l-44 -209h-30l38 182h-441zM48 27h354l133 632h-245l-28 -106q-48 -179 -103 -309q-46 -109 -111 -217z" />
    <glyph glyph-name="afii10022" unicode="&#x415;" horiz-adv-x="467" 
d="M41 0l145 686h338l-10 -27h-303l-61 -288h244l-6 -27h-244l-67 -317h321l-6 -27h-351z" />
    <glyph glyph-name="afii10024" unicode="&#x416;" horiz-adv-x="836" 
d="M882 693l2 -24l-29 -5q-19 -3 -32 -9t-23.5 -20t-16.5 -26t-17 -38l-44 -99q-20 -45 -41 -72t-57 -35l-1 -2q46 -17 50 -103l7 -138q1 -29 2.5 -39.5t7 -25.5t17 -22t31.5 -11l22 -4l-12 -26l-28 4q-50 7 -63.5 33.5t-14.5 91.5l-2 111q-1 28 -2.5 43t-8.5 35.5t-24 30
t-44 9.5h-104l-74 -352h-30l74 352h-101q-54 0 -82 -27t-50 -82l-47 -120q-26 -66 -50.5 -92t-83.5 -34l-23 -3l-4 26l23 4q42 8 59 27t39 71l60 138q39 90 101 104l1 2q-54 20 -56 106l-3 103q-1 32 -3 45.5t-13 25t-34 16.5l-26 6l14 25l27 -4q41 -6 54 -28.5t13 -74.5
l1 -100q0 -51 18 -79.5t66 -28.5h106l65 308h30l-65 -308h106q52 0 77 26t47 82l42 103q20 49 44 72t73 29z" />
    <glyph glyph-name="afii10025" unicode="&#x417;" horiz-adv-x="464" 
d="M214 343h-46l6 26h37q86 0 145 51t59 124q0 55 -31.5 89.5t-94.5 34.5q-84 0 -165 -52l-10 22q85 55 180 55q73 0 114.5 -41t41.5 -103q0 -74 -49.5 -124t-118.5 -65l-1 -3q62 -10 97.5 -48t35.5 -97q0 -102 -78 -161t-181 -59q-101 0 -171 53l18 22q64 -52 153 -52
q93 0 159 52.5t66 144.5q0 65 -44.5 98t-121.5 33z" />
    <glyph glyph-name="afii10026" unicode="&#x418;" horiz-adv-x="592" 
d="M41 0l145 686h28l-118 -557l-22 -88h3q6 9 32.5 43t28.5 37l421 565h39l-145 -686h-29l118 557q13 67 20 88h-3q-27 -39 -59 -80l-423 -565h-36z" />
    <glyph glyph-name="afii10027" unicode="&#x419;" horiz-adv-x="592" 
d="M41 0l145 686h28l-118 -557l-22 -88h3q6 9 32.5 43t28.5 37l421 565h39l-145 -686h-29l118 557q13 67 20 88h-3q-27 -39 -59 -80l-423 -565h-36zM516 848l19 -19q-62 -86 -156 -86t-121 87l27 18q30 -71 98 -71q72 0 133 71z" />
    <glyph glyph-name="afii10028" unicode="&#x41a;" horiz-adv-x="541" 
d="M587 693l2 -24l-29 -5q-19 -3 -32 -9t-23.5 -20t-16.5 -26t-17 -38l-44 -99q-20 -45 -41 -72t-57 -35l-1 -2q46 -17 50 -103l7 -138q1 -29 2.5 -39.5t7 -25.5t17 -22t31.5 -11l22 -4l-12 -26l-28 4q-50 7 -63.5 33.5t-14.5 91.5l-2 111q-1 28 -2.5 43t-8.5 35.5t-24 30
t-44 9.5h-121l-74 -352h-30l145 686h30l-65 -308h123q52 0 77 26t47 82l42 103q20 49 44 72t73 29z" />
    <glyph glyph-name="afii10029" unicode="&#x41b;" horiz-adv-x="556" 
d="M562 686l-145 -686h-30l139 659h-248l-54 -204q-95 -368 -164 -429q-22 -20 -73 -29l-19 -3l-3 26l18 4q40 9 60 29q59 58 169 469l43 164h307z" />
    <glyph glyph-name="afii10030" unicode="&#x41c;" horiz-adv-x="730" 
d="M21 0l205 686h44l47 -534q8 -86 8 -111q11 30 51 108l275 537h45l-83 -686h-30l68 562q11 81 13 95q-26 -54 -40 -81l-294 -576h-28l-50 557q-7 77 -7 100l-193 -657h-31z" />
    <glyph glyph-name="afii10031" unicode="&#x41d;" horiz-adv-x="581" 
d="M41 0l145 686h30l-65 -308h339l66 308h31l-145 -686h-31l74 352h-340l-74 -352h-30z" />
    <glyph glyph-name="afii10032" unicode="&#x41e;" horiz-adv-x="624" 
d="M266 15q77 0 137.5 47.5t94 120.5t50 147.5t16.5 141.5q0 196 -162 196q-62 0 -114 -32t-85 -82t-56 -112.5t-32.5 -120.5t-9.5 -110q0 -196 161 -196zM260 -8q-52 0 -90 18t-58.5 50.5t-29.5 71t-9 85.5q0 80 19 159.5t57 152.5t105.5 118.5t153.5 45.5q52 0 90 -18.5
t58.5 -51t30 -71t9.5 -85.5q0 -62 -11.5 -126t-37.5 -127t-63.5 -112t-95.5 -79.5t-128 -30.5z" />
    <glyph glyph-name="afii10033" unicode="&#x41f;" horiz-adv-x="575" 
d="M581 686l-145 -686h-30l139 659h-334l-140 -659h-30l145 686h395z" />
    <glyph glyph-name="afii10034" unicode="&#x420;" horiz-adv-x="502" 
d="M41 0l145 686h136q89 0 146.5 -36.5t57.5 -120.5q0 -121 -73.5 -179t-183.5 -58h-137l-61 -292h-30zM138 318h135q93 0 156.5 51t63.5 155q0 78 -47 106.5t-130 28.5h-106z" />
    <glyph glyph-name="afii10035" unicode="&#x421;" horiz-adv-x="513" 
d="M271 -8q-199 0 -199 231q0 61 12.5 124.5t40 125.5t66.5 110.5t96.5 78.5t125.5 30q90 0 145 -51l-18 -20q-50 46 -131 46q-74 0 -134.5 -43t-96.5 -110t-55.5 -142.5t-19.5 -148.5q0 -205 178 -205q80 0 156 49l12 -21q-84 -54 -178 -54z" />
    <glyph glyph-name="afii10036" unicode="&#x422;" horiz-adv-x="419" 
d="M158 0l140 659h-196l5 27h427l-8 -27h-198l-140 -659h-30z" />
    <glyph glyph-name="afii10037" unicode="&#x423;" horiz-adv-x="466" 
d="M155 686l94 -469l258 469h34l-281 -509q-4 -8 -15 -27.5t-15 -26t-12.5 -22t-13 -21.5t-12 -17t-12.5 -16.5t-12 -12t-14 -11.5q-29 -20 -91 -29l-15 -2l-2 26l19 3q54 11 74 26q29 21 76 106l25 47l-19 -4l-99 490h33z" />
    <glyph glyph-name="afii10038" unicode="&#x424;" horiz-adv-x="658" 
d="M261 0l22 110q-94 10 -152 66.5t-58 157.5q0 143 90 219t231 74l21 99h30l-21 -100q96 -9 153 -67t57 -159q0 -142 -88.5 -217t-231.5 -74l-23 -109h-30zM106 334q0 -89 49 -140t134 -58l99 465q-127 2 -204.5 -67.5t-77.5 -199.5zM601 400q0 90 -48.5 140.5t-134.5 59.5
l-98 -465q127 0 204 68.5t77 196.5z" />
    <glyph glyph-name="afii10039" unicode="&#x425;" horiz-adv-x="415" 
d="M505 686l-246 -317l147 -369h-36l-134 344l-263 -344h-38l286 372l-123 314h36l111 -288l222 288h38z" />
    <glyph glyph-name="afii10040" unicode="&#x426;" horiz-adv-x="582" 
d="M41 0l145 686h30l-139 -659h334l140 659h30l-140 -659h49l-44 -209h-30l38 182h-413z" />
    <glyph glyph-name="afii10041" unicode="&#x427;" horiz-adv-x="520" 
d="M381 0h-30l70 328q-77 -34 -164 -34q-66 0 -110.5 28.5t-44.5 90.5q0 32 7 66l45 207h30l-44 -206q-7 -32 -7 -61q0 -97 134 -97q82 0 160 33l69 331h30z" />
    <glyph glyph-name="afii10042" unicode="&#x428;" horiz-adv-x="830" 
d="M41 0l145 686h30l-140 -659h280l140 659h30l-139 -659h280l139 659h30l-145 -686h-650z" />
    <glyph glyph-name="afii10043" unicode="&#x429;" horiz-adv-x="837" 
d="M41 0l145 686h30l-140 -659h280l140 659h30l-139 -659h280l139 659h30l-140 -659h44l-44 -209h-30l38 182h-663z" />
    <glyph glyph-name="afii10044" unicode="&#x42a;" horiz-adv-x="619" 
d="M321 0h-166l139 659h-192l5 27h223l-62 -293h114q90 0 146.5 -36.5t56.5 -120.5q0 -82 -38.5 -137t-95.5 -77t-130 -22zM368 366h-106l-72 -339h135q45 0 84.5 11.5t72 35t51.5 64t19 93.5q0 54 -26.5 85t-64 40.5t-93.5 9.5z" />
    <glyph glyph-name="afii10045" unicode="&#x42b;" horiz-adv-x="706" 
d="M207 0h-166l145 686h30l-62 -293h114q90 0 146.5 -36.5t56.5 -120.5q0 -82 -38.5 -137t-95.5 -77t-130 -22zM254 366h-106l-72 -339h135q45 0 84.5 11.5t72 35t51.5 64t19 93.5q0 54 -26.5 85t-64 40.5t-93.5 9.5zM537 0l145 686h30l-145 -686h-30z" />
    <glyph glyph-name="afii10046" unicode="&#x42c;" horiz-adv-x="505" 
d="M207 0h-166l145 686h30l-62 -293h114q90 0 146.5 -36.5t56.5 -120.5q0 -82 -38.5 -137t-95.5 -77t-130 -22zM254 366h-106l-72 -339h135q45 0 84.5 11.5t72 35t51.5 64t19 93.5q0 54 -26.5 85t-64 40.5t-93.5 9.5z" />
    <glyph glyph-name="afii10047" unicode="&#x42d;" horiz-adv-x="505" 
d="M112 615l-11 23q86 55 170 55q103 0 153.5 -69.5t50.5 -174.5q0 -83 -20 -162t-59.5 -146t-105.5 -108t-150 -41q-97 0 -152 50l18 23q53 -47 141 -47q114 0 190 95t96 231h-279l6 25h277q5 37 5 80q0 97 -46 157t-136 60q-72 0 -148 -51z" />
    <glyph glyph-name="afii10048" unicode="&#x42e;" horiz-adv-x="762" 
d="M406 -8q-95 0 -136 62.5t-41 162.5q0 66 12 135h-96l-74 -352h-30l145 686h30l-65 -308h96q14 63 39 117.5t61.5 100t89.5 71.5t117 26q97 0 139 -63t42 -163q0 -79 -18.5 -159t-56 -152.5t-103.5 -118t-151 -45.5zM412 15q61 0 111.5 32t83 81.5t55 112t32 121
t9.5 110.5q0 196 -155 196q-60 0 -110.5 -32t-82 -82t-53.5 -112.5t-31.5 -120.5t-9.5 -110q0 -196 151 -196z" />
    <glyph glyph-name="afii10049" unicode="&#x42f;" horiz-adv-x="543" 
d="M549 686l-146 -686h-35l67 320h-102q-64 0 -99.5 -21.5t-59.5 -82.5l-37 -93q-26 -66 -51 -93q-26 -24 -78 -32l-26 -4l-4 25l24 5q39 9 56 26q19 19 42 72l48 111q39 88 105 99v3q-50 14 -79 55.5t-29 94.5q0 54 22 94t59.5 62.5t82 33.5t95.5 11h145zM342 346h99
l66 313h-109q-96 0 -158.5 -42.5t-62.5 -132.5q0 -66 46.5 -102t118.5 -36z" />
    <glyph glyph-name="afii10065" unicode="&#x430;" 
d="M322 504q65 0 116 -36q-13 -52 -19 -80l-52 -249q-9 -42 -9 -66q0 -34 24 -62l-23 -18q-30 32 -30 81q0 19 4 39q-64 -120 -165 -120q-65 0 -95.5 42t-30.5 113q0 152 83.5 254t196.5 102zM343 167l61 289q-37 23 -86 23q-97 0 -171 -95.5t-74 -237.5q0 -128 102 -128
q96 0 168 149z" />
    <glyph glyph-name="afii10066" unicode="&#x431;" horiz-adv-x="512" 
d="M209 -9q-77 0 -113.5 50t-36.5 139q0 85 47 250q55 188 191 243l146 59q34 14 54 27l11 -27q-30 -18 -60 -30l-134 -54q-77 -31 -120.5 -93t-75.5 -179l3 -1q70 123 197 123q77 0 114 -48.5t37 -124.5q0 -56 -15.5 -112.5t-45.5 -107t-82 -82.5t-117 -32zM216 16
q55 0 99 30.5t69.5 79t38.5 101.5t13 104q0 141 -124 141q-72 0 -124 -49.5t-74.5 -116.5t-22.5 -139q0 -151 125 -151z" />
    <glyph glyph-name="afii10067" unicode="&#x432;" horiz-adv-x="466" 
d="M41 21l66 317q15 72 62.5 120.5t123.5 48.5q53 0 88 -28.5t35 -82.5q0 -52 -30.5 -89.5t-82.5 -48.5q38 -9 61.5 -37t23.5 -71q0 -80 -55.5 -119.5t-134.5 -39.5q-90 0 -157 30zM117 244l-43 -208q55 -20 126 -20q64 0 109 32.5t45 98.5q0 42 -29 69.5t-78 27.5h-130z
M123 269h124q51 0 93.5 32t42.5 89q0 42 -26 66.5t-69 24.5q-59 0 -97.5 -37t-49.5 -90z" />
    <glyph glyph-name="afii10068" unicode="&#x433;" horiz-adv-x="414" 
d="M114 450l-9 26q77 31 147 31q55 0 91.5 -26t36.5 -83q0 -27 -11 -49.5t-24.5 -37t-40 -29t-42 -21t-46.5 -18.5q-91 -34 -123.5 -60.5t-32.5 -75.5q0 -47 34 -69t86 -22q71 0 148 38l9 -24q-74 -39 -165 -39q-62 0 -104.5 28t-42.5 86q0 20 5.5 37t12 29t23 25t25.5 19.5
t33 18t33 15t37 14.5q29 11 42 16.5t39 19t38 25.5t23 31t11 41q0 46 -29 65.5t-72 19.5q-59 0 -132 -31z" />
    <glyph glyph-name="afii10069" unicode="&#x434;" horiz-adv-x="522" 
d="M292 498q80 0 155 -53q2 34 2 45q0 107 -43 161.5t-149 54.5q-26 0 -52 -2l8 23q22 5 54 5q115 0 163 -64t48 -179q0 -61 -8.5 -124.5t-29.5 -132t-52.5 -121t-82.5 -86.5t-115 -34q-71 0 -107.5 47t-36.5 127q0 79 28 154t85.5 127t132.5 52zM197 16q48 0 88.5 27
t66.5 68t46 96.5t30.5 105.5t15.5 102q-71 57 -148 57q-55 0 -98.5 -29t-68.5 -76t-38 -99.5t-13 -105.5q0 -63 28 -104.5t91 -41.5z" />
    <glyph glyph-name="afii10070" unicode="&#x435;" horiz-adv-x="450" 
d="M185 240q-45 0 -91 4q-7 -36 -7 -76q0 -67 32.5 -109t98.5 -42q75 0 140 54l14 -20q-68 -59 -160 -59q-75 0 -116 49t-41 130q0 78 26.5 152.5t84 128.5t133.5 54q52 0 87.5 -29t35.5 -79q0 -158 -237 -158zM293 481q-71 0 -122 -62t-72 -152q36 -3 87 -3q206 0 206 133
q0 40 -27.5 62t-71.5 22z" />
    <glyph glyph-name="afii10072" unicode="&#x436;" horiz-adv-x="789" 
d="M322 0l53 254h-93q-19 -109 -75.5 -186t-130.5 -77q-54 0 -93 44l16 20q37 -37 79 -37q48 0 90.5 48.5t66 123t23.5 152.5q0 64 -25.5 101.5t-72.5 37.5q-46 0 -91 -51l-13 21q49 56 112 56q62 0 92 -47.5t30 -118.5q0 -32 -3 -62h93l47 221l32 5l-48 -226h94
q25 98 78.5 163t121.5 65q54 0 94 -44l-17 -20q-38 38 -79 38q-48 0 -90.5 -48.5t-66 -123.5t-23.5 -153q0 -64 25.5 -102t72.5 -38q45 0 91 52l13 -21q-50 -56 -112 -56t-92 47.5t-30 118.5q0 49 9 97h-95l-53 -254h-30z" />
    <glyph glyph-name="afii10073" unicode="&#x437;" horiz-adv-x="398" 
d="M140 276h26q57 0 103.5 30t46.5 87q0 45 -31.5 66.5t-76.5 21.5q-60 0 -128 -33l-9 22q74 37 148 37q52 0 90.5 -27.5t38.5 -81.5t-35 -88t-87 -45q46 -9 70.5 -40.5t24.5 -73.5q0 -58 -32 -95.5t-74 -51t-91 -13.5q-84 0 -146 44l15 23q53 -42 133 -42q27 0 52.5 6.5
t51.5 20.5t42 42.5t16 67.5q0 52 -38.5 76t-85.5 24h-29z" />
    <glyph glyph-name="afii10074" unicode="&#x438;" horiz-adv-x="511" 
d="M369 125q-96 -134 -196 -134t-100 91q0 22 6 47l77 367l31 6l-78 -366q-7 -33 -7 -52q0 -69 79 -69q88 0 198 158l67 323l32 5l-78 -362q-9 -41 -9 -63q0 -37 24 -65l-23 -18q-29 30 -29 82q0 23 6 50z" />
    <glyph glyph-name="afii10075" unicode="&#x439;" horiz-adv-x="511" 
d="M369 125q-96 -134 -196 -134t-100 91q0 22 6 47l77 367l31 6l-78 -366q-7 -33 -7 -52q0 -69 79 -69q88 0 198 158l67 323l32 5l-78 -362q-9 -41 -9 -63q0 -37 24 -65l-23 -18q-29 30 -29 82q0 23 6 50zM442 671l20 -17q-62 -82 -149 -82q-84 0 -114 83l28 16
q30 -67 92 -67q68 0 123 67z" />
    <glyph glyph-name="afii10076" unicode="&#x43a;" horiz-adv-x="460" 
d="M454 505l9 -27q-143 -42 -259 -216h24q45 -2 64.5 -19.5t22.5 -58.5l8 -112q2 -28 11 -37.5t37 -16.5l16 -4l-9 -23l-19 2q-37 4 -51.5 21.5t-16.5 55.5l-5 98q-2 39 -16.5 53t-56.5 17h-25q-61 -98 -116 -238h-31l105 500l32 6l-68 -323q-10 -44 -18 -70h3
q143 329 359 392z" />
    <glyph glyph-name="afii10077" unicode="&#x43b;" horiz-adv-x="479" 
d="M201 498h238l-106 -498h-30l100 474h-180l-30 -106q-25 -93 -58 -186q-40 -109 -61 -139q-32 -45 -86 -50l-12 -1l-2 24l15 2q40 6 63.5 45t60.5 141q29 82 57 183z" />
    <glyph glyph-name="afii10078" unicode="&#x43c;" horiz-adv-x="646" 
d="M177 498h46l48 -375q7 -67 7 -81h4q7 16 41 81l202 375h46l-53 -498h-33l42 378q10 78 12 87h-4q-22 -48 -42 -85l-206 -380h-31l-48 377q-1 6 -3 25t-4 36t-2 27h-4q-14 -51 -25 -89l-112 -376h-32z" />
    <glyph glyph-name="afii10079" unicode="&#x43d;" horiz-adv-x="509" 
d="M336 0l53 254h-266l-54 -254h-30l105 500l32 5l-48 -226h266l47 221l32 5l-107 -505h-30z" />
    <glyph glyph-name="afii10080" unicode="&#x43e;" horiz-adv-x="493" 
d="M202 16q55 0 99 31.5t69 80.5t38 103.5t13 106.5q0 143 -123 143q-54 0 -98 -30.5t-69.5 -79t-39 -103.5t-13.5 -109q0 -143 124 -143zM196 -9q-77 0 -113 49t-36 126q0 56 15.5 113.5t45 109.5t81 85t116.5 33q77 0 112.5 -49t35.5 -125q0 -46 -9.5 -92.5t-30 -91.5
t-50 -80t-73 -56.5t-94.5 -21.5z" />
    <glyph glyph-name="afii10081" unicode="&#x43f;" horiz-adv-x="500" 
d="M70 0h-30l80 379q13 61 13 79t-5 33l29 12q6 -18 6 -38q0 -21 -9 -65l-7 -31q99 136 198 136q47 0 72 -25.5t25 -68.5q0 -10 -6 -44l-77 -367h-30l76 360q7 33 7 49q0 70 -76 70q-86 0 -198 -152z" />
    <glyph glyph-name="afii10082" unicode="&#x440;" horiz-adv-x="510" 
d="M154 400l-5 -22q77 127 178 127q66 0 101.5 -43t35.5 -120q0 -82 -28 -160t-89.5 -134t-142.5 -56q-71 0 -127 43l-50 -232l-31 -6l124 582q13 61 13 79t-5 33l29 12q6 -18 6 -38q0 -21 -9 -65zM318 479q-89 0 -180 -149l-55 -268q47 -44 122 -44q55 0 100 32t71.5 81.5
t41 104t14.5 105.5q0 138 -114 138z" />
    <glyph glyph-name="afii10083" unicode="&#x441;" horiz-adv-x="404" 
d="M199 -8q-73 0 -109.5 46t-36.5 118q0 135 74 242.5t179 107.5q62 0 107 -39l-14 -24q-41 37 -98 37q-88 0 -152.5 -100.5t-64.5 -223.5q0 -63 30.5 -101t90.5 -38q67 0 128 53l13 -21q-70 -57 -147 -57z" />
    <glyph glyph-name="afii10084" unicode="&#x442;" horiz-adv-x="749" 
d="M70 0h-30l80 379q13 61 13 79t-5 33l29 12q6 -18 6 -38q0 -21 -9 -65l-6 -30q91 135 187 135q43 0 65 -25.5t22 -67.5q0 -2 -5 -40q38 55 87 94t100 39q43 0 65 -25.5t22 -67.5q0 -16 -6 -45l-77 -367h-30l76 360q8 40 8 51q0 68 -66 68q-85 0 -189 -152l-68 -327h-30
l76 360q8 40 8 51q0 68 -66 68q-47 0 -97 -45.5t-91 -106.5z" />
    <glyph glyph-name="afii10085" unicode="&#x443;" horiz-adv-x="405" 
d="M1 -202l-7 23q47 13 79 49t83 131l-16 -2q0 32 -7 86l-56 411l30 9l47 -356q11 -83 11 -126h2q2 5 52 99l201 376h35l-280 -516q-46 -85 -83 -127.5t-91 -56.5z" />
    <glyph glyph-name="afii10086" unicode="&#x444;" horiz-adv-x="726" 
d="M286 -194l-33 -6l51 240q-56 -49 -128 -49q-66 0 -97 48.5t-31 116.5q0 57 14 116t40 112.5t71.5 87.5t102.5 34q66 0 113 -62l60 280l33 7l-61 -286q64 61 137 61q66 0 94.5 -48t28.5 -117q0 -60 -14.5 -120t-42.5 -112t-74.5 -85t-104.5 -33q-64 0 -109 51zM185 20
q73 0 126 53l71 337q-43 67 -106 67q-41 0 -75 -22t-56 -56t-37.5 -77.5t-22 -85.5t-6.5 -80q0 -59 25 -97.5t81 -38.5zM549 477q-73 0 -136 -68l-71 -335q40 -54 104 -54q51 0 92 32.5t64 83t35 103.5t12 102q0 136 -100 136z" />
    <glyph glyph-name="afii10087" unicode="&#x445;" horiz-adv-x="336" 
d="M387 498l-191 -225l128 -273h-34l-115 250l-214 -250h-37l238 276l-103 222h36l89 -200l167 200h36z" />
    <glyph glyph-name="afii10088" unicode="&#x446;" horiz-adv-x="537" 
d="M383 -143l30 143h-19q-31 15 -31 75q0 23 6 50q-96 -134 -196 -134t-100 91q0 22 6 47l77 367l31 6l-78 -366q-7 -33 -7 -52q0 -69 79 -69q88 0 198 158l67 323l32 5l-78 -362q-9 -41 -9 -63q0 -31 14 -48h47l-36 -171h-33z" />
    <glyph glyph-name="afii10089" unicode="&#x447;" horiz-adv-x="462" 
d="M147 506l-36 -170q-3 -15 -3 -28q0 -78 108 -78q61 0 123 26l52 244l31 6l-107 -506h-30l49 228q-67 -24 -132 -24q-55 0 -90 24t-35 75q0 19 4 38l34 159z" />
    <glyph glyph-name="afii10090" unicode="&#x448;" horiz-adv-x="759" 
d="M615 121l1 4q-91 -135 -187 -135q-43 0 -65 25.5t-22 67.5q0 19 5 40q-38 -55 -87 -94t-100 -39q-43 0 -65 25.5t-22 67.5q0 17 6 45l78 372l31 5l-78 -370q-8 -36 -8 -51q0 -68 66 -68q85 0 189 152l69 332l31 5l-78 -370q-8 -36 -8 -51q0 -68 66 -68q47 0 97 45.5
t91 106.5l70 332l31 5l-75 -356q-11 -51 -11 -74q0 -32 24 -62l-23 -21q-32 33 -32 83q0 24 6 46z" />
    <glyph glyph-name="afii10091" unicode="&#x449;" horiz-adv-x="785" 
d="M631 -143l30 143h-11q-41 12 -41 75q0 24 6 46l1 4q-91 -135 -187 -135q-43 0 -65 25.5t-22 67.5q0 19 5 40q-38 -55 -87 -94t-100 -39q-43 0 -65 25.5t-22 67.5q0 17 6 45l78 372l31 5l-78 -370q-8 -36 -8 -51q0 -68 66 -68q85 0 189 152l69 332l31 5l-78 -370
q-8 -36 -8 -51q0 -68 66 -68q47 0 97 45.5t91 106.5l70 332l31 5l-75 -356q-11 -51 -11 -74q0 -27 13 -47h47l-36 -171h-33z" />
    <glyph glyph-name="afii10092" unicode="&#x44a;" horiz-adv-x="497" 
d="M239 498l-46 -218q54 18 107 18q63 0 104.5 -31.5t41.5 -95.5q0 -87 -52.5 -133.5t-140.5 -46.5q-78 0 -144 31l94 452h-151l9 24h178zM187 255l-45 -219q52 -20 114 -20q74 0 115.5 41t41.5 112q0 52 -33 77.5t-87 25.5q-42 0 -106 -17z" />
    <glyph glyph-name="afii10093" unicode="&#x44b;" horiz-adv-x="627" 
d="M453 0l106 500l32 5l-107 -505h-31zM180 506l-48 -226q54 18 107 18q63 0 104.5 -31.5t41.5 -95.5q0 -87 -52.5 -133.5t-140.5 -46.5q-78 0 -144 31l100 478zM126 255l-45 -219q52 -20 114 -20q74 0 115.5 41t41.5 112q0 52 -33 77.5t-87 25.5q-42 0 -106 -17z" />
    <glyph glyph-name="afii10094" unicode="&#x44c;" horiz-adv-x="436" 
d="M180 506l-48 -226q54 18 107 18q63 0 104.5 -31.5t41.5 -95.5q0 -87 -52.5 -133.5t-140.5 -46.5q-78 0 -144 31l100 478zM126 255l-45 -219q52 -20 114 -20q74 0 115.5 41t41.5 112q0 52 -33 77.5t-87 25.5q-42 0 -106 -17z" />
    <glyph glyph-name="afii10095" unicode="&#x44d;" horiz-adv-x="417" 
d="M120 -9q-94 0 -141 62l21 20q19 -26 52.5 -41t70.5 -15q92 0 147 78q43 59 63 143l3 13h-209l6 28h207q4 27 4 55q0 74 -36 110t-94 36q-64 0 -123 -45l-14 19q67 53 143 53q65 0 109.5 -43.5t44.5 -133.5q0 -81 -28.5 -158.5t-80.5 -124.5q-59 -56 -145 -56z" />
    <glyph glyph-name="afii10096" unicode="&#x44e;" horiz-adv-x="626" 
d="M333 -9q-74 0 -110 48.5t-36 127.5q0 46 8 86v1h-72l-54 -254h-30l105 500l32 5l-48 -226h73l1 1q25 96 84 161.5t152 65.5q74 0 110 -49.5t36 -125.5q0 -57 -15 -114.5t-44 -109.5t-79 -84.5t-113 -32.5zM340 16q53 0 95 31.5t66.5 80.5t37.5 103t13 106q0 144 -121 144
q-69 0 -119 -53t-71.5 -123.5t-21.5 -144.5q0 -144 121 -144z" />
    <glyph glyph-name="afii10097" unicode="&#x44f;" horiz-adv-x="469" 
d="M430 498l-105 -498h-32l49 233h-99q-33 0 -54.5 -19.5t-41.5 -56.5l-46 -88q-22 -41 -41 -57t-55 -19l-12 -1l-5 24l14 2q23 3 37 17.5t33 47.5l49 87q38 66 76 74q-43 7 -70 38t-27 74q0 57 35 92.5t79.5 47t98.5 11.5t117 -9zM348 258l45 215q-46 8 -89 8
q-74 0 -123.5 -28.5t-49.5 -96.5q0 -40 31 -69t77 -29h109z" />
    <glyph glyph-name="uni0450" unicode="&#x450;" horiz-adv-x="450" 
d="M185 240q-45 0 -91 4q-7 -36 -7 -76q0 -67 32.5 -109t98.5 -42q75 0 140 54l14 -20q-68 -59 -160 -59q-75 0 -116 49t-41 130q0 78 26.5 152.5t84 128.5t133.5 54q52 0 87.5 -29t35.5 -79q0 -158 -237 -158zM293 481q-71 0 -122 -62t-72 -152q36 -3 87 -3q206 0 206 133
q0 40 -27.5 62t-71.5 22zM375 570l-174 102l17 28l169 -109z" />
    <glyph glyph-name="afii10071" unicode="&#x451;" horiz-adv-x="450" 
d="M185 240q-45 0 -91 4q-7 -36 -7 -76q0 -67 32.5 -109t98.5 -42q75 0 140 54l14 -20q-68 -59 -160 -59q-75 0 -116 49t-41 130q0 78 26.5 152.5t84 128.5t133.5 54q52 0 87.5 -29t35.5 -79q0 -158 -237 -158zM293 481q-71 0 -122 -62t-72 -152q36 -3 87 -3q206 0 206 133
q0 40 -27.5 62t-71.5 22zM388 590q-10 0 -17 7t-7 17t7 17t17 7t17 -7t7 -17t-7 -17t-17 -7zM250 590q-10 0 -17 7t-7 17t7 17t17 7t17 -7t7 -17t-7 -17t-17 -7z" />
    <glyph glyph-name="afii10099" unicode="&#x452;" horiz-adv-x="500" 
d="M362 582h-168l-28 -131q-9 -44 -19 -83q101 137 198 137q47 0 72 -25.5t25 -68.5q0 -17 -6 -43l-75 -356q-16 -78 -40.5 -117.5t-87.5 -65.5l-11 20q51 22 72.5 56t37.5 109l73 346q7 33 7 49q0 70 -76 70q-84 0 -197 -151l-69 -328h-29l123 582h-67l5 27h68q9 45 9 79
q0 12 -4 32l30 10q4 -22 4 -40q0 -30 -10 -81h179z" />
    <glyph glyph-name="afii10100" unicode="&#x453;" horiz-adv-x="414" 
d="M114 450l-9 26q77 31 147 31q55 0 91.5 -26t36.5 -83q0 -27 -11 -49.5t-24.5 -37t-40 -29t-42 -21t-46.5 -18.5q-91 -34 -123.5 -60.5t-32.5 -75.5q0 -47 34 -69t86 -22q71 0 148 38l9 -24q-74 -39 -165 -39q-62 0 -104.5 28t-42.5 86q0 20 5.5 37t12 29t23 25t25.5 19.5
t33 18t33 15t37 14.5q29 11 42 16.5t39 19t38 25.5t23 31t11 41q0 46 -29 65.5t-72 19.5q-59 0 -132 -31zM346 672l-176 -102l-11 20l169 110z" />
    <glyph glyph-name="afii10101" unicode="&#x454;" horiz-adv-x="414" 
d="M202 -9q-75 0 -112.5 48t-37.5 118q0 85 30 164.5t88.5 132.5t132.5 53q76 0 119 -52l-20 -19q-39 43 -105 43q-67 0 -119 -56.5t-76 -144.5h204l-6 -26h-205q-12 -55 -12 -97q0 -64 33 -101t94 -37q69 0 130 55l15 -22q-72 -59 -153 -59z" />
    <glyph glyph-name="afii10102" unicode="&#x455;" horiz-adv-x="423" 
d="M148 -9q-86 0 -149 45l14 22q63 -43 142 -43q65 0 112 32t47 93q0 38 -17 58.5t-67 41.5l-55 23q-46 19 -69 44t-23 63q0 68 51 103t129 35q70 0 129 -39l-13 -22q-53 36 -119 36q-61 0 -103.5 -26t-42.5 -81q0 -32 16.5 -50t58.5 -36l56 -24q58 -24 80 -51.5t22 -68.5
q0 -74 -54.5 -114.5t-144.5 -40.5z" />
    <glyph glyph-name="afii10103" unicode="&#x456;" horiz-adv-x="200" 
d="M41 0l105 500l32 5l-107 -505h-30zM190 632q-11 0 -18.5 7.5t-7.5 18.5t7.5 19t18.5 8t19 -8t8 -19t-8 -18.5t-19 -7.5z" />
    <glyph glyph-name="afii10104" unicode="&#x457;" horiz-adv-x="200" 
d="M40 0l106 500l32 5l-107 -505h-31zM241 590q-10 0 -17 7t-7 17t7 17t17 7t17 -7t7 -17t-7 -17t-17 -7zM103 590q-10 0 -17 7t-7 17t7 17t17 7t17 -7t7 -17t-7 -17t-17 -7z" />
    <glyph glyph-name="afii10105" unicode="&#x458;" horiz-adv-x="198" 
d="M-55 -171l-11 20q51 22 72.5 56t37.5 109l103 485l32 6l-105 -493q-16 -77 -41 -117t-88 -66zM190 632q-11 0 -18.5 7.5t-7.5 18.5t7.5 19t18.5 8t19 -8t8 -19t-8 -18.5t-19 -7.5z" />
    <glyph glyph-name="afii10106" unicode="&#x459;" horiz-adv-x="695" 
d="M438 498l-47 -218q54 18 107 18q63 0 104.5 -31.5t41.5 -95.5q0 -87 -52.5 -133.5t-140.5 -46.5q-78 0 -144 31l95 452h-179l-30 -106q-25 -93 -58 -186q-40 -109 -61 -139q-32 -45 -86 -50l-12 -1l-2 24l15 2q40 6 63.5 45t60.5 141q29 82 57 183l31 111h237zM385 255
l-45 -219q52 -20 114 -20q74 0 115.5 41t41.5 112q0 52 -33 77.5t-87 25.5q-42 0 -106 -17z" />
    <glyph glyph-name="afii10107" unicode="&#x45a;" horiz-adv-x="733" 
d="M477 506l-48 -226q54 18 107 18q63 0 104.5 -31.5t41.5 -95.5q0 -87 -52.5 -133.5t-140.5 -46.5q-78 0 -144 31l48 232h-261l-54 -254h-30l105 500l32 5l-48 -226h261l47 221zM423 255l-45 -219q52 -20 114 -20q74 0 115.5 41t41.5 112q0 52 -33 77.5t-87 25.5
q-42 0 -106 -17z" />
    <glyph glyph-name="afii10108" unicode="&#x45b;" horiz-adv-x="500" 
d="M362 582h-168l-28 -131q-9 -44 -19 -83q101 137 198 137q47 0 72 -25.5t25 -68.5q0 -17 -6 -43l-77 -368h-30l76 360q7 33 7 49q0 70 -76 70q-84 0 -197 -151l-69 -328h-29l123 582h-67l5 27h68q9 45 9 79q0 12 -4 32l30 10q4 -22 4 -40q0 -30 -10 -81h179z" />
    <glyph glyph-name="afii10109" unicode="&#x45c;" horiz-adv-x="460" 
d="M454 505l9 -27q-143 -42 -259 -216h24q45 -2 64.5 -19.5t22.5 -58.5l8 -112q2 -28 11 -37.5t37 -16.5l16 -4l-9 -23l-19 2q-37 4 -51.5 21.5t-16.5 55.5l-5 98q-2 39 -16.5 53t-56.5 17h-25q-61 -98 -116 -238h-31l105 500l32 6l-68 -323q-10 -44 -18 -70h3
q143 329 359 392zM413 672l-176 -102l-11 20l169 110z" />
    <glyph glyph-name="uni045D" unicode="&#x45d;" horiz-adv-x="511" 
d="M369 125q-96 -134 -196 -134t-100 91q0 22 6 47l77 367l31 6l-78 -366q-7 -33 -7 -52q0 -69 79 -69q88 0 198 158l67 323l32 5l-78 -362q-9 -41 -9 -63q0 -37 24 -65l-23 -18q-29 30 -29 82q0 23 6 50zM402 570l-174 102l17 28l169 -109z" />
    <glyph glyph-name="afii10110" unicode="&#x45e;" horiz-adv-x="405" 
d="M1 -202l-7 23q47 13 79 49t83 131l-16 -2q0 32 -7 86l-56 411l30 9l47 -356q11 -83 11 -126h2q2 5 52 99l201 376h35l-280 -516q-46 -85 -83 -127.5t-91 -56.5zM381 671l20 -17q-62 -82 -149 -82q-84 0 -114 83l28 16q30 -67 92 -67q68 0 123 67z" />
    <glyph glyph-name="afii10193" unicode="&#x45f;" horiz-adv-x="511" 
d="M200 -175l31 148l36 14l-34 -162h-33zM369 125q-96 -134 -196 -134t-100 91q0 22 6 47l77 367l31 6l-78 -366q-7 -33 -7 -52q0 -69 79 -69q88 0 198 158l67 323l32 5l-78 -362q-9 -41 -9 -63q0 -37 24 -65l-23 -18q-29 30 -29 82q0 23 6 50z" />
    <glyph glyph-name="afii10146" unicode="&#x462;" horiz-adv-x="516" 
d="M227 0h-166l116 548h-85l6 29h85l23 109h30l-23 -109h130l-7 -29h-129l-33 -155h114q90 0 146.5 -36.5t56.5 -120.5q0 -82 -38.5 -137t-95.5 -77t-130 -22zM274 366h-106l-72 -339h135q45 0 84.5 11.5t72 35t51.5 64t19 93.5q0 54 -26.5 85t-64 40.5t-93.5 9.5z" />
    <glyph glyph-name="afii10194" unicode="&#x463;" horiz-adv-x="440" 
d="M190 506l-16 -76h114l-6 -28h-114l-26 -122q54 18 107 18q63 0 104.5 -31.5t41.5 -95.5q0 -87 -52.5 -133.5t-140.5 -46.5q-78 0 -144 31l79 380h-75l6 28h75l15 70zM136 255l-45 -219q52 -20 114 -20q74 0 115.5 41t41.5 112q0 52 -33 77.5t-87 25.5q-42 0 -106 -17z
" />
    <glyph glyph-name="afii10147" unicode="&#x472;" horiz-adv-x="624" 
d="M260 -8q-52 0 -90 18t-58.5 50.5t-29.5 71t-9 85.5q0 80 19 159.5t57 152.5t105.5 118.5t153.5 45.5q52 0 90 -18.5t58.5 -51t30 -71t9.5 -85.5q0 -62 -11.5 -126t-37.5 -127t-63.5 -112t-95.5 -79.5t-128 -30.5zM266 15q59 0 108.5 28t83.5 76t56 102.5t35 115.5h-431
q-13 -66 -13 -126q0 -196 161 -196zM402 668q-57 0 -105 -26t-81.5 -71.5t-56 -96.5t-36.5 -110h431q10 56 10 108q0 196 -162 196z" />
    <glyph glyph-name="afii10195" unicode="&#x473;" horiz-adv-x="493" 
d="M196 -9q-77 0 -113 49t-36 126q0 56 15.5 113.5t45 109.5t81 85t116.5 33q77 0 112.5 -49t35.5 -125q0 -46 -9.5 -92.5t-30 -91.5t-50 -80t-73 -56.5t-94.5 -21.5zM202 16q83 0 136.5 66.5t72.5 163.5h-325q-8 -48 -8 -87q0 -143 124 -143zM298 481q-79 0 -131 -60
t-75 -150h324q5 38 5 67q0 143 -123 143z" />
    <glyph glyph-name="afii10148" unicode="&#x474;" horiz-adv-x="593" 
d="M195 0l-83 686h31l60 -508q10 -77 15 -144l270 498q44 81 77 112.5t97 41.5l6 -25q-53 -10 -83 -39t-70 -101l-286 -521h-34z" />
    <glyph glyph-name="afii10196" unicode="&#x475;" horiz-adv-x="443" 
d="M139 -5l-69 501l30 6l53 -398q8 -53 9 -73h2q12 24 38 70l167 299q15 26 25.5 41.5t37 35t60.5 26.5l8 -24q-27 -6 -50 -23.5t-33.5 -33t-26.5 -43.5l-219 -384h-32z" />
    <glyph glyph-name="afii10050" unicode="&#x490;" horiz-adv-x="362" 
d="M41 0l146 686h261l23 106h30l-29 -133h-261l-140 -659h-30z" />
    <glyph glyph-name="afii10098" unicode="&#x491;" horiz-adv-x="359" 
d="M169 474l-101 -474h-29l105 498h208l20 94l30 5l-25 -123h-208z" />
    <glyph glyph-name="uni0492" unicode="&#x492;" horiz-adv-x="362" 
d="M28 361l7 27h88l64 298h290l-8 -27h-258l-58 -271h122l-6 -27h-121l-77 -361h-30l77 361h-90z" />
    <glyph glyph-name="uni0493" unicode="&#x493;" horiz-adv-x="422" 
d="M114 450l-9 26q77 31 147 31q55 0 91.5 -26t36.5 -83q0 -79 -100 -127h103l-11 -24h-149l-10 -4q-90 -33 -121.5 -60t-31.5 -76q0 -47 34 -69t86 -22q71 0 148 38l9 -24q-74 -39 -165 -39q-62 0 -104.5 28t-42.5 86q0 54 34 85t98 57h-112l5 24h168q59 23 94 51t35 74
t-29 65.5t-72 19.5q-59 0 -132 -31z" />
    <glyph glyph-name="uni0496" unicode="&#x496;" horiz-adv-x="836" 
d="M882 693l2 -24l-29 -5q-19 -3 -32 -9t-23.5 -20t-16.5 -26t-17 -38l-44 -99q-20 -45 -41 -72t-57 -35l-1 -2q46 -17 50 -103l7 -138q1 -26 3 -38.5t8 -28t18 -22t32 -6.5h26l-44 -209h-30l37 182q-55 0 -71 28.5t-17 94.5l-2 111q-1 28 -2.5 43t-8.5 35.5t-24 30t-44 9.5
h-104l-74 -352h-30l74 352h-101q-54 0 -82 -27t-50 -82l-47 -120q-26 -66 -50.5 -92t-83.5 -34l-23 -3l-4 26l23 4q42 8 59 27t39 71l60 138q39 90 101 104l1 2q-54 20 -56 106l-3 103q-1 32 -3 45.5t-13 25t-34 16.5l-26 6l14 25l27 -4q41 -6 54 -28.5t13 -74.5l1 -100
q0 -51 18 -79.5t66 -28.5h106l65 308h30l-65 -308h106q52 0 77 26t47 82l42 103q20 49 44 72t73 29z" />
    <glyph glyph-name="uni0497" unicode="&#x497;" horiz-adv-x="789" 
d="M651 -143l30 143q-30 -9 -68 -9q-62 0 -92 47.5t-30 118.5q0 49 9 97h-95l-53 -254h-30l53 254h-93q-19 -109 -75.5 -186t-130.5 -77q-54 0 -93 44l16 20q37 -37 79 -37q48 0 90.5 48.5t66 123t23.5 152.5q0 64 -25.5 101.5t-72.5 37.5q-46 0 -91 -51l-13 21
q49 56 112 56q62 0 92 -47.5t30 -118.5q0 -32 -3 -62h93l47 221l32 5l-48 -226h94q25 98 78.5 163t121.5 65q54 0 94 -44l-17 -20q-38 38 -79 38q-48 0 -90.5 -48.5t-66 -123.5t-23.5 -153q0 -64 25.5 -102t72.5 -38q41 0 63 12h36l-36 -171h-33z" />
    <glyph glyph-name="uni049A" unicode="&#x49a;" horiz-adv-x="537" 
d="M582 693l2 -24l-29 -5q-19 -3 -32 -9t-23.5 -20t-16.5 -26t-17 -38l-44 -99q-20 -45 -41 -72t-57 -35l-1 -2q46 -17 50 -103l7 -138q1 -26 3 -38.5t8 -28t18 -22t32 -6.5h26l-44 -209h-30l37 182q-55 0 -71 28.5t-17 94.5l-2 111q-1 28 -2.5 43t-8.5 35.5t-24 30t-44 9.5
h-116l-74 -352h-30l145 686h30l-65 -308h118q52 0 77 26t47 82l42 103q20 49 44 72t73 29z" />
    <glyph glyph-name="uni049B" unicode="&#x49b;" horiz-adv-x="460" 
d="M322 -143l30 143q-31 0 -45 16.5t-16 53.5l-5 98q-2 39 -16.5 53t-56.5 17h-25q-61 -98 -116 -238h-31l105 500l32 6l-68 -323q-10 -44 -18 -70h3q143 329 359 392l9 -27q-143 -42 -259 -216h24q45 -2 64.5 -19.5t22.5 -58.5l8 -112q3 -44 34 -44h34l-36 -171h-33z" />
    <glyph glyph-name="uni049C" unicode="&#x49c;" horiz-adv-x="541" 
d="M587 693l2 -24l-29 -5q-19 -3 -32 -9t-23.5 -20t-16.5 -26t-17 -38l-44 -99q-20 -45 -41 -72t-57 -35l-1 -2q46 -17 50 -103l7 -138q1 -29 2.5 -39.5t7 -25.5t17 -22t31.5 -11l22 -4l-12 -26l-28 4q-50 7 -63.5 33.5t-14.5 91.5l-2 111q-1 28 -2.5 43t-8.5 35.5t-24 30
t-44 9.5h-6l-32 -150h-33l32 150h-82l-74 -352h-30l145 686h30l-65 -308h82l30 139h32l-30 -139h9q52 0 77 26t47 82l42 103q20 49 44 72t73 29z" />
    <glyph glyph-name="uni049D" unicode="&#x49d;" horiz-adv-x="472" 
d="M41 0l106 500l32 6l-48 -233h71l25 120h31l-25 -120h14q52 0 84 73l38 88q15 33 32 49.5t45 19.5l29 3l2 -25l-24 -4q-35 -5 -54 -48l-42 -93q-28 -63 -74 -75l-1 -2q37 -12 41 -76l6 -110q1 -27 9.5 -38t28.5 -16l19 -4l-9 -23l-22 2q-33 3 -45.5 20.5t-13.5 55.5
l-3 102q-2 74 -51 74h-15l-26 -121h-30l25 121h-71l-53 -246h-31z" />
    <glyph glyph-name="uni04A2" unicode="&#x4a2;" horiz-adv-x="588" 
d="M41 0l145 686h30l-65 -308h339l66 308h31l-140 -659h51l-44 -209h-30l38 182h-51l74 352h-340l-74 -352h-30z" />
    <glyph glyph-name="uni04A3" unicode="&#x4a3;" horiz-adv-x="513" 
d="M336 0l53 254h-266l-54 -254h-30l105 500l32 5l-48 -226h266l47 221l32 5l-101 -477h47l-36 -171h-33l30 143h-44z" />
    <glyph glyph-name="uni04AE" unicode="&#x4ae;" horiz-adv-x="478" 
d="M173 0l57 272l-133 414h34l99 -318q1 -4 9 -30t11 -38q6 9 14.5 20.5t19.5 26.5t18 24l233 315h38l-311 -416l-57 -270h-32z" />
    <glyph glyph-name="uni04AF" unicode="&#x4af;" horiz-adv-x="412" 
d="M103 506l45 -380q7 -61 8 -80h3q23 50 51 98l194 354h36l-278 -498l-43 -201l-33 -7l44 208l-60 495z" />
    <glyph glyph-name="uni04B0" unicode="&#x4b0;" horiz-adv-x="478" 
d="M173 0l54 259h-137l6 30h128l-127 397h34l99 -318q1 -4 9 -30t11 -38q6 9 14.5 20.5t19.5 26.5t18 24l233 315h38l-297 -397h141l-7 -30h-151l-54 -259h-32z" />
    <glyph glyph-name="uni04B1" unicode="&#x4b1;" horiz-adv-x="412" 
d="M103 506l45 -380q7 -61 8 -80h3q23 50 51 98l194 354h36l-264 -472h129l-16 -26h-127l-43 -201l-33 -7l44 208h-123l5 26h115l-57 469z" />
    <glyph glyph-name="uni04B2" unicode="&#x4b2;" horiz-adv-x="415" 
d="M505 686l-246 -317l136 -342h23l-44 -209h-30l38 182h-12l-134 344l-263 -344h-38l286 372l-123 314h36l111 -288l222 288h38z" />
    <glyph glyph-name="uni04B3" unicode="&#x4b3;" horiz-adv-x="336" 
d="M387 498l-191 -225l115 -245h24l-36 -171h-33l30 143h-6l-115 250l-214 -250h-37l238 276l-103 222h36l89 -200l167 200h36z" />
    <glyph glyph-name="uni04B6" unicode="&#x4b6;" horiz-adv-x="527" 
d="M399 0h-48l70 328q-77 -34 -164 -34q-66 0 -110.5 28.5t-44.5 90.5q0 32 7 66l45 207h30l-44 -206q-7 -32 -7 -61q0 -97 134 -97q82 0 160 33l69 331h30l-140 -659h49l-44 -209h-30z" />
    <glyph glyph-name="uni04B7" unicode="&#x4b7;" horiz-adv-x="462" 
d="M299 -143l30 143h-44l49 228q-67 -24 -132 -24q-55 0 -90 24t-35 75q0 19 4 38l34 159l32 6l-36 -170q-3 -15 -3 -28q0 -78 108 -78q61 0 123 26l52 244l31 6l-101 -478h47l-36 -171h-33z" />
    <glyph glyph-name="uni04B8" unicode="&#x4b8;" horiz-adv-x="520" 
d="M381 0h-30l70 328q-66 -29 -145 -34l-30 -141h-31l30 141q-62 3 -102.5 31.5t-40.5 87.5q0 32 7 66l45 207h30l-44 -206q-7 -32 -7 -61q0 -90 118 -97l31 146h31l-31 -146q77 3 145 33l69 331h30z" />
    <glyph glyph-name="uni04B9" unicode="&#x4b9;" horiz-adv-x="462" 
d="M147 506l-36 -170q-3 -15 -3 -28q0 -71 89 -78l27 125h29l-27 -125q57 3 113 26l52 244l31 6l-107 -506h-30l49 228q-55 -20 -113 -24l-25 -117h-29l25 117q-51 2 -83 26t-32 73q0 19 4 38l34 159z" />
    <glyph glyph-name="uni04BA" unicode="&#x4ba;" horiz-adv-x="525" 
d="M186 686h31l-70 -329q77 34 168 34q67 0 112 -28.5t45 -89.5q0 -22 -10 -66l-45 -207h-29l43 205q8 36 8 58q0 101 -134 101q-83 0 -164 -34l-69 -330h-31z" />
    <glyph glyph-name="uni04BB" unicode="&#x4bb;" horiz-adv-x="500" 
d="M195 587l-29 -136q-9 -44 -19 -83q101 137 198 137q47 0 72 -25.5t25 -68.5q0 -17 -6 -43l-77 -368h-30l76 360q7 33 7 49q0 70 -76 70q-84 0 -197 -151l-69 -328h-29l125 590q13 64 13 98q0 12 -4 32l30 10q4 -22 4 -40q0 -34 -14 -103z" />
    <glyph glyph-name="uni04C0" unicode="&#x4c0;" horiz-adv-x="210" 
d="M41 0l145 686h30l-145 -686h-30z" />
    <glyph glyph-name="uni04CF" unicode="&#x4cf;" horiz-adv-x="215" 
d="M196 581l-124 -581h-34l124 583q14 69 14 98q0 18 -5 38l35 12q5 -18 5 -39q0 -41 -15 -111z" />
    <glyph glyph-name="uni04D8" unicode="&#x4d8;" horiz-adv-x="631" 
d="M567 455q0 103 -45.5 157.5t-151.5 54.5q-104 0 -191 -61l-14 21q99 66 219 66q108 0 161.5 -63t53.5 -173q0 -80 -23.5 -161.5t-66 -149.5t-110.5 -111t-148 -43q-79 0 -130 43.5t-51 116.5q0 51 19 90.5t49.5 63.5t73.5 39t86.5 20.5t93.5 5.5q58 0 166 -6q9 43 9 90z
M392 344q-291 0 -291 -191q0 -63 43.5 -99t113.5 -36q108 0 185 87.5t110 232.5q-84 6 -161 6z" />
    <glyph glyph-name="afii10846" unicode="&#x4d9;" horiz-adv-x="450" 
d="M265 258q45 0 91 -4q7 36 7 76q0 67 -32.5 109t-98.5 42q-75 0 -140 -54l-14 20q68 59 160 59q75 0 116 -49t41 -130q0 -78 -26.5 -152.5t-84 -128.5t-133.5 -54q-52 0 -87.5 29t-35.5 79q0 158 237 158zM157 17q71 0 122 62t72 152q-36 3 -87 3q-206 0 -206 -133
q0 -40 27.5 -62t71.5 -22z" />
    <glyph glyph-name="uni04E2" unicode="&#x4e2;" horiz-adv-x="592" 
d="M41 0l145 686h28l-118 -557l-22 -88h3q6 9 32.5 43t28.5 37l421 565h39l-145 -686h-29l118 557q13 67 20 88h-3q-27 -39 -59 -80l-423 -565h-36zM260 754l5 22h260l-5 -22h-260z" />
    <glyph glyph-name="uni04E3" unicode="&#x4e3;" horiz-adv-x="511" 
d="M369 125q-96 -134 -196 -134t-100 91q0 22 6 47l77 367l31 6l-78 -366q-7 -33 -7 -52q0 -69 79 -69q88 0 198 158l67 323l32 5l-78 -362q-9 -41 -9 -63q0 -37 24 -65l-23 -18q-29 30 -29 82q0 23 6 50zM213 607l5 22h260l-5 -22h-260z" />
    <glyph glyph-name="uni04E8" unicode="&#x4e8;" horiz-adv-x="624" 
d="M260 -8q-52 0 -90 18t-58.5 50.5t-29.5 71t-9 85.5q0 80 19 159.5t57 152.5t105.5 118.5t153.5 45.5q52 0 90 -18.5t58.5 -51t30 -71t9.5 -85.5q0 -62 -11.5 -126t-37.5 -127t-63.5 -112t-95.5 -79.5t-128 -30.5zM266 15q59 0 108.5 28t83.5 76t56 102.5t35 115.5h-431
q-13 -66 -13 -126q0 -196 161 -196zM402 668q-57 0 -105 -26t-81.5 -71.5t-56 -96.5t-36.5 -110h431q10 56 10 108q0 196 -162 196z" />
    <glyph glyph-name="uni04E9" unicode="&#x4e9;" horiz-adv-x="493" 
d="M196 -9q-77 0 -113 49t-36 126q0 56 15.5 113.5t45 109.5t81 85t116.5 33q77 0 112.5 -49t35.5 -125q0 -46 -9.5 -92.5t-30 -91.5t-50 -80t-73 -56.5t-94.5 -21.5zM202 16q83 0 136.5 66.5t72.5 163.5h-325q-8 -48 -8 -87q0 -143 124 -143zM298 481q-79 0 -131 -60
t-75 -150h324q5 38 5 67q0 143 -123 143z" />
    <glyph glyph-name="uni04EE" unicode="&#x4ee;" horiz-adv-x="466" 
d="M155 686l94 -469l258 469h34l-281 -509q-4 -8 -15 -27.5t-15 -26t-12.5 -22t-13 -21.5t-12 -17t-12.5 -16.5t-12 -12t-14 -11.5q-29 -20 -91 -29l-15 -2l-2 26l19 3q54 11 74 26q29 21 76 106l25 47l-19 -4l-99 490h33zM194 754l5 22h260l-5 -22h-260z" />
    <glyph glyph-name="uni04EF" unicode="&#x4ef;" horiz-adv-x="405" 
d="M1 -202l-7 23q47 13 79 49t83 131l-16 -2q0 32 -7 86l-56 411l30 9l47 -356q11 -83 11 -126h2q2 5 52 99l201 376h35l-280 -516q-46 -85 -83 -127.5t-91 -56.5zM154 607l5 22h260l-5 -22h-260z" />
    <glyph glyph-name="Wgrave" unicode="&#x1e80;" horiz-adv-x="733" 
d="M134 0l-22 686h31l15 -513q1 -33 1 -97v-47q3 9 63 144l229 513h35l7 -513q1 -70 1 -144q8 27 61 145l225 512h32l-303 -686h-41l-6 507q-1 45 -1 138q-1 -1 -10 -23.5t-23.5 -56.5t-25.5 -59l-228 -506h-40zM574 730l-174 102l17 28l169 -109z" />
    <glyph glyph-name="wgrave" unicode="&#x1e81;" horiz-adv-x="613" 
d="M101 -4l-33 501l29 6l24 -401q3 -57 3 -67h2l25 55l193 408h33l23 -412q3 -45 3 -53h1l25 56l195 409h32l-242 -502h-34l-24 413q-3 42 -3 50h-1l-21 -46l-198 -417h-32zM470 570l-174 102l17 28l169 -109z" />
    <glyph glyph-name="Wacute" unicode="&#x1e82;" horiz-adv-x="733" 
d="M134 0l-22 686h31l15 -513q1 -33 1 -97v-47q3 9 63 144l229 513h35l7 -513q1 -70 1 -144q8 27 61 145l225 512h32l-303 -686h-41l-6 507q-1 45 -1 138q-1 -1 -10 -23.5t-23.5 -56.5t-25.5 -59l-228 -506h-40zM587 832l-176 -102l-11 20l169 110z" />
    <glyph glyph-name="wacute" unicode="&#x1e83;" horiz-adv-x="613" 
d="M101 -4l-33 501l29 6l24 -401q3 -57 3 -67h2l25 55l193 408h33l23 -412q3 -45 3 -53h1l25 56l195 409h32l-242 -502h-34l-24 413q-3 42 -3 50h-1l-21 -46l-198 -417h-32zM483 672l-176 -102l-11 20l169 110z" />
    <glyph glyph-name="Wdieresis" unicode="&#x1e84;" horiz-adv-x="733" 
d="M134 0l-22 686h31l15 -513q1 -33 1 -97v-47q3 9 63 144l229 513h35l7 -513q1 -70 1 -144q8 27 61 145l225 512h32l-303 -686h-41l-6 507q-1 45 -1 138q-1 -1 -10 -23.5t-23.5 -56.5t-25.5 -59l-228 -506h-40zM553 750q-10 0 -17 7t-7 17t7 17t17 7t17 -7t7 -17t-7 -17
t-17 -7zM415 750q-10 0 -17 7t-7 17t7 17t17 7t17 -7t7 -17t-7 -17t-17 -7z" />
    <glyph glyph-name="wdieresis" unicode="&#x1e85;" horiz-adv-x="613" 
d="M101 -4l-33 501l29 6l24 -401q3 -57 3 -67h2l25 55l193 408h33l23 -412q3 -45 3 -53h1l25 56l195 409h32l-242 -502h-34l-24 413q-3 42 -3 50h-1l-21 -46l-198 -417h-32zM454 590q-10 0 -17 7t-7 17t7 17t17 7t17 -7t7 -17t-7 -17t-17 -7zM316 590q-10 0 -17 7t-7 17
t7 17t17 7t17 -7t7 -17t-7 -17t-17 -7z" />
    <glyph glyph-name="uni1E8A" unicode="&#x1e8a;" horiz-adv-x="415" 
d="M505 686l-246 -317l147 -369h-36l-134 344l-263 -344h-38l286 372l-123 314h36l111 -288l222 288h38zM318 748q-11 0 -18.5 7.5t-7.5 18.5t7.5 19t18.5 8t19 -8t8 -19t-8 -18.5t-19 -7.5z" />
    <glyph glyph-name="uni1E8B" unicode="&#x1e8b;" horiz-adv-x="336" 
d="M387 498l-191 -225l128 -273h-34l-115 250l-214 -250h-37l238 276l-103 222h36l89 -200l167 200h36zM253 592q-11 0 -18.5 7.5t-7.5 18.5t7.5 19t18.5 8t19 -8t8 -19t-8 -18.5t-19 -7.5z" />
    <glyph glyph-name="Ygrave" unicode="&#x1ef2;" horiz-adv-x="478" 
d="M173 0l57 272l-133 414h34l99 -318q1 -4 9 -30t11 -38q6 9 14.5 20.5t19.5 26.5t18 24l233 315h38l-311 -416l-57 -270h-32zM398 730l-174 102l17 28l169 -109z" />
    <glyph glyph-name="ygrave" unicode="&#x1ef3;" horiz-adv-x="405" 
d="M1 -202l-7 23q47 13 79 49t83 131l-16 -2q0 32 -7 86l-56 411l30 9l47 -356q11 -83 11 -126h2q2 5 52 99l201 376h35l-280 -516q-46 -85 -83 -127.5t-91 -56.5zM365 570l-174 102l17 28l169 -109z" />
    <glyph glyph-name="uni2007" unicode="&#x2007;" horiz-adv-x="550" 
 />
    <glyph glyph-name="uni2008" unicode="&#x2008;" horiz-adv-x="203" 
 />
    <glyph glyph-name="uni200B" unicode="&#x200b;" horiz-adv-x="0" 
 />
    <glyph glyph-name="endash" unicode="&#x2013;" horiz-adv-x="579" 
d="M54 268l5 24h485l-5 -24h-485z" />
    <glyph glyph-name="emdash" unicode="&#x2014;" horiz-adv-x="806" 
d="M54 268l5 24h712l-5 -24h-712z" />
    <glyph glyph-name="afii00208" unicode="&#x2015;" horiz-adv-x="806" 
d="M54 268l5 24h712l-5 -24h-712z" />
    <glyph glyph-name="quoteleft" unicode="&#x2018;" horiz-adv-x="162" 
d="M191 696l13 -17q-49 -40 -50 -76l2 1h5q10 0 17.5 -8t7.5 -19q0 -13 -8.5 -21.5t-20.5 -8.5q-34 0 -34 45q0 59 68 104z" />
    <glyph glyph-name="quoteright" unicode="&#x2019;" horiz-adv-x="162" 
d="M136 547l-13 17q49 40 50 76h-3q-2 -1 -4 -1q-10 0 -17.5 8t-7.5 19q0 13 8.5 21.5t20.5 8.5q34 0 34 -45q0 -59 -68 -104z" />
    <glyph glyph-name="quotesinglbase" unicode="&#x201a;" horiz-adv-x="160" 
d="M-11 -99l-13 17q49 40 50 76h-2q-3 -1 -5 -1q-10 0 -17.5 8t-7.5 19q0 13 8.5 21.5t20.5 8.5q34 0 34 -45q0 -59 -68 -104z" />
    <glyph glyph-name="quotedblleft" unicode="&#x201c;" horiz-adv-x="280" 
d="M309 696l13 -17q-49 -40 -50 -76l2 1h5q10 0 17.5 -8t7.5 -19q0 -13 -8.5 -21.5t-20.5 -8.5q-34 0 -34 45q0 59 68 104zM191 696l13 -17q-49 -40 -50 -76l2 1h5q10 0 17.5 -8t7.5 -19q0 -13 -8.5 -21.5t-20.5 -8.5q-34 0 -34 45q0 59 68 104z" />
    <glyph glyph-name="quotedblright" unicode="&#x201d;" horiz-adv-x="280" 
d="M136 547l-13 17q49 40 50 76h-3q-2 -1 -4 -1q-10 0 -17.5 8t-7.5 19q0 13 8.5 21.5t20.5 8.5q34 0 34 -45q0 -59 -68 -104zM254 547l-13 17q49 40 50 76h-3q-2 -1 -4 -1q-10 0 -17.5 8t-7.5 19q0 13 8.5 21.5t20.5 8.5q34 0 34 -45q0 -59 -68 -104z" />
    <glyph glyph-name="quotedblbase" unicode="&#x201e;" horiz-adv-x="278" 
d="M-11 -99l-13 17q49 40 50 76h-2q-3 -1 -5 -1q-10 0 -17.5 8t-7.5 19q0 13 8.5 21.5t20.5 8.5q34 0 34 -45q0 -59 -68 -104zM107 -99l-13 17q49 40 50 76h-2q-3 -1 -5 -1q-10 0 -17.5 8t-7.5 19q0 13 8.5 21.5t20.5 8.5q34 0 34 -45q0 -59 -68 -104z" />
    <glyph glyph-name="dagger" unicode="&#x2020;" horiz-adv-x="406" 
d="M145 0l100 470h-157l6 26h157l39 190h31l-40 -190h156l-10 -26h-152l-99 -470h-31z" />
    <glyph glyph-name="daggerdbl" unicode="&#x2021;" horiz-adv-x="414" 
d="M190 219l53 251h-157l6 26h157l40 190h30l-40 -190h156l-10 -26h-152l-53 -251h156l-10 -26h-152l-40 -193h-30l40 193h-157l6 26h157z" />
    <glyph glyph-name="bullet" unicode="&#x2022;" horiz-adv-x="377" 
d="M212 235q-44 0 -74.5 30.5t-30.5 74.5t30.5 74.5t74.5 30.5t74.5 -30.5t30.5 -74.5t-30.5 -74.5t-74.5 -30.5z" />
    <glyph glyph-name="ellipsis" unicode="&#x2026;" horiz-adv-x="532" 
d="M373 -8q-12 0 -20.5 8.5t-8.5 20.5t8 20t20 8t20.5 -8t8.5 -20t-8.5 -20.5t-19.5 -8.5zM223 -8q-12 0 -20.5 8.5t-8.5 20.5t8 20t20 8t20.5 -8t8.5 -20t-8.5 -20.5t-19.5 -8.5zM72 -8q-11 0 -19.5 8.5t-8.5 20.5t8 20t20 8t20.5 -8t8.5 -20t-9 -20.5t-20 -8.5z" />
    <glyph glyph-name="perthousand" unicode="&#x2030;" horiz-adv-x="1099" 
d="M213 367q-53 0 -84 32t-31 86q0 82 51 142.5t132 60.5q55 0 85 -32t30 -86q0 -83 -51 -143t-132 -60zM276 666q-67 0 -109 -54t-42 -127q0 -96 94 -96q65 0 108 53.5t43 126.5q0 97 -94 97zM150 0l477 681h28l-477 -681h-28zM588 314q55 0 85.5 -32t30.5 -86
q0 -83 -51.5 -143t-132.5 -60q-53 0 -84 32t-31 86q0 82 51 142.5t132 60.5zM526 15q65 0 108 53.5t43 126.5q0 97 -93 97q-68 0 -110 -54t-42 -127q0 -96 94 -96zM922 314q55 0 85 -32t30 -86q0 -83 -51 -143t-132 -60q-54 0 -84.5 32t-30.5 86q0 82 51 142.5t132 60.5z
M860 15q65 0 108 53.5t43 126.5q0 97 -94 97q-68 0 -110 -54t-42 -127q0 -44 23 -70t72 -26z" />
    <glyph glyph-name="guilsinglleft" unicode="&#x2039;" horiz-adv-x="271" 
d="M154 47l-90 193l174 193l21 -16l-164 -180l83 -177z" />
    <glyph glyph-name="guilsinglright" unicode="&#x203a;" horiz-adv-x="271" 
d="M117 433l90 -193l-174 -193l-21 16l164 182l-81 176z" />
    <glyph glyph-name="fraction" unicode="&#x2044;" horiz-adv-x="302" 
d="M-230 -154l721 917h28l-721 -917h-28z" />
    <glyph glyph-name="uni2070" unicode="&#x2070;" horiz-adv-x="348" 
d="M168 239q-54 0 -82 44t-28 104q0 55 23 111t63 96q52 52 112 52q52 0 82 -40.5t30 -104.5q0 -28 -6 -58q-20 -88 -75.5 -146t-118.5 -58zM174 261q48 0 95.5 53t63.5 129q6 31 6 57q0 54 -24 88.5t-64 34.5q-47 0 -90 -45q-35 -36 -55 -89t-20 -102q0 -45 22.5 -85.5
t65.5 -40.5z" />
    <glyph glyph-name="uni2074" unicode="&#x2074;" horiz-adv-x="335" 
d="M224 226l23 106h-199l4 20l208 288h29q-3 -4 -51 -72t-96.5 -135.5t-57.5 -78.5l4 1h164l37 159l25 6l-35 -165h57l-5 -23h-57l-21 -99z" />
    <glyph glyph-name="uni2075" unicode="&#x2075;" horiz-adv-x="285" 
d="M64 222q-18 0 -37 3l1 25q16 -7 37 -7q56 0 106 24q40 21 62.5 54.5t22.5 69.5q0 66 -89 66q-46 0 -88 -17l61 199h183l-9 -24h-154l-45 -145q36 9 63 9q60 0 83.5 -24t23.5 -57q0 -45 -27.5 -86t-79.5 -66q-53 -24 -114 -24z" />
    <glyph glyph-name="uni2076" unicode="&#x2076;" horiz-adv-x="314" 
d="M162 239q-49 0 -78 29t-29 83q0 26 5 47q19 92 97 164q68 62 187 101l4 -20q-32 -10 -72 -28q-130 -61 -174 -177q55 46 115 46q48 0 76 -24t28 -64q0 -64 -45.5 -110.5t-113.5 -46.5zM167 261q54 0 89.5 39t35.5 92q0 33 -22.5 51.5t-63.5 18.5q-54 0 -113 -51
q-9 -22 -9 -59q0 -42 20.5 -66.5t62.5 -24.5z" />
    <glyph glyph-name="uni2077" unicode="&#x2077;" horiz-adv-x="312" 
d="M38 219q16 39 47 91q48 81 119 165.5t134 140.5h-10q-10 -1 -17 -1h-208l11 24h262l-10 -26q-84 -76 -165 -177q-88 -111 -129 -209z" />
    <glyph glyph-name="uni2078" unicode="&#x2078;" horiz-adv-x="318" 
d="M158 239q-52 0 -84 21.5t-32 60.5q0 48 36.5 81.5t92.5 51.5q-69 29 -69 80q0 46 38.5 78.5t106.5 32.5q49 0 76 -19.5t27 -53.5q0 -78 -116 -117q85 -34 85 -91q0 -48 -42 -86.5t-119 -38.5zM209 465q114 36 114 102q0 27 -21.5 42t-61.5 15q-49 0 -80.5 -24.5
t-31.5 -60.5q0 -48 81 -74zM164 261q61 0 93.5 29.5t32.5 68.5q0 23 -15 40q-19 21 -79 45q-126 -40 -126 -119q0 -31 24.5 -47.5t69.5 -16.5z" />
    <glyph glyph-name="uni2079" unicode="&#x2079;" horiz-adv-x="347" 
d="M47 222l-12 19q120 28 194 86q62 51 87 111q-49 -40 -108 -40q-49 0 -77 25t-28 66q0 57 45.5 107t117.5 50q53 0 78.5 -31.5t25.5 -76.5q0 -122 -116 -221q-76 -65 -207 -95zM214 420q63 0 116 50q11 24 11 64t-20 64.5t-61 24.5q-61 0 -94.5 -43t-33.5 -88
q0 -33 21.5 -52.5t60.5 -19.5z" />
    <glyph glyph-name="uni2080" unicode="&#x2080;" horiz-adv-x="348" 
d="M78 -256q-54 0 -82 44t-28 104q0 55 23 111t63 96q52 52 112 52q52 0 82 -40.5t30 -104.5q0 -28 -6 -58q-20 -88 -75.5 -146t-118.5 -58zM84 -234q48 0 95.5 53t63.5 129q6 32 6 57q0 54 -24 88.5t-64 34.5q-47 0 -90 -45q-35 -36 -55 -89t-20 -102q0 -45 22.5 -85.5
t65.5 -40.5z" />
    <glyph glyph-name="uni2081" unicode="&#x2081;" horiz-adv-x="260" 
d="M-31 -250l4 23h77l73 343q-7 -5 -54.5 -30.5t-54.5 -28.5l-6 17l128 74h22l-80 -375h75l-4 -23h-180z" />
    <glyph glyph-name="uni2082" unicode="&#x2082;" horiz-adv-x="300" 
d="M-60 -250l4 19q43 27 104 76q30 24 50 42t49 49t44.5 63t15.5 63q0 30 -18.5 47.5t-48.5 17.5q-51 0 -118 -39l-10 15q73 47 138 47q39 0 63 -22.5t24 -59.5q0 -102 -159 -226q-55 -43 -93 -69h191l-8 -23h-228z" />
    <glyph glyph-name="uni2083" unicode="&#x2083;" horiz-adv-x="308" 
d="M-29 -273q-10 0 -30 2l-1 22q17 -3 32 -3q76 0 133 31q76 43 76 110q0 34 -38 51q-22 11 -67 11h-30l5 22h33q45 0 71 13q55 28 55 81q0 27 -19.5 43.5t-54.5 16.5q-54 0 -110 -38l-11 16q63 45 129 45q44 0 69.5 -20.5t25.5 -55.5q0 -40 -27 -69.5t-69 -42.5
q66 -16 66 -74q0 -42 -30.5 -78.5t-76.5 -57.5q-56 -25 -131 -25z" />
    <glyph glyph-name="uni2084" unicode="&#x2084;" horiz-adv-x="335" 
d="M134 -269l23 106h-199l4 20l208 288h29q-3 -4 -51 -72t-96.5 -135.5t-57.5 -78.5l4 1h164l37 159l25 6l-35 -165h57l-5 -23h-57l-21 -99z" />
    <glyph glyph-name="uni2085" unicode="&#x2085;" horiz-adv-x="285" 
d="M-26 -273q-18 0 -37 3l1 25q16 -7 37 -7q56 0 106 24q40 21 62.5 54.5t22.5 69.5q0 66 -89 66q-45 0 -88 -17l61 199h183l-9 -24h-154l-45 -145q36 9 63 9q60 0 83.5 -24t23.5 -57q0 -45 -27.5 -86t-79.5 -66q-53 -24 -114 -24z" />
    <glyph glyph-name="uni2086" unicode="&#x2086;" horiz-adv-x="314" 
d="M72 -256q-49 0 -78 29t-29 83q0 26 5 47q19 92 97 164q68 62 187 101l4 -20q-32 -10 -72 -28q-130 -61 -174 -177q55 46 115 46q48 0 76 -24t28 -64q0 -64 -45.5 -110.5t-113.5 -46.5zM77 -234q54 0 89.5 39t35.5 92q0 33 -22.5 51.5t-63.5 18.5q-54 0 -113 -51
q-9 -23 -9 -59q0 -42 20.5 -66.5t62.5 -24.5z" />
    <glyph glyph-name="uni2087" unicode="&#x2087;" horiz-adv-x="312" 
d="M-52 -276q16 39 47 91q48 81 119 165.5t134 140.5l-10 -1h-17h-208l11 24h262l-10 -26q-84 -76 -165 -177q-88 -111 -129 -209z" />
    <glyph glyph-name="uni2088" unicode="&#x2088;" horiz-adv-x="318" 
d="M68 -256q-52 0 -84 21.5t-32 60.5q0 48 36.5 81.5t92.5 51.5q-69 29 -69 80q0 46 38.5 78.5t106.5 32.5q49 0 76 -19.5t27 -53.5q0 -78 -116 -117q85 -34 85 -91q0 -48 -42 -86.5t-119 -38.5zM119 -30q114 36 114 102q0 27 -21.5 42t-61.5 15q-49 0 -80.5 -24.5
t-31.5 -60.5q0 -48 81 -74zM74 -234q61 0 93.5 29.5t32.5 68.5q0 24 -15 40q-19 21 -79 45q-126 -40 -126 -119q0 -31 24.5 -47.5t69.5 -16.5z" />
    <glyph glyph-name="uni2089" unicode="&#x2089;" horiz-adv-x="347" 
d="M-43 -273l-12 19q120 28 194 86q62 51 87 111q-49 -40 -108 -40q-49 0 -77 25t-28 66q0 57 45.5 107t117.5 50q53 0 78.5 -31.5t25.5 -76.5q0 -122 -116 -221q-76 -65 -207 -95zM124 -75q63 0 116 50q11 24 11 64t-20 64.5t-61 24.5q-61 0 -94.5 -43t-33.5 -88
q0 -33 21.5 -52.5t60.5 -19.5z" />
    <glyph glyph-name="Euro" unicode="&#x20ac;" horiz-adv-x="602" 
d="M636 647l-11 -26q-49 46 -131 46q-98 0 -167.5 -70t-105.5 -180h283l-6 -23h-284q-18 -61 -22 -114h284l-6 -23h-280q-1 -12 -1 -34q0 -206 177 -206q79 0 156 51v-29q-78 -47 -165 -47q-200 0 -200 231q0 22 1 34h-107l5 23h104q5 58 21 114h-102l5 23h105
q40 120 119 197.5t192 77.5q80 0 136 -45z" />
    <glyph glyph-name="uni20B4" unicode="&#x20b4;" horiz-adv-x="552" 
d="M75 385l6 25h310q42 21 70 58.5t28 83.5q0 52 -36.5 84t-92.5 32q-76 0 -155 -49l-11 23q80 51 171 51q68 0 111 -39t43 -96q0 -94 -88 -148h94l-6 -25h-132q-28 -13 -73 -32.5t-78 -35.5t-60 -35h322l-6 -25h-347q-44 -44 -44 -106q0 -64 43.5 -99.5t107.5 -35.5
q87 0 170 54l10 -22q-92 -57 -183 -57q-74 0 -125 40.5t-51 113.5q0 62 39 112h-64l6 25h83q18 14 36 26t40 23t36.5 17.5t43 18.5t41.5 18h-259z" />
    <glyph glyph-name="afii61352" unicode="&#x2116;" horiz-adv-x="901" 
d="M659 498q0 74 41 131t109 57q51 0 76.5 -36t25.5 -90q0 -76 -40.5 -132.5t-112.5 -56.5q-48 0 -73.5 36.5t-25.5 90.5zM41 0l145 686h37l176 -540l35 -111q0 11 27 139l107 512h30l-145 -686h-34l-178 534q-23 69 -35 117l-21 -101l-114 -550h-30zM687 500
q0 -44 17.5 -75t57.5 -31q57 0 89 52.5t32 115.5q0 44 -18 72.5t-59 28.5q-56 0 -87.5 -50.5t-31.5 -112.5zM846 216h-250l6 27h249z" />
    <glyph glyph-name="uni2117" unicode="&#x2117;" horiz-adv-x="831" 
d="M415 -10q-146 0 -250 102.5t-104 253.5q0 150 104 253t250 103t250.5 -103t104.5 -253t-104.5 -253t-250.5 -103zM415 12q135 0 231.5 96.5t96.5 237.5q0 140 -96.5 237t-231.5 97t-231 -97t-96 -237q0 -141 96 -237.5t231 -96.5zM320 133v422h96q72 0 105 -26
q43 -31 43 -90q0 -62 -38 -94q-36 -32 -105 -32h-77v-180h-24zM344 334h76q61 0 89 27q28 26 28 75q0 50 -29 73q-32 24 -96 24h-68v-199z" />
    <glyph glyph-name="trademark" unicode="&#x2122;" horiz-adv-x="867" 
d="M392 317l100 369h42l51 -330l191 330h44l-55 -369h-27l52 342l-201 -342h-22l-55 342l-93 -342h-27zM168 317l72 343h-125l5 26h283l-6 -26h-128l-73 -343h-28z" />
    <glyph glyph-name="Omega" unicode="&#x2126;" horiz-adv-x="553" 
d="M269 0l2 27q70 20 120.5 71t76 117.5t36.5 128.5t11 122q0 201 -157 201q-48 0 -89.5 -19.5t-71.5 -53t-52 -72t-38 -83.5q-38 -108 -38 -220q0 -159 102 -194l-2 -25h-163l-1 27h110q-78 47 -78 192q0 131 51 257q38 95 106 155.5t171 60.5q92 0 137 -63.5t45 -162.5
q0 -57 -10 -116.5t-32 -124t-65.5 -118t-102.5 -80.5h105l-10 -27h-163z" />
    <glyph glyph-name="uni2150" unicode="&#x2150;" horiz-adv-x="874" 
d="M59 245l4 23h77l73 343q-7 -5 -54.5 -30.5t-54.5 -28.5l-6 17l128 74h22l-80 -375h75l-4 -23h-180zM60 -154l721 917h28l-721 -917h-28zM570 -26q16 39 47 91q48 81 119 165.5t134 140.5l-10 -1h-17h-208l11 24h262l-10 -26q-84 -76 -165 -177q-88 -111 -129 -209z" />
    <glyph glyph-name="uni2151" unicode="&#x2151;" horiz-adv-x="909" 
d="M59 245l4 23h77l73 343q-7 -5 -54.5 -30.5t-54.5 -28.5l-6 17l128 74h22l-80 -375h75l-4 -23h-180zM70 -154l721 917h28l-721 -917h-28zM579 -23l-12 19q120 28 194 86q62 51 87 111q-49 -40 -108 -40q-49 0 -77 25t-28 66q0 57 45.5 107t117.5 50q53 0 78.5 -31.5
t25.5 -76.5q0 -122 -116 -221q-76 -65 -207 -95zM746 175q63 0 116 50q11 24 11 64t-20 64.5t-61 24.5q-61 0 -94.5 -43t-33.5 -88q0 -33 21.5 -52.5t60.5 -19.5z" />
    <glyph glyph-name="uni2152" unicode="&#x2152;" horiz-adv-x="1170" 
d="M59 245l4 23h77l73 343q-7 -5 -54.5 -30.5t-54.5 -28.5l-6 17l128 74h22l-80 -375h75l-4 -23h-180zM60 -154l721 917h28l-721 -917h-28zM591 0l4 23h77l73 343q-7 -5 -54.5 -30.5t-54.5 -28.5l-6 17l128 74h22l-80 -375h75l-4 -23h-180zM960 -6q-54 0 -82 44t-28 104
q0 55 23 111t63 96q52 52 112 52q52 0 82 -40.5t30 -104.5q0 -28 -6 -58q-20 -88 -75.5 -146t-118.5 -58zM966 16q48 0 95.5 53t63.5 129q6 32 6 57q0 54 -24 88.5t-64 34.5q-47 0 -90 -45q-35 -36 -55 -89t-20 -102q0 -45 22.5 -85.5t65.5 -40.5z" />
    <glyph glyph-name="onethird" unicode="&#x2153;" horiz-adv-x="870" 
d="M59 245l4 23h77l73 343q-7 -5 -54.5 -30.5t-54.5 -28.5l-6 17l128 74h22l-80 -375h75l-4 -23h-180zM50 -154l721 917h28l-721 -917h-28zM593 -23q-10 0 -30 2l-1 22q16 -3 32 -3q76 0 133 31q76 43 76 110q0 34 -38 51q-22 11 -67 11h-30l5 22h33q45 0 71 13q55 28 55 81
q0 27 -19.5 43.5t-54.5 16.5q-54 0 -110 -38l-11 16q63 45 129 45q44 0 69.5 -20.5t25.5 -55.5q0 -40 -27 -69.5t-69 -42.5q66 -16 66 -74q0 -42 -30.5 -78.5t-76.5 -57.5q-56 -25 -131 -25z" />
    <glyph glyph-name="twothirds" unicode="&#x2154;" horiz-adv-x="910" 
d="M30 245l4 19q43 27 104 76q30 24 50 42t49 49t44.5 63t15.5 63q0 30 -18.5 47.5t-48.5 17.5q-51 0 -118 -39l-10 15q73 47 138 47q39 0 63 -22.5t24 -59.5q0 -102 -159 -226q-55 -43 -93 -69h191l-8 -23h-228zM90 -154l721 917h28l-721 -917h-28zM633 -23q-10 0 -30 2
l-1 22q16 -3 32 -3q76 0 133 31q76 43 76 110q0 34 -38 51q-22 11 -67 11h-30l5 22h33q45 0 71 13q55 28 55 81q0 27 -19.5 43.5t-54.5 16.5q-54 0 -110 -38l-11 16q63 45 129 45q44 0 69.5 -20.5t25.5 -55.5q0 -40 -27 -69.5t-69 -42.5q66 -16 66 -74q0 -42 -30.5 -78.5
t-76.5 -57.5q-56 -25 -131 -25z" />
    <glyph glyph-name="uni2155" unicode="&#x2155;" horiz-adv-x="847" 
d="M59 245l4 23h77l73 343q-7 -5 -54.5 -30.5t-54.5 -28.5l-6 17l128 74h22l-80 -375h75l-4 -23h-180zM50 -154l721 917h28l-721 -917h-28zM596 -23q-18 0 -37 3l1 25q16 -7 37 -7q56 0 106 24q40 21 62.5 54.5t22.5 69.5q0 66 -89 66q-45 0 -88 -17l61 199h183l-9 -24h-154
l-45 -145q36 9 63 9q60 0 83.5 -24t23.5 -57q0 -45 -27.5 -86t-79.5 -66q-53 -24 -114 -24z" />
    <glyph glyph-name="uni2156" unicode="&#x2156;" horiz-adv-x="887" 
d="M30 245l4 19q43 27 104 76q30 24 50 42t49 49t44.5 63t15.5 63q0 30 -18.5 47.5t-48.5 17.5q-51 0 -118 -39l-10 15q73 47 138 47q39 0 63 -22.5t24 -59.5q0 -102 -159 -226q-55 -43 -93 -69h191l-8 -23h-228zM90 -154l721 917h28l-721 -917h-28zM636 -23q-18 0 -37 3
l1 25q16 -7 37 -7q56 0 106 24q40 21 62.5 54.5t22.5 69.5q0 66 -89 66q-45 0 -88 -17l61 199h183l-9 -24h-154l-45 -145q36 9 63 9q60 0 83.5 -24t23.5 -57q0 -45 -27.5 -86t-79.5 -66q-53 -24 -114 -24z" />
    <glyph glyph-name="uni2157" unicode="&#x2157;" horiz-adv-x="895" 
d="M61 222q-10 0 -30 2l-1 22q16 -3 32 -3q76 0 133 31q76 43 76 110q0 34 -38 51q-22 11 -67 11h-30l5 22h33q45 0 71 13q55 28 55 81q0 27 -19.5 43.5t-54.5 16.5q-54 0 -110 -38l-11 16q63 45 129 45q44 0 69.5 -20.5t25.5 -55.5q0 -40 -27 -69.5t-69 -42.5
q66 -17 66 -74q0 -42 -30.5 -78.5t-76.5 -57.5q-56 -25 -131 -25zM88 -154l721 917h28l-721 -917h-28zM644 -23q-18 0 -37 3l1 25q16 -7 37 -7q56 0 106 24q40 21 62.5 54.5t22.5 69.5q0 66 -89 66q-45 0 -88 -17l61 199h183l-9 -24h-154l-45 -145q36 9 63 9q60 0 83.5 -24
t23.5 -57q0 -45 -27.5 -86t-79.5 -66q-53 -24 -114 -24z" />
    <glyph glyph-name="uni2158" unicode="&#x2158;" horiz-adv-x="922" 
d="M224 226l23 106h-199l4 20l208 288h29q-3 -4 -51 -72t-96.5 -135.5t-57.5 -78.5l4 1h164l37 159l25 6l-35 -165h57l-5 -23h-57l-21 -99zM125 -154l721 917h28l-721 -917h-28zM671 -23q-17 0 -37 3l1 25q16 -7 37 -7q56 0 106 24q40 21 62.5 54.5t22.5 69.5q0 66 -89 66
q-46 0 -88 -17l61 199h183l-9 -24h-154l-45 -145q36 9 63 9q60 0 83.5 -24t23.5 -57q0 -45 -27.5 -86t-79.5 -66q-53 -24 -114 -24z" />
    <glyph glyph-name="uni2159" unicode="&#x2159;" horiz-adv-x="876" 
d="M59 245l4 23h77l73 343q-7 -5 -54.5 -30.5t-54.5 -28.5l-6 17l128 74h22l-80 -375h75l-4 -23h-180zM70 -154l721 917h28l-721 -917h-28zM694 -6q-49 0 -78 29t-29 83q0 26 5 47q19 92 97 164q68 62 187 101l4 -20q-32 -10 -72 -28q-130 -61 -174 -177q55 46 115 46
q48 0 76 -24t28 -64q0 -64 -45.5 -110.5t-113.5 -46.5zM699 16q54 0 89.5 39t35.5 92q0 33 -22.5 51.5t-63.5 18.5q-54 0 -113 -51q-9 -22 -9 -59q0 -42 20.5 -66.5t62.5 -24.5z" />
    <glyph glyph-name="uni215A" unicode="&#x215a;" horiz-adv-x="901" 
d="M64 222q-18 0 -37 3l1 25q16 -7 37 -7q56 0 106 24q40 21 62.5 54.5t22.5 69.5q0 66 -89 66q-46 0 -88 -17l61 199h183l-9 -24h-154l-45 -145q36 9 63 9q60 0 83.5 -24t23.5 -57q0 -45 -27.5 -86t-79.5 -66q-53 -24 -114 -24zM85 -154l721 917h28l-721 -917h-28zM719 -6
q-49 0 -78 29t-29 83q0 26 5 47q19 92 97 164q68 62 187 101l4 -20q-32 -10 -72 -28q-130 -61 -174 -177q55 46 115 46q48 0 76 -24t28 -64q0 -64 -45.5 -110.5t-113.5 -46.5zM724 16q54 0 89.5 39t35.5 92q0 33 -22.5 51.5t-63.5 18.5q-54 0 -113 -51q-9 -22 -9 -59
q0 -42 20.5 -66.5t62.5 -24.5z" />
    <glyph glyph-name="oneeighth" unicode="&#x215b;" horiz-adv-x="880" 
d="M59 245l4 23h77l73 343q-7 -5 -54.5 -30.5t-54.5 -28.5l-6 17l128 74h22l-80 -375h75l-4 -23h-180zM60 -154l721 917h28l-721 -917h-28zM690 -6q-52 0 -84 21.5t-32 60.5q0 48 36.5 81.5t92.5 51.5q-69 29 -69 80q0 46 38.5 78.5t106.5 32.5q49 0 76 -19.5t27 -53.5
q0 -78 -116 -117q85 -34 85 -91q0 -48 -42 -86.5t-119 -38.5zM741 220q114 36 114 102q0 27 -21.5 42t-61.5 15q-49 0 -80.5 -24.5t-31.5 -60.5q0 -48 81 -74zM696 16q61 0 93.5 29.5t32.5 68.5q0 24 -15 40q-19 21 -79 45q-126 -40 -126 -119q0 -31 24.5 -47.5t69.5 -16.5z
" />
    <glyph glyph-name="threeeighths" unicode="&#x215c;" horiz-adv-x="928" 
d="M61 222q-10 0 -30 2l-1 22q16 -3 32 -3q76 0 133 31q76 43 76 110q0 34 -38 51q-22 11 -67 11h-30l5 22h33q45 0 71 13q55 28 55 81q0 27 -19.5 43.5t-54.5 16.5q-54 0 -110 -38l-11 16q63 45 129 45q44 0 69.5 -20.5t25.5 -55.5q0 -40 -27 -69.5t-69 -42.5
q66 -17 66 -74q0 -42 -30.5 -78.5t-76.5 -57.5q-56 -25 -131 -25zM98 -154l721 917h28l-721 -917h-28zM738 -6q-52 0 -84 21.5t-32 60.5q0 48 36.5 81.5t92.5 51.5q-69 29 -69 80q0 46 38.5 78.5t106.5 32.5q49 0 76 -19.5t27 -53.5q0 -78 -116 -117q85 -34 85 -91
q0 -48 -42 -86.5t-119 -38.5zM789 220q114 36 114 102q0 27 -21.5 42t-61.5 15q-49 0 -80.5 -24.5t-31.5 -60.5q0 -48 81 -74zM744 16q61 0 93.5 29.5t32.5 68.5q0 24 -15 40q-19 21 -79 45q-126 -40 -126 -119q0 -31 24.5 -47.5t69.5 -16.5z" />
    </font>
</defs>
</svg>
